SplineFontDB: 3.2
FontName: Gontserrat-ExtraLightItalic
FullName: Gontserrat Extra Light Italic
FamilyName: Gontserrat
Weight: Light
Copyright: Gontserrat is a derivative work of Montserrat under the Open Font License, version 1.1. Copyright 2020 Gabriel Classon (gabeclasson.com). Montserrat copyright 2011 The Montserrat Project Authors (https://github.com/JulietaUla/Montserrat). 
Version: 7.222
ItalicAngle: -11.3
UnderlinePosition: -100
UnderlineWidth: 50
Ascent: 800
Descent: 200
InvalidEm: 0
sfntRevision: 0x00010000
LayerCount: 2
Layer: 0 1 "Back" 1
Layer: 1 1 "Fore" 0
XUID: [1021 930 -1503615855 15356]
StyleMap: 0x0001
FSType: 0
OS2Version: 4
OS2_WeightWidthSlopeOnly: 0
OS2_UseTypoMetrics: 1
CreationTime: 1485852814
ModificationTime: 1642922845
PfmFamily: 81
TTFWeight: 275
TTFWidth: 5
LineGap: 0
VLineGap: 0
Panose: 0 0 3 0 0 0 0 0 0 0
OS2TypoAscent: 968
OS2TypoAOffset: 0
OS2TypoDescent: -251
OS2TypoDOffset: 0
OS2TypoLinegap: 0
OS2WinAscent: 1177
OS2WinAOffset: 0
OS2WinDescent: 496
OS2WinDOffset: 0
HheadAscent: 968
HheadAOffset: 0
HheadDescent: -251
HheadDOffset: 0
OS2SubXSize: 650
OS2SubYSize: 600
OS2SubXOff: -15
OS2SubYOff: 75
OS2SupXSize: 650
OS2SupYSize: 600
OS2SupXOff: 70
OS2SupYOff: 350
OS2StrikeYSize: 50
OS2StrikeYPos: 312
OS2CapHeight: 699
OS2XHeight: 521
OS2Vendor: 'ULA '
OS2CodePages: 20000193.00000000
OS2UnicodeRanges: 20000007.00000001.00000000.00000000
Lookup: 1 0 0 "'rtla' Right to Left Alternates lookup 0" { "'rtla' Right to Left Alternates lookup 0 subtable"  } ['rtla' ('DFLT' <'dflt' > ) ]
Lookup: 1 0 0 "<10,2> Inferiors lookup 1" { "<10,2> Inferiors lookup 1 subtable" ("inferior") } [<10,2> ('DFLT' <'dflt' > ) 'subs' ('DFLT' <'dflt' > ) ]
Lookup: 1 0 0 "<10,1> Superiors lookup 2" { "<10,1> Superiors lookup 2 subtable" ("superior") } [<10,1> ('DFLT' <'dflt' > ) 'sups' ('DFLT' <'dflt' > ) ]
Lookup: 1 0 0 "<11,2> Diagonal Fractions lookup 3" { "<11,2> Diagonal Fractions lookup 3 subtable"  } [<11,2> ('DFLT' <'dflt' > ) 'frac' ('DFLT' <'dflt' > ) ]

StartChar: .notdef
Encoding: 65536 -1 0
Width: 587
Flags: W
LayerCount: 2
Fore
SplineSet
40 0 m 1,0,-1
 40 700 l 1,1,-1
 547 700 l 1,2,-1
 547 0 l 1,3,-1
 40 0 l 1,0,-1
120 70 m 1,4,-1
 467 70 l 1,5,-1
 467 630 l 1,6,-1
 120 630 l 1,7,-1
 120 70 l 1,4,-1
EndSplineSet
EndChar

StartChar: exclam
Encoding: 33 33 5
Width: 197
Flags: W
LayerCount: 2
Fore
SplineSet
204 684 m 1,0,-1
 172 520 l 1,1,-1
 103 197 l 1,2,-1
 71 197 l 1,3,-1
 132 520 l 1,4,-1
 164 684 l 1,5,-1
 204 684 l 1,0,-1
81.5 55 m 128,-1,7
 90 46 90 46 90 32 c 0,8,9
 90 16 90 16 79 4 c 128,-1,10
 68 -8 68 -8 53 -8 c 0,11,12
 39 -8 39 -8 30 1.5 c 128,-1,13
 21 11 21 11 21 26 c 0,14,15
 21 42 21 42 32 53 c 128,-1,16
 43 64 43 64 59 64 c 0,17,6
 73 64 73 64 81.5 55 c 128,-1,7
EndSplineSet
Substitution2: "<3,3> Small Caps in Latin lookup 11 subtable" exclam.sc
EndChar

StartChar: numbersign
Encoding: 35 35 7
Width: 682
Flags: W
LayerCount: 2
Fore
SplineSet
678 460 m 1,0,-1
 529 460 l 1,1,-1
 482 236 l 1,2,-1
 627 236 l 1,3,-1
 624 199 l 1,4,-1
 474 199 l 1,5,-1
 432 0 l 1,6,-1
 398 0 l 1,7,-1
 440 199 l 1,8,-1
 213 199 l 1,9,-1
 171 0 l 1,10,-1
 137 0 l 1,11,-1
 179 199 l 1,12,-1
 33 199 l 1,13,-1
 37 236 l 1,14,-1
 187 236 l 1,15,-1
 234 460 l 1,16,-1
 88 460 l 1,17,-1
 92 496 l 1,18,-1
 242 496 l 1,19,-1
 285 699 l 1,20,-1
 319 699 l 1,21,-1
 276 496 l 1,22,-1
 503 496 l 1,23,-1
 546 699 l 1,24,-1
 580 699 l 1,25,-1
 537 496 l 1,26,-1
 683 496 l 1,27,-1
 678 460 l 1,0,-1
448 236 m 1,28,-1
 495 460 l 1,29,-1
 268 460 l 1,30,-1
 221 236 l 1,31,-1
 448 236 l 1,28,-1
EndSplineSet
EndChar

StartChar: dollar
Encoding: 36 36 8
Width: 596
Flags: W
LayerCount: 2
Fore
SplineSet
207.5 627.5 m 128,-1,1
 154 595 154 595 148 540 c 0,2,3
 147 534 147 534 147 524 c 0,4,5
 147 482 147 482 169.5 455.5 c 128,-1,6
 192 429 192 429 225.5 413.5 c 128,-1,7
 259 398 259 398 317 379 c 0,8,9
 379 359 379 359 418 340.5 c 128,-1,10
 457 322 457 322 483.5 288 c 128,-1,11
 510 254 510 254 510 200 c 0,12,13
 510 184 510 184 509 176 c 0,14,15
 504 122 504 122 469 81.5 c 128,-1,16
 434 41 434 41 376.5 19 c 128,-1,17
 319 -3 319 -3 246 -3 c 2,18,-1
 243 -3 l 1,19,-1
 219 -125 l 1,20,-1
 185 -125 l 1,21,-1
 208 -1 l 1,22,23
 149 7 149 7 95 33 c 128,-1,24
 41 59 41 59 5 98 c 1,25,-1
 31 135 l 1,26,27
 70 91 70 91 129 65.5 c 128,-1,28
 188 40 188 40 251 40 c 0,29,30
 343 40 343 40 400.5 76.5 c 128,-1,31
 458 113 458 113 464 174 c 0,32,33
 465 180 465 180 465 192 c 0,34,35
 465 235 465 235 442 262.5 c 128,-1,36
 419 290 419 290 385.5 305.5 c 128,-1,37
 352 321 352 321 293 340 c 0,38,39
 230 360 230 360 192 378 c 128,-1,40
 154 396 154 396 128 429 c 128,-1,41
 102 462 102 462 102 515 c 0,42,43
 102 530 102 530 103 537 c 0,44,45
 110 612 110 612 177 657 c 128,-1,46
 244 702 244 702 349 703 c 1,47,-1
 369 811 l 1,48,-1
 404 811 l 1,49,-1
 383 701 l 1,50,51
 428 697 428 697 471 682.5 c 128,-1,52
 514 668 514 668 546 646 c 1,53,-1
 524 608 l 1,54,55
 488 633 488 633 439.5 646.5 c 128,-1,56
 391 660 391 660 345 660 c 0,57,0
 261 660 261 660 207.5 627.5 c 128,-1,1
EndSplineSet
EndChar

StartChar: ampersand
Encoding: 38 38 10
Width: 646
Flags: W
LayerCount: 2
Fore
SplineSet
565 -4 m 1,0,1
 499 71 499 71 460 117 c 1,2,3
 348 -1 348 -1 231 -1 c 0,4,5
 178 -1 178 -1 135.5 20.5 c 128,-1,6
 93 42 93 42 69 80 c 128,-1,7
 45 118 45 118 45 166 c 0,8,9
 45 243 45 243 96.5 292.5 c 128,-1,10
 148 342 148 342 241 388 c 1,11,12
 209 438 209 438 197.5 472.5 c 128,-1,13
 186 507 186 507 188 545 c 0,14,15
 189 588 189 588 212.5 624 c 128,-1,16
 236 660 236 660 276.5 680.5 c 128,-1,17
 317 701 317 701 365 701 c 0,18,19
 426 701 426 701 461.5 669.5 c 128,-1,20
 497 638 497 638 497 584 c 0,21,22
 497 535 497 535 469 498 c 128,-1,23
 441 461 441 461 400 435 c 128,-1,24
 359 409 359 409 291 376 c 1,25,26
 344 304 344 304 459 170 c 1,27,28
 513 235 513 235 559 320 c 1,29,-1
 588 294 l 1,30,31
 536 204 536 204 483 142 c 1,32,-1
 590 19 l 1,33,-1
 565 -4 l 1,0,1
232 478 m 128,-1,35
 242 448 242 448 272 404 c 1,36,37
 336 436 336 436 373.5 458.5 c 128,-1,38
 411 481 411 481 436.5 512.5 c 128,-1,39
 462 544 462 544 462 584 c 0,40,41
 462 623 462 623 436.5 645.5 c 128,-1,42
 411 668 411 668 366 668 c 0,43,44
 306 668 306 668 265 631.5 c 128,-1,45
 224 595 224 595 223 542 c 0,46,34
 222 508 222 508 232 478 c 128,-1,35
436 144 m 1,48,49
 310 291 310 291 260 360 c 1,50,51
 173 316 173 316 127 273.5 c 128,-1,52
 81 231 81 231 81 166 c 0,53,54
 81 108 81 108 123.5 71.5 c 128,-1,55
 166 35 166 35 231 35 c 0,56,47
 335 35 335 35 436 144 c 1,48,49
EndSplineSet
Substitution2: "<3,3> Small Caps in Latin lookup 11 subtable" ampersand.sc
EndChar

StartChar: quotesingle
Encoding: 39 39 11
Width: 155
Flags: W
LayerCount: 2
Fore
SplineSet
183 699 m 1,0,-1
 143 495 l 1,1,-1
 108 495 l 1,2,-1
 148 699 l 1,3,-1
 183 699 l 1,0,-1
EndSplineSet
Substitution2: "<3,3> Small Caps in Latin lookup 11 subtable" quotesingle.sc
EndChar

StartChar: parenleft
Encoding: 40 40 12
Width: 285
Flags: W
LayerCount: 2
Fore
SplineSet
223 545 m 128,-1,1
 171 433 171 433 145 305 c 0,2,3
 126 210 126 210 126 119 c 0,4,5
 126 -22 126 -22 173 -124 c 1,6,-1
 136 -124 l 1,7,8
 88 -21 88 -21 88 124 c 0,9,10
 88 217 88 217 107 313 c 0,11,12
 133 439 133 439 184.5 549.5 c 128,-1,13
 236 660 236 660 308 742 c 1,14,-1
 347 742 l 1,15,0
 275 657 275 657 223 545 c 128,-1,1
EndSplineSet
Substitution2: "'rtla' Right to Left Alternates lookup 0 subtable" parenright
EndChar

StartChar: parenright
Encoding: 41 41 13
Width: 291
Flags: W
LayerCount: 2
Fore
SplineSet
105 73 m 128,-1,1
 157 185 157 185 183 313 c 0,2,3
 202 408 202 408 202 499 c 0,4,5
 202 640 202 640 155 742 c 1,6,-1
 192 742 l 1,7,8
 240 639 240 639 240 494 c 0,9,10
 240 401 240 401 221 305 c 0,11,12
 195 179 195 179 143.5 68.5 c 128,-1,13
 92 -42 92 -42 20 -124 c 1,14,-1
 -19 -124 l 1,15,0
 53 -39 53 -39 105 73 c 128,-1,1
EndSplineSet
Substitution2: "'rtla' Right to Left Alternates lookup 0 subtable" parenleft
EndChar

StartChar: asterisk
Encoding: 42 42 14
Width: 331
Flags: W
LayerCount: 2
Fore
SplineSet
343 501 m 1,0,-1
 244 558 l 1,1,-1
 244 445 l 1,2,-1
 217 445 l 1,3,-1
 217 559 l 1,4,-1
 119 501 l 1,5,-1
 105 527 l 1,6,-1
 203 584 l 1,7,-1
 105 640 l 1,8,-1
 119 667 l 1,9,-1
 217 609 l 1,10,-1
 217 722 l 1,11,-1
 244 722 l 1,12,-1
 244 609 l 1,13,-1
 343 666 l 1,14,-1
 356 640 l 1,15,-1
 257 584 l 1,16,-1
 356 527 l 1,17,-1
 343 501 l 1,0,-1
EndSplineSet
EndChar

StartChar: plus
Encoding: 43 43 15
Width: 484
Flags: W
LayerCount: 2
Fore
SplineSet
460 339 m 1,0,-1
 454 304 l 1,1,-1
 267 304 l 1,2,-1
 230 117 l 1,3,-1
 197 117 l 1,4,-1
 234 304 l 1,5,-1
 48 304 l 1,6,-1
 54 339 l 1,7,-1
 241 339 l 1,8,-1
 278 525 l 1,9,-1
 311 525 l 1,10,-1
 274 339 l 1,11,-1
 460 339 l 1,0,-1
EndSplineSet
EndChar

StartChar: comma
Encoding: 44 44 16
Width: 172
Flags: W
LayerCount: 2
Fore
SplineSet
66 53.5 m 128,-1,1
 75 43 75 43 74 28 c 0,2,3
 72 19 72 19 61 -4 c 2,4,-1
 6 -110 l 1,5,-1
 -23 -110 l 1,6,-1
 24 -4 l 1,7,8
 14 0 14 0 9 8.5 c 128,-1,9
 4 17 4 17 6 28 c 0,10,11
 7 43 7 43 18 53.5 c 128,-1,12
 29 64 29 64 43 64 c 256,13,0
 57 64 57 64 66 53.5 c 128,-1,1
EndSplineSet
EndChar

StartChar: hyphen
Encoding: 45 45 17
Width: 360
Flags: W
LayerCount: 2
Fore
SplineSet
303 319 m 1,0,-1
 296 284 l 1,1,-1
 73 284 l 1,2,-1
 79 319 l 1,3,-1
 303 319 l 1,0,-1
EndSplineSet
EndChar

StartChar: period
Encoding: 46 46 18
Width: 182
Flags: W
LayerCount: 2
Fore
SplineSet
70.5 55 m 128,-1,1
 79 46 79 46 79 32 c 0,2,3
 79 16 79 16 68 4 c 128,-1,4
 57 -8 57 -8 42 -8 c 0,5,6
 28 -8 28 -8 19 1.5 c 128,-1,7
 10 11 10 11 10 26 c 0,8,9
 10 42 10 42 21 53 c 128,-1,10
 32 64 32 64 48 64 c 0,11,0
 62 64 62 64 70.5 55 c 128,-1,1
EndSplineSet
Substitution2: "<3,3> Small Caps in Latin lookup 11 subtable" period.sc
EndChar

StartChar: slash
Encoding: 47 47 19
Width: 341
Flags: W
LayerCount: 2
Fore
SplineSet
406 824 m 1,0,-1
 8 -127 l 1,1,-1
 -30 -127 l 1,2,-1
 368 824 l 1,3,-1
 406 824 l 1,0,-1
EndSplineSet
Substitution2: "<11,2> Diagonal Fractions lookup 3 subtable" fraction
EndChar

StartChar: zero
Encoding: 48 48 20
Width: 824
Flags: W
LayerCount: 2
Fore
SplineSet
665.5 635 m 128,-1,1
 723 568 723 568 723 444 c 0,2,3
 723 312 723 312 680 210.5 c 128,-1,4
 637 109 637 109 555 53 c 128,-1,5
 473 -3 473 -3 361 -3 c 0,6,7
 251 -3 251 -3 193.5 64 c 128,-1,8
 136 131 136 131 136 255 c 0,9,10
 136 387 136 387 179.5 488.5 c 128,-1,11
 223 590 223 590 304.5 646 c 128,-1,12
 386 702 386 702 498 702 c 0,13,0
 608 702 608 702 665.5 635 c 128,-1,1
322.5 612.5 m 128,-1,15
 252 561 252 561 215.5 469.5 c 128,-1,16
 179 378 179 378 179 259 c 0,17,18
 179 151 179 151 227 93 c 128,-1,19
 275 35 275 35 367 35 c 0,20,21
 465 35 465 35 536 86.5 c 128,-1,22
 607 138 607 138 643.5 230 c 128,-1,23
 680 322 680 322 680 440 c 0,24,25
 680 549 680 549 632 606.5 c 128,-1,26
 584 664 584 664 491 664 c 0,27,14
 393 664 393 664 322.5 612.5 c 128,-1,15
EndSplineSet
Substitution2: "<21,0> Lower Case Numbers lookup 10 subtable" zero.osf
Substitution2: "<6,0> Monospaced Numbers lookup 9 subtable" zero.tf
Substitution2: "<11,2> Diagonal Fractions lookup 4 subtable" zero.numr
Substitution2: "<10,1> Superiors lookup 2 subtable" uni2070
Substitution2: "<10,2> Inferiors lookup 1 subtable" uni2080
EndChar

StartChar: one
Encoding: 49 49 21
Width: 440
Flags: W
LayerCount: 2
Fore
SplineSet
136 699 m 1,0,-1
 356 699 l 1,1,-1
 220 0 l 1,2,-1
 179 0 l 1,3,-1
 307 658 l 1,4,-1
 128 658 l 1,5,-1
 136 699 l 1,0,-1
EndSplineSet
Substitution2: "<21,0> Lower Case Numbers lookup 10 subtable" one.osf
Substitution2: "<6,0> Monospaced Numbers lookup 9 subtable" one.tf
Substitution2: "<11,2> Diagonal Fractions lookup 4 subtable" one.numr
Substitution2: "<10,1> Superiors lookup 2 subtable" uni00B9
Substitution2: "<10,2> Inferiors lookup 1 subtable" uni2081
EndChar

StartChar: two
Encoding: 50 50 22
Width: 646
Flags: W
LayerCount: 2
Fore
SplineSet
401 311 m 2,1,-1
 87 41 l 1,2,-1
 524 41 l 1,3,-1
 517 0 l 1,4,-1
 30 0 l 1,5,-1
 39 43 l 1,6,-1
 377 337 l 2,7,8
 447 397 447 397 487.5 451.5 c 128,-1,9
 528 506 528 506 529 549 c 0,10,11
 531 602 531 602 492 631.5 c 128,-1,12
 453 661 453 661 380 661 c 0,13,14
 327 661 327 661 269.5 638.5 c 128,-1,15
 212 616 212 616 163 576 c 1,16,-1
 147 609 l 1,17,18
 202 653 202 653 266.5 677.5 c 128,-1,19
 331 702 331 702 391 702 c 0,20,21
 479 702 479 702 528 663 c 128,-1,22
 577 624 577 624 573 556 c 0,23,0
 569 455 569 455 401 311 c 2,1,-1
EndSplineSet
Substitution2: "<21,0> Lower Case Numbers lookup 10 subtable" two.osf
Substitution2: "<6,0> Monospaced Numbers lookup 9 subtable" two.tf
Substitution2: "<11,2> Diagonal Fractions lookup 4 subtable" two.numr
Substitution2: "<10,1> Superiors lookup 2 subtable" uni00B2
Substitution2: "<10,2> Inferiors lookup 1 subtable" uni2082
EndChar

StartChar: three
Encoding: 51 51 23
Width: 659
Flags: W
LayerCount: 2
Fore
SplineSet
603 667 m 1,0,-1
 287 398 l 1,1,-1
 332 397 l 2,2,3
 435 395 435 395 494.5 353.5 c 128,-1,4
 554 312 554 312 554 240 c 0,5,6
 554 172 554 172 514.5 116.5 c 128,-1,7
 475 61 475 61 404.5 29 c 128,-1,8
 334 -3 334 -3 244 -3 c 0,9,10
 183 -3 183 -3 126 14 c 128,-1,11
 69 31 69 31 28 60 c 1,12,-1
 54 96 l 1,13,14
 91 69 91 69 143 53 c 128,-1,15
 195 37 195 37 250 37 c 0,16,17
 327 37 327 37 387 62.5 c 128,-1,18
 447 88 447 88 479.5 133 c 128,-1,19
 512 178 512 178 512 233 c 0,20,21
 512 296 512 296 460 329.5 c 128,-1,22
 408 363 408 363 312 363 c 2,23,-1
 229 363 l 1,24,-1
 234 395 l 1,25,-1
 545 658 l 1,26,-1
 177 658 l 1,27,-1
 184 699 l 1,28,-1
 609 699 l 1,29,-1
 603 667 l 1,0,-1
EndSplineSet
Substitution2: "<21,0> Lower Case Numbers lookup 10 subtable" three.osf
Substitution2: "<6,0> Monospaced Numbers lookup 9 subtable" three.tf
Substitution2: "<11,2> Diagonal Fractions lookup 4 subtable" three.numr
Substitution2: "<10,1> Superiors lookup 2 subtable" uni00B3
Substitution2: "<10,2> Inferiors lookup 1 subtable" uni2083
EndChar

StartChar: four
Encoding: 52 52 24
Width: 660
Flags: W
LayerCount: 2
Fore
SplineSet
587 240 m 1,0,-1
 579 199 l 1,1,-1
 462 199 l 1,2,-1
 424 0 l 1,3,-1
 384 0 l 1,4,-1
 422 199 l 1,5,-1
 62 199 l 1,6,-1
 69 240 l 1,7,-1
 438 699 l 1,8,-1
 482 699 l 1,9,-1
 115 240 l 1,10,-1
 430 240 l 1,11,-1
 471 450 l 1,12,-1
 511 450 l 1,13,-1
 470 240 l 1,14,-1
 587 240 l 1,0,-1
EndSplineSet
Substitution2: "<21,0> Lower Case Numbers lookup 10 subtable" four.osf
Substitution2: "<6,0> Monospaced Numbers lookup 9 subtable" four.tf
Substitution2: "<11,2> Diagonal Fractions lookup 4 subtable" four.numr
Substitution2: "<10,1> Superiors lookup 2 subtable" uni2074
Substitution2: "<10,2> Inferiors lookup 1 subtable" uni2084
EndChar

StartChar: five
Encoding: 53 53 25
Width: 702
Flags: W
LayerCount: 2
Fore
SplineSet
275 658 m 1,0,-1
 225 404 l 1,1,2
 262 413 262 413 305.5 418.5 c 128,-1,3
 349 424 349 424 382 424 c 0,4,5
 481 424 481 424 537.5 378 c 128,-1,6
 594 332 594 332 594 256 c 0,7,8
 594 183 594 183 556 124 c 128,-1,9
 518 65 518 65 450 31 c 128,-1,10
 382 -3 382 -3 296 -3 c 0,11,12
 238 -3 238 -3 177.5 16.5 c 128,-1,13
 117 36 117 36 71 68 c 1,14,-1
 96 104 l 1,15,16
 137 74 137 74 192.5 56 c 128,-1,17
 248 38 248 38 300 38 c 0,18,19
 372 38 372 38 429 65 c 128,-1,20
 486 92 486 92 518 140 c 128,-1,21
 550 188 550 188 550 248 c 0,22,23
 550 310 550 310 501.5 346.5 c 128,-1,24
 453 383 453 383 368 383 c 0,25,26
 330 383 330 383 275 375 c 128,-1,27
 220 367 220 367 176 354 c 1,28,-1
 243 699 l 1,29,-1
 655 699 l 1,30,-1
 647 658 l 1,31,-1
 275 658 l 1,0,-1
EndSplineSet
Substitution2: "<21,0> Lower Case Numbers lookup 10 subtable" five.osf
Substitution2: "<6,0> Monospaced Numbers lookup 9 subtable" five.tf
Substitution2: "<11,2> Diagonal Fractions lookup 4 subtable" five.numr
Substitution2: "<10,1> Superiors lookup 2 subtable" uni2075
Substitution2: "<10,2> Inferiors lookup 1 subtable" uni2085
EndChar

StartChar: six
Encoding: 54 54 26
Width: 739
Flags: W
LayerCount: 2
Fore
SplineSet
193 62 m 128,-1,1
 134 127 134 127 134 247 c 0,2,3
 134 373 134 373 179 477.5 c 128,-1,4
 224 582 224 582 301.5 642 c 128,-1,5
 379 702 379 702 474 702 c 0,6,7
 521 702 521 702 573.5 687.5 c 128,-1,8
 626 673 626 673 668 648 c 1,9,-1
 644 613 l 1,10,11
 608 636 608 636 562.5 649.5 c 128,-1,12
 517 663 517 663 473 663 c 0,13,14
 392 663 392 663 329.5 617 c 128,-1,15
 267 571 267 571 228 485.5 c 128,-1,16
 189 400 189 400 177 283 c 1,17,18
 208 358 208 358 272.5 399.5 c 128,-1,19
 337 441 337 441 422 441 c 0,20,21
 517 441 517 441 570.5 393 c 128,-1,22
 624 345 624 345 624 261 c 0,23,24
 624 184 624 184 590.5 124 c 128,-1,25
 557 64 557 64 498 30.5 c 128,-1,26
 439 -3 439 -3 363 -3 c 0,27,0
 252 -3 252 -3 193 62 c 128,-1,1
476.5 65.5 m 128,-1,29
 527 93 527 93 555 142.5 c 128,-1,30
 583 192 583 192 583 255 c 0,31,32
 583 323 583 323 538 363 c 128,-1,33
 493 403 493 403 415 403 c 0,34,35
 352 403 352 403 299 375 c 128,-1,36
 246 347 246 347 214.5 299.5 c 128,-1,37
 183 252 183 252 183 198 c 0,38,39
 183 153 183 153 205.5 116.5 c 128,-1,40
 228 80 228 80 268.5 59 c 128,-1,41
 309 38 309 38 363 38 c 0,42,28
 426 38 426 38 476.5 65.5 c 128,-1,29
EndSplineSet
Substitution2: "<21,0> Lower Case Numbers lookup 10 subtable" six.osf
Substitution2: "<6,0> Monospaced Numbers lookup 9 subtable" six.tf
Substitution2: "<11,2> Diagonal Fractions lookup 4 subtable" six.numr
Substitution2: "<10,1> Superiors lookup 2 subtable" uni2076
Substitution2: "<10,2> Inferiors lookup 1 subtable" uni2086
EndChar

StartChar: seven
Encoding: 55 55 27
Width: 636
Flags: W
LayerCount: 2
Fore
SplineSet
158 699 m 1,0,-1
 660 699 l 1,1,-1
 653 658 l 1,2,-1
 193 0 l 1,3,-1
 148 0 l 1,4,-1
 608 658 l 1,5,-1
 190 658 l 1,6,-1
 168 549 l 1,7,-1
 130 549 l 1,8,-1
 158 699 l 1,0,-1
EndSplineSet
Substitution2: "<21,0> Lower Case Numbers lookup 10 subtable" seven.osf
Substitution2: "<6,0> Monospaced Numbers lookup 9 subtable" seven.tf
Substitution2: "<11,2> Diagonal Fractions lookup 4 subtable" seven.numr
Substitution2: "<10,1> Superiors lookup 2 subtable" uni2077
Substitution2: "<10,2> Inferiors lookup 1 subtable" uni2087
EndChar

StartChar: eight
Encoding: 56 56 28
Width: 744
Flags: W
LayerCount: 2
Fore
SplineSet
596 664.5 m 128,-1,1
 645 627 645 627 645 561 c 0,2,3
 645 493 645 493 603.5 446 c 128,-1,4
 562 399 562 399 486 375 c 1,5,6
 546 358 546 358 579.5 319.5 c 128,-1,7
 613 281 613 281 613 226 c 0,8,9
 613 157 613 157 577 105.5 c 128,-1,10
 541 54 541 54 475 25.5 c 128,-1,11
 409 -3 409 -3 322 -3 c 0,12,13
 219 -3 219 -3 162.5 40.5 c 128,-1,14
 106 84 106 84 106 161 c 0,15,16
 106 242 106 242 159 297.5 c 128,-1,17
 212 353 212 353 304 375 c 1,18,19
 257 393 257 393 231 426 c 128,-1,20
 205 459 205 459 205 505 c 0,21,22
 205 564 205 564 236.5 608.5 c 128,-1,23
 268 653 268 653 325.5 677.5 c 128,-1,24
 383 702 383 702 458 702 c 0,25,0
 547 702 547 702 596 664.5 c 128,-1,1
300.5 622.5 m 128,-1,27
 244 579 244 579 244 506 c 0,28,29
 244 452 244 452 284 421.5 c 128,-1,30
 324 391 324 391 398 391 c 0,31,32
 493 391 493 391 549.5 434.5 c 128,-1,33
 606 478 606 478 606 552 c 0,34,35
 606 606 606 606 566 636 c 128,-1,36
 526 666 526 666 452 666 c 0,37,26
 357 666 357 666 300.5 622.5 c 128,-1,27
263 330.5 m 128,-1,39
 208 308 208 308 177.5 267 c 128,-1,40
 147 226 147 226 147 171 c 0,41,42
 147 107 147 107 194.5 71 c 128,-1,43
 242 35 242 35 328 35 c 0,44,45
 401 35 401 35 456 58 c 128,-1,46
 511 81 511 81 541.5 124 c 128,-1,47
 572 167 572 167 572 223 c 0,48,49
 572 283 572 283 524 318 c 128,-1,50
 476 353 476 353 390 353 c 0,51,38
 318 353 318 353 263 330.5 c 128,-1,39
EndSplineSet
Substitution2: "<21,0> Lower Case Numbers lookup 10 subtable" eight.osf
Substitution2: "<6,0> Monospaced Numbers lookup 9 subtable" eight.tf
Substitution2: "<11,2> Diagonal Fractions lookup 4 subtable" eight.numr
Substitution2: "<10,1> Superiors lookup 2 subtable" uni2078
Substitution2: "<10,2> Inferiors lookup 1 subtable" uni2088
EndChar

StartChar: nine
Encoding: 57 57 29
Width: 737
Flags: W
LayerCount: 2
Fore
SplineSet
210.5 50.5 m 128,-1,1
 256 37 256 37 300 37 c 0,2,3
 381 37 381 37 443.5 83 c 128,-1,4
 506 129 506 129 545 214 c 128,-1,5
 584 299 584 299 596 416 c 1,6,7
 564 341 564 341 499.5 299.5 c 128,-1,8
 435 258 435 258 351 258 c 0,9,10
 256 258 256 258 202.5 306.5 c 128,-1,11
 149 355 149 355 149 438 c 0,12,13
 149 515 149 515 182.5 575 c 128,-1,14
 216 635 216 635 275.5 668.5 c 128,-1,15
 335 702 335 702 410 702 c 0,16,17
 521 702 521 702 580 637 c 128,-1,18
 639 572 639 572 639 452 c 0,19,20
 639 326 639 326 594 222 c 128,-1,21
 549 118 549 118 471 57.5 c 128,-1,22
 393 -3 393 -3 299 -3 c 0,23,24
 252 -3 252 -3 199.5 11.5 c 128,-1,25
 147 26 147 26 105 51 c 1,26,-1
 129 87 l 1,27,0
 165 64 165 64 210.5 50.5 c 128,-1,1
296.5 633.5 m 128,-1,29
 246 606 246 606 218 556.5 c 128,-1,30
 190 507 190 507 190 444 c 0,31,32
 190 377 190 377 235.5 336.5 c 128,-1,33
 281 296 281 296 358 296 c 0,34,35
 421 296 421 296 474 324 c 128,-1,36
 527 352 527 352 558.5 399.5 c 128,-1,37
 590 447 590 447 590 502 c 0,38,39
 590 547 590 547 568 583 c 128,-1,40
 546 619 546 619 505 640 c 128,-1,41
 464 661 464 661 410 661 c 0,42,28
 347 661 347 661 296.5 633.5 c 128,-1,29
EndSplineSet
Substitution2: "<21,0> Lower Case Numbers lookup 10 subtable" nine.osf
Substitution2: "<6,0> Monospaced Numbers lookup 9 subtable" nine.tf
Substitution2: "<11,2> Diagonal Fractions lookup 4 subtable" nine.numr
Substitution2: "<10,1> Superiors lookup 2 subtable" uni2079
Substitution2: "<10,2> Inferiors lookup 1 subtable" uni2089
EndChar

StartChar: less
Encoding: 60 60 32
Width: 484
Flags: W
LayerCount: 2
Fore
SplineSet
499 536 m 1,0,-1
 493 495 l 1,1,-1
 85 326 l 1,2,-1
 424 156 l 1,3,-1
 418 119 l 1,4,-1
 49 305 l 1,5,-1
 56 350 l 1,6,-1
 499 536 l 1,0,-1
EndSplineSet
Substitution2: "'rtla' Right to Left Alternates lookup 0 subtable" greater
EndChar

StartChar: equal
Encoding: 61 61 33
Width: 484
Flags: W
LayerCount: 2
Fore
SplineSet
481 440 m 1,0,-1
 474 405 l 1,1,-1
 68 405 l 1,2,-1
 74 440 l 1,3,-1
 481 440 l 1,0,-1
440 237 m 1,4,-1
 434 203 l 1,5,-1
 28 203 l 1,6,-1
 34 237 l 1,7,-1
 440 237 l 1,4,-1
EndSplineSet
EndChar

StartChar: greater
Encoding: 62 62 34
Width: 485
Flags: W
LayerCount: 2
Fore
SplineSet
13 120 m 1,0,-1
 19 161 l 1,1,-1
 427 330 l 1,2,-1
 88 500 l 1,3,-1
 94 537 l 1,4,-1
 463 351 l 1,5,-1
 456 306 l 1,6,-1
 13 120 l 1,0,-1
EndSplineSet
Substitution2: "'rtla' Right to Left Alternates lookup 0 subtable" less
EndChar

StartChar: question
Encoding: 63 63 35
Width: 408
Flags: W
LayerCount: 2
Fore
SplineSet
124 641.5 m 128,-1,1
 176 683 176 683 256 683 c 0,2,3
 334 683 334 683 378.5 644.5 c 128,-1,4
 423 606 423 606 423 538 c 0,5,6
 423 501 423 501 409 470 c 128,-1,7
 395 439 395 439 375.5 416 c 128,-1,8
 356 393 356 393 322 359 c 0,9,10
 277 315 277 315 254.5 283.5 c 128,-1,11
 232 252 232 252 230 211 c 1,12,-1
 195 211 l 1,13,14
 198 260 198 260 222 296 c 128,-1,15
 246 332 246 332 292 378 c 0,16,17
 338 423 338 423 360.5 456.5 c 128,-1,18
 383 490 383 490 383 535 c 0,19,20
 383 587 383 587 348.5 615.5 c 128,-1,21
 314 644 314 644 252 644 c 0,22,23
 187 644 187 644 147 613 c 128,-1,24
 107 582 107 582 97 524 c 1,25,-1
 61 526 l 1,26,0
 72 600 72 600 124 641.5 c 128,-1,1
215.5 55 m 128,-1,28
 224 46 224 46 224 32 c 0,29,30
 224 16 224 16 213 4 c 128,-1,31
 202 -8 202 -8 187 -8 c 0,32,33
 173 -8 173 -8 164 1.5 c 128,-1,34
 155 11 155 11 155 26 c 0,35,36
 155 42 155 42 166 53 c 128,-1,37
 177 64 177 64 193 64 c 0,38,27
 207 64 207 64 215.5 55 c 128,-1,28
EndSplineSet
Substitution2: "<3,3> Small Caps in Latin lookup 11 subtable" question.sc
EndChar

StartChar: at
Encoding: 64 64 36
Width: 1003
Flags: W
LayerCount: 2
Fore
SplineSet
773 667.5 m 128,-1,1
 862 619 862 619 911 531.5 c 128,-1,2
 960 444 960 444 960 332 c 0,3,4
 960 239 960 239 933 161.5 c 128,-1,5
 906 84 906 84 859.5 39 c 128,-1,6
 813 -6 813 -6 758 -6 c 0,7,8
 716 -6 716 -6 693 21.5 c 128,-1,9
 670 49 670 49 674 96 c 2,10,-1
 681 150 l 1,11,12
 643 86 643 86 580 49.5 c 128,-1,13
 517 13 517 13 443 13 c 0,14,15
 380 13 380 13 331 40 c 128,-1,16
 282 67 282 67 254.5 116 c 128,-1,17
 227 165 227 165 227 228 c 0,18,19
 227 308 227 308 265 375.5 c 128,-1,20
 303 443 303 443 368 482.5 c 128,-1,21
 433 522 433 522 511 522 c 0,22,23
 586 522 586 522 639 484.5 c 128,-1,24
 692 447 692 447 708 388 c 1,25,-1
 728 518 l 1,26,-1
 767 518 l 1,27,-1
 710 109 l 2,28,29
 708 95 708 95 708 89 c 0,30,31
 708 60 708 60 723 44 c 128,-1,32
 738 28 738 28 765 28 c 0,33,34
 806 28 806 28 843 69.5 c 128,-1,35
 880 111 880 111 903 180 c 128,-1,36
 926 249 926 249 926 328 c 0,37,38
 926 431 926 431 881.5 511 c 128,-1,39
 837 591 837 591 755.5 635.5 c 128,-1,40
 674 680 674 680 567 680 c 0,41,42
 436 680 436 680 324 615.5 c 128,-1,43
 212 551 212 551 146 441.5 c 128,-1,44
 80 332 80 332 80 203 c 0,45,46
 80 104 80 104 125 27 c 128,-1,47
 170 -50 170 -50 251 -92.5 c 128,-1,48
 332 -135 332 -135 437 -135 c 0,49,50
 480 -135 480 -135 533.5 -121.5 c 128,-1,51
 587 -108 587 -108 625 -87 c 1,52,-1
 637 -119 l 1,53,54
 597 -142 597 -142 539.5 -157 c 128,-1,55
 482 -172 482 -172 433 -172 c 0,56,57
 319 -172 319 -172 231 -125 c 128,-1,58
 143 -78 143 -78 94 7 c 128,-1,59
 45 92 45 92 45 200 c 0,60,61
 45 340 45 340 116 458.5 c 128,-1,62
 187 577 187 577 307.5 646.5 c 128,-1,63
 428 716 428 716 569 716 c 0,64,0
 684 716 684 716 773 667.5 c 128,-1,1
390 447.5 m 128,-1,66
 334 414 334 414 301.5 357 c 128,-1,67
 269 300 269 300 269 233 c 0,68,69
 269 154 269 154 318.5 104 c 128,-1,70
 368 54 368 54 450 54 c 0,71,72
 516 54 516 54 572 87.5 c 128,-1,73
 628 121 628 121 661 178 c 128,-1,74
 694 235 694 235 694 302 c 0,75,76
 694 382 694 382 643.5 431.5 c 128,-1,77
 593 481 593 481 511 481 c 0,78,65
 446 481 446 481 390 447.5 c 128,-1,66
EndSplineSet
EndChar

StartChar: A
Encoding: 65 65 37
Width: 698
Flags: W
LayerCount: 2
Fore
SplineSet
591 0 m 1,0,-1
 534 199 l 1,1,-1
 124 199 l 1,2,-1
 2 0 l 1,3,-1
 -44 0 l 1,4,-1
 389 699 l 1,5,-1
 433 699 l 1,6,-1
 637 0 l 1,7,-1
 591 0 l 1,0,-1
150 241 m 1,8,-1
 522 241 l 1,9,-1
 403 654 l 1,10,-1
 150 241 l 1,8,-1
EndSplineSet
Substitution2: "<11,2> Diagonal Fractions lookup 7 nested-substitutions 0 subtable" ordfeminine
Substitution2: "<11,2> Diagonal Fractions lookup 5 nested-substitutions 0 subtable" ordfeminine
EndChar

StartChar: B
Encoding: 66 66 38
Width: 727
Flags: W
LayerCount: 2
Fore
SplineSet
613 319 m 128,-1,1
 649 281 649 281 649 222 c 0,2,3
 649 154 649 154 613.5 104 c 128,-1,4
 578 54 578 54 511.5 27 c 128,-1,5
 445 0 445 0 355 0 c 2,6,-1
 68 0 l 1,7,-1
 208 699 l 1,8,-1
 494 699 l 2,9,10
 583 699 583 699 632 661.5 c 128,-1,11
 681 624 681 624 681 558 c 0,12,13
 681 484 681 484 635 431.5 c 128,-1,14
 589 379 589 379 510 365 c 1,15,0
 577 357 577 357 613 319 c 128,-1,1
186 382 m 1,16,-1
 428 382 l 2,17,18
 525 382 525 382 581 426 c 128,-1,19
 637 470 637 470 637 546 c 0,20,21
 637 599 637 599 597.5 628.5 c 128,-1,22
 558 658 558 658 485 658 c 2,23,-1
 242 658 l 1,24,-1
 186 382 l 1,16,-1
540.5 89 m 128,-1,26
 606 136 606 136 606 218 c 0,27,28
 606 277 606 277 558.5 309 c 128,-1,29
 511 341 511 341 422 341 c 2,30,-1
 178 341 l 1,31,-1
 117 42 l 1,32,-1
 360 42 l 2,33,25
 475 42 475 42 540.5 89 c 128,-1,26
EndSplineSet
EndChar

StartChar: C
Encoding: 67 67 39
Width: 730
Flags: W
LayerCount: 2
Fore
SplineSet
593.5 679 m 128,-1,1
 655 654 655 654 699 609 c 1,2,-1
 671 577 l 1,3,4
 631 619 631 619 576.5 641.5 c 128,-1,5
 522 664 522 664 460 664 c 0,6,7
 367 664 367 664 286 617 c 128,-1,8
 205 570 205 570 156.5 491 c 128,-1,9
 108 412 108 412 108 320 c 0,10,11
 108 241 108 241 145.5 176.5 c 128,-1,12
 183 112 183 112 249 74.5 c 128,-1,13
 315 37 315 37 396 37 c 0,14,15
 458 37 458 37 517 59.5 c 128,-1,16
 576 82 576 82 625 123 c 1,17,-1
 649 94 l 1,18,19
 594 48 594 48 527.5 22 c 128,-1,20
 461 -4 461 -4 392 -4 c 0,21,22
 300 -4 300 -4 225.5 38.5 c 128,-1,23
 151 81 151 81 108.5 154.5 c 128,-1,24
 66 228 66 228 66 317 c 0,25,26
 66 420 66 420 121 509 c 128,-1,27
 176 598 176 598 267 651 c 128,-1,28
 358 704 358 704 462 704 c 0,29,0
 532 704 532 704 593.5 679 c 128,-1,1
EndSplineSet
EndChar

StartChar: D
Encoding: 68 68 40
Width: 804
Flags: W
LayerCount: 2
Fore
SplineSet
628.5 660.5 m 128,-1,1
 699 622 699 622 738.5 554.5 c 128,-1,2
 778 487 778 487 778 403 c 0,3,4
 778 381 778 381 775 357 c 0,5,6
 763 260 763 260 703 178 c 128,-1,7
 643 96 643 96 553 48 c 128,-1,8
 463 0 463 0 363 0 c 2,9,-1
 69 0 l 1,10,-1
 208 699 l 1,11,-1
 469 699 l 2,12,0
 558 699 558 699 628.5 660.5 c 128,-1,1
737 395 m 0,14,15
 737 469 737 469 701.5 529 c 128,-1,16
 666 589 666 589 603.5 623.5 c 128,-1,17
 541 658 541 658 463 658 c 2,18,-1
 242 658 l 1,19,-1
 118 42 l 1,20,-1
 370 42 l 2,21,22
 457 42 457 42 536.5 84 c 128,-1,23
 616 126 616 126 669 198 c 128,-1,24
 722 270 722 270 734 356 c 0,25,13
 737 376 737 376 737 395 c 0,14,15
EndSplineSet
EndChar

StartChar: E
Encoding: 69 69 41
Width: 647
Flags: W
LayerCount: 2
Fore
SplineSet
651 658 m 1,0,-1
 242 658 l 1,1,-1
 185 379 l 1,2,-1
 550 379 l 1,3,-1
 542 337 l 1,4,-1
 177 337 l 1,5,-1
 117 42 l 1,6,-1
 540 42 l 1,7,-1
 532 0 l 1,8,-1
 68 0 l 1,9,-1
 208 699 l 1,10,-1
 659 699 l 1,11,-1
 651 658 l 1,0,-1
EndSplineSet
EndChar

StartChar: F
Encoding: 70 70 42
Width: 551
Flags: W
LayerCount: 2
Fore
SplineSet
621 658 m 1,0,-1
 242 658 l 1,1,-1
 181 356 l 1,2,-1
 516 356 l 1,3,-1
 509 314 l 1,4,-1
 173 314 l 1,5,-1
 110 0 l 1,6,-1
 68 0 l 1,7,-1
 208 699 l 1,8,-1
 629 699 l 1,9,-1
 621 658 l 1,0,-1
EndSplineSet
EndChar

StartChar: G
Encoding: 71 71 43
Width: 772
Flags: W
LayerCount: 2
Fore
SplineSet
446 364 m 1,0,-1
 692 364 l 1,1,-1
 637 88 l 1,2,3
 522 -4 522 -4 393 -4 c 0,4,5
 301 -4 301 -4 226 38.5 c 128,-1,6
 151 81 151 81 108.5 154.5 c 128,-1,7
 66 228 66 228 66 317 c 0,8,9
 66 420 66 420 121 509 c 128,-1,10
 176 598 176 598 267.5 651 c 128,-1,11
 359 704 359 704 464 704 c 0,12,13
 534 704 534 704 595.5 679.5 c 128,-1,14
 657 655 657 655 702 611 c 1,15,-1
 674 580 l 1,16,17
 633 620 633 620 578 642 c 128,-1,18
 523 664 523 664 461 664 c 0,19,20
 368 664 368 664 286.5 617 c 128,-1,21
 205 570 205 570 156 490.5 c 128,-1,22
 107 411 107 411 107 319 c 0,23,24
 107 241 107 241 145 176 c 128,-1,25
 183 111 183 111 249.5 73.5 c 128,-1,26
 316 36 316 36 397 36 c 0,27,28
 506 36 506 36 603 109 c 1,29,-1
 646 324 l 1,30,-1
 438 324 l 1,31,-1
 446 364 l 1,0,-1
EndSplineSet
EndChar

StartChar: H
Encoding: 72 72 44
Width: 911
Flags: W
LayerCount: 2
Fore
SplineSet
780 699 m 1,0,-1
 822 699 l 1,1,-1
 682 0 l 1,2,-1
 640 0 l 1,3,-1
 706 330 l 1,4,-1
 233 330 l 1,5,-1
 167 0 l 1,6,-1
 125 0 l 1,7,-1
 265 699 l 1,8,-1
 307 699 l 1,9,-1
 241 371 l 1,10,-1
 714 371 l 1,11,-1
 780 699 l 1,0,-1
EndSplineSet
EndChar

StartChar: I
Encoding: 73 73 45
Width: 282
Flags: W
LayerCount: 2
Fore
SplineSet
249 699 m 1,0,-1
 109 0 l 1,1,-1
 67 0 l 1,2,-1
 207 699 l 1,3,-1
 249 699 l 1,0,-1
EndSplineSet
EndChar

StartChar: J
Encoding: 74 74 46
Width: 468
Flags: W
LayerCount: 2
Fore
SplineSet
453 699 m 1,0,-1
 354 202 l 2,1,2
 334 104 334 104 276 51.5 c 128,-1,3
 218 -1 218 -1 131 -1 c 0,4,5
 77 -1 77 -1 35.5 24.5 c 128,-1,6
 -6 50 -6 50 -31 97 c 1,7,-1
 -1 130 l 1,8,9
 21 87 21 87 57.5 64.5 c 128,-1,10
 94 42 94 42 138 42 c 0,11,12
 206 42 206 42 251 83.5 c 128,-1,13
 296 125 296 125 312 203 c 2,14,-1
 403 658 l 1,15,-1
 146 658 l 1,16,-1
 153 699 l 1,17,-1
 453 699 l 1,0,-1
EndSplineSet
EndChar

StartChar: K
Encoding: 75 75 47
Width: 681
Flags: W
LayerCount: 2
Fore
SplineSet
721 699 m 1,0,-1
 373 386 l 1,1,-1
 601 0 l 1,2,-1
 552 0 l 1,3,-1
 339 355 l 1,4,-1
 146 181 l 1,5,-1
 110 0 l 1,6,-1
 68 0 l 1,7,-1
 208 699 l 1,8,-1
 250 699 l 1,9,-1
 160 251 l 1,10,-1
 665 699 l 1,11,-1
 721 699 l 1,0,-1
EndSplineSet
EndChar

StartChar: L
Encoding: 76 76 48
Width: 501
Flags: W
LayerCount: 2
Fore
SplineSet
117 42 m 1,0,-1
 428 42 l 1,1,-1
 420 0 l 1,2,-1
 68 0 l 1,3,-1
 208 699 l 1,4,-1
 250 699 l 1,5,-1
 117 42 l 1,0,-1
EndSplineSet
EndChar

StartChar: M
Encoding: 77 77 49
Width: 938
Flags: W
LayerCount: 2
Fore
SplineSet
845 699 m 1,0,-1
 901 699 l 1,1,-1
 765 0 l 1,2,-1
 727 0 l 1,3,-1
 852 645 l 1,4,-1
 442 76 l 1,5,-1
 424 76 l 1,6,-1
 236 644 l 1,7,-1
 110 0 l 1,8,-1
 71 0 l 1,9,-1
 207 699 l 1,10,-1
 264 699 l 1,11,-1
 446 144 l 1,12,-1
 845 699 l 1,0,-1
EndSplineSet
EndChar

StartChar: N
Encoding: 78 78 50
Width: 797
Flags: W
LayerCount: 2
Fore
SplineSet
724 699 m 1,0,-1
 765 699 l 1,1,-1
 625 0 l 1,2,-1
 576 0 l 1,3,-1
 238 637 l 1,4,-1
 110 0 l 1,5,-1
 68 0 l 1,6,-1
 208 699 l 1,7,-1
 257 699 l 1,8,-1
 595 62 l 1,9,-1
 724 699 l 1,0,-1
EndSplineSet
EndChar

StartChar: O
Encoding: 79 79 51
Width: 821
Flags: W
LayerCount: 2
Fore
SplineSet
630.5 661.5 m 128,-1,1
 706 619 706 619 749 546 c 128,-1,2
 792 473 792 473 792 384 c 0,3,4
 792 282 792 282 737 192.5 c 128,-1,5
 682 103 682 103 590 49.5 c 128,-1,6
 498 -4 498 -4 394 -4 c 0,7,8
 301 -4 301 -4 226 38.5 c 128,-1,9
 151 81 151 81 108.5 154.5 c 128,-1,10
 66 228 66 228 66 317 c 0,11,12
 66 420 66 420 121 509 c 128,-1,13
 176 598 176 598 267.5 651 c 128,-1,14
 359 704 359 704 463 704 c 0,15,0
 555 704 555 704 630.5 661.5 c 128,-1,1
287 616 m 128,-1,17
 206 569 206 569 157 490 c 128,-1,18
 108 411 108 411 108 319 c 0,19,20
 108 241 108 241 146 176.5 c 128,-1,21
 184 112 184 112 250 74.5 c 128,-1,22
 316 37 316 37 397 37 c 0,23,24
 488 37 488 37 569.5 84.5 c 128,-1,25
 651 132 651 132 700.5 211.5 c 128,-1,26
 750 291 750 291 750 382 c 0,27,28
 750 459 750 459 712 523.5 c 128,-1,29
 674 588 674 588 607.5 625.5 c 128,-1,30
 541 663 541 663 461 663 c 0,31,16
 368 663 368 663 287 616 c 128,-1,17
EndSplineSet
Substitution2: "<11,2> Diagonal Fractions lookup 7 nested-substitutions 0 subtable" ordmasculine
Substitution2: "<11,2> Diagonal Fractions lookup 5 nested-substitutions 0 subtable" ordmasculine
EndChar

StartChar: P
Encoding: 80 80 52
Width: 677
Flags: W
LayerCount: 2
Fore
SplineSet
623.5 651 m 128,-1,1
 683 603 683 603 683 515 c 0,2,3
 683 430 683 430 644.5 366 c 128,-1,4
 606 302 606 302 533 267.5 c 128,-1,5
 460 233 460 233 361 233 c 2,6,-1
 157 233 l 1,7,-1
 110 0 l 1,8,-1
 68 0 l 1,9,-1
 208 699 l 1,10,-1
 454 699 l 2,11,0
 564 699 564 699 623.5 651 c 128,-1,1
568.5 336.5 m 128,-1,13
 642 399 642 399 642 506 c 0,14,15
 642 579 642 579 591 618.5 c 128,-1,16
 540 658 540 658 445 658 c 2,17,-1
 242 658 l 1,18,-1
 165 274 l 1,19,-1
 367 274 l 2,20,12
 495 274 495 274 568.5 336.5 c 128,-1,13
EndSplineSet
EndChar

StartChar: Q
Encoding: 81 81 53
Width: 824
Flags: W
LayerCount: 2
Fore
SplineSet
810 -55 m 1,0,1
 730 -131 730 -131 643 -131 c 0,2,3
 537 -131 537 -131 427 -3 c 1,4,5
 416 -4 416 -4 394 -4 c 0,6,7
 301 -4 301 -4 226 38.5 c 128,-1,8
 151 81 151 81 108.5 154.5 c 128,-1,9
 66 228 66 228 66 317 c 0,10,11
 66 420 66 420 121 509 c 128,-1,12
 176 598 176 598 267.5 651 c 128,-1,13
 359 704 359 704 463 704 c 0,14,15
 555 704 555 704 630.5 661.5 c 128,-1,16
 706 619 706 619 749 546 c 128,-1,17
 792 473 792 473 792 384 c 0,18,19
 792 294 792 294 749.5 214 c 128,-1,20
 707 134 707 134 634 78.5 c 128,-1,21
 561 23 561 23 473 4 c 1,22,23
 569 -92 569 -92 646 -92 c 0,24,25
 713 -92 713 -92 789 -24 c 1,26,-1
 810 -55 l 1,0,1
146 176.5 m 128,-1,28
 184 112 184 112 250 74.5 c 128,-1,29
 316 37 316 37 397 37 c 0,30,31
 488 37 488 37 569.5 84.5 c 128,-1,32
 651 132 651 132 700.5 211.5 c 128,-1,33
 750 291 750 291 750 382 c 0,34,35
 750 459 750 459 712 523.5 c 128,-1,36
 674 588 674 588 607.5 625.5 c 128,-1,37
 541 663 541 663 461 663 c 0,38,39
 368 663 368 663 287 616 c 128,-1,40
 206 569 206 569 157 490 c 128,-1,41
 108 411 108 411 108 319 c 0,42,27
 108 241 108 241 146 176.5 c 128,-1,28
EndSplineSet
EndChar

StartChar: R
Encoding: 82 82 54
Width: 725
Flags: W
LayerCount: 2
Fore
SplineSet
627 338.5 m 128,-1,1
 569 267 569 267 463 243 c 1,2,-1
 588 0 l 1,3,-1
 539 0 l 1,4,-1
 420 236 l 1,5,6
 393 233 393 233 362 233 c 2,7,-1
 157 233 l 1,8,-1
 110 0 l 1,9,-1
 68 0 l 1,10,-1
 208 699 l 1,11,-1
 455 699 l 2,12,13
 566 699 566 699 625.5 651 c 128,-1,14
 685 603 685 603 685 515 c 0,15,0
 685 410 685 410 627 338.5 c 128,-1,1
570.5 336.5 m 128,-1,17
 644 399 644 399 644 506 c 0,18,19
 644 579 644 579 593 618.5 c 128,-1,20
 542 658 542 658 448 658 c 2,21,-1
 242 658 l 1,22,-1
 165 274 l 1,23,-1
 370 274 l 2,24,16
 497 274 497 274 570.5 336.5 c 128,-1,17
EndSplineSet
EndChar

StartChar: S
Encoding: 83 83 55
Width: 596
Flags: W
LayerCount: 2
Fore
SplineSet
457.5 691.5 m 128,-1,1
 510 676 510 676 547 650 c 1,2,-1
 525 612 l 1,3,4
 489 637 489 637 440.5 650.5 c 128,-1,5
 392 664 392 664 346 664 c 0,6,7
 262 664 262 664 208.5 631 c 128,-1,8
 155 598 155 598 149 543 c 0,9,10
 148 537 148 537 148 527 c 0,11,12
 148 484 148 484 170.5 457 c 128,-1,13
 193 430 193 430 226.5 414.5 c 128,-1,14
 260 399 260 399 318 380 c 0,15,16
 381 359 381 359 419 340.5 c 128,-1,17
 457 322 457 322 483.5 288 c 128,-1,18
 510 254 510 254 510 200 c 0,19,20
 510 184 510 184 509 175 c 0,21,22
 504 121 504 121 469 80 c 128,-1,23
 434 39 434 39 376.5 16.5 c 128,-1,24
 319 -6 319 -6 246 -6 c 0,25,26
 177 -6 177 -6 112.5 22 c 128,-1,27
 48 50 48 50 5 96 c 1,28,-1
 31 133 l 1,29,30
 70 88 70 88 129 62.5 c 128,-1,31
 188 37 188 37 251 37 c 0,32,33
 342 37 342 37 400 74 c 128,-1,34
 458 111 458 111 464 173 c 0,35,36
 465 179 465 179 465 191 c 0,37,38
 465 235 465 235 442 262.5 c 128,-1,39
 419 290 419 290 384.5 306 c 128,-1,40
 350 322 350 322 293 340 c 0,41,42
 230 361 230 361 192.5 379 c 128,-1,43
 155 397 155 397 129 430 c 128,-1,44
 103 463 103 463 103 517 c 0,45,46
 103 532 103 532 104 540 c 0,47,48
 108 590 108 590 140.5 628 c 128,-1,49
 173 666 173 666 228 686.5 c 128,-1,50
 283 707 283 707 352 707 c 0,51,0
 405 707 405 707 457.5 691.5 c 128,-1,1
EndSplineSet
EndChar

StartChar: T
Encoding: 84 84 56
Width: 538
Flags: W
LayerCount: 2
Fore
SplineSet
613 699 m 1,0,-1
 606 658 l 1,1,-1
 369 658 l 1,2,-1
 237 0 l 1,3,-1
 196 0 l 1,4,-1
 328 658 l 1,5,-1
 92 658 l 1,6,-1
 100 699 l 1,7,-1
 613 699 l 1,0,-1
EndSplineSet
EndChar

StartChar: U
Encoding: 85 85 57
Width: 772
Flags: W
LayerCount: 2
Fore
SplineSet
674 286 m 2,0,1
 647 148 647 148 562 73.5 c 128,-1,2
 477 -1 477 -1 344 -1 c 0,3,4
 229 -1 229 -1 164.5 55 c 128,-1,5
 100 111 100 111 100 213 c 0,6,7
 100 244 100 244 108 286 c 2,8,-1
 191 699 l 1,9,-1
 232 699 l 1,10,-1
 150 286 l 2,11,12
 143 254 143 254 143 221 c 0,13,14
 143 134 143 134 197 87 c 128,-1,15
 251 40 251 40 349 40 c 0,16,17
 462 40 462 40 535 104 c 128,-1,18
 608 168 608 168 632 286 c 2,19,-1
 715 699 l 1,20,-1
 757 699 l 1,21,-1
 674 286 l 2,0,1
EndSplineSet
EndChar

StartChar: V
Encoding: 86 86 58
Width: 640
Flags: W
LayerCount: 2
Fore
SplineSet
674 699 m 1,0,-1
 720 699 l 1,1,-1
 314 0 l 1,2,-1
 269 0 l 1,3,-1
 96 699 l 1,4,-1
 142 699 l 1,5,-1
 300 49 l 1,6,-1
 674 699 l 1,0,-1
EndSplineSet
EndChar

StartChar: W
Encoding: 87 87 59
Width: 998
Flags: W
LayerCount: 2
Fore
SplineSet
1035 699 m 1,0,-1
 1080 699 l 1,1,-1
 728 0 l 1,2,-1
 685 0 l 1,3,-1
 579 642 l 1,4,-1
 260 0 l 1,5,-1
 216 0 l 1,6,-1
 96 699 l 1,7,-1
 142 699 l 1,8,-1
 246 47 l 1,9,-1
 567 699 l 1,10,-1
 610 699 l 1,11,-1
 715 48 l 1,12,-1
 1035 699 l 1,0,-1
EndSplineSet
EndChar

StartChar: X
Encoding: 88 88 60
Width: 644
Flags: W
LayerCount: 2
Fore
SplineSet
650 699 m 1,0,-1
 353 363 l 1,1,-1
 554 0 l 1,2,-1
 503 0 l 1,3,-1
 321 326 l 1,4,-1
 32 0 l 1,5,-1
 -18 0 l 1,6,-1
 302 361 l 1,7,-1
 117 699 l 1,8,-1
 166 699 l 1,9,-1
 332 398 l 1,10,-1
 601 699 l 1,11,-1
 650 699 l 1,0,-1
EndSplineSet
EndChar

StartChar: Y
Encoding: 89 89 61
Width: 613
Flags: W
LayerCount: 2
Fore
SplineSet
693 699 m 1,0,-1
 345 259 l 1,1,-1
 301 0 l 1,2,-1
 260 0 l 1,3,-1
 303 259 l 1,4,-1
 96 699 l 1,5,-1
 141 699 l 1,6,-1
 330 304 l 1,7,-1
 647 699 l 1,8,-1
 693 699 l 1,0,-1
EndSplineSet
EndChar

StartChar: Z
Encoding: 90 90 62
Width: 664
Flags: W
LayerCount: 2
Fore
SplineSet
675 699 m 1,0,-1
 669 660 l 1,1,-1
 67 42 l 1,2,-1
 570 42 l 1,3,-1
 563 0 l 1,4,-1
 7 0 l 1,5,-1
 13 40 l 1,6,-1
 616 658 l 1,7,-1
 130 658 l 1,8,-1
 136 699 l 1,9,-1
 675 699 l 1,0,-1
EndSplineSet
EndChar

StartChar: bracketleft
Encoding: 91 91 63
Width: 294
Flags: W
LayerCount: 2
Fore
SplineSet
365 742 m 1,0,-1
 357 704 l 1,1,-1
 230 704 l 1,2,-1
 70 -86 l 1,3,-1
 198 -86 l 1,4,-1
 191 -124 l 1,5,-1
 24 -124 l 1,6,-1
 198 742 l 1,7,-1
 365 742 l 1,0,-1
EndSplineSet
Substitution2: "'rtla' Right to Left Alternates lookup 0 subtable" bracketright
EndChar

StartChar: backslash
Encoding: 92 92 64
Width: 656
Flags: W
LayerCount: 2
Fore
SplineSet
87 824 m 1,0,-1
 125 824 l 1,1,-1
 523 -127 l 1,2,-1
 485 -127 l 1,3,-1
 87 824 l 1,0,-1
EndSplineSet
EndChar

StartChar: bracketright
Encoding: 93 93 65
Width: 311
Flags: W
LayerCount: 2
Fore
SplineSet
-26 -124 m 1,0,-1
 -18 -86 l 1,1,-1
 109 -86 l 1,2,-1
 269 704 l 1,3,-1
 141 704 l 1,4,-1
 148 742 l 1,5,-1
 315 742 l 1,6,-1
 141 -124 l 1,7,-1
 -26 -124 l 1,0,-1
EndSplineSet
Substitution2: "'rtla' Right to Left Alternates lookup 0 subtable" bracketleft
EndChar

StartChar: asciicircum
Encoding: 94 94 66
Width: 491
Flags: W
LayerCount: 2
Fore
SplineSet
426 129 m 1,0,-1
 391 129 l 1,1,-1
 295 495 l 1,2,-1
 49 129 l 1,3,-1
 13 129 l 1,4,-1
 279 527 l 1,5,-1
 320 527 l 1,6,-1
 426 129 l 1,0,-1
EndSplineSet
EndChar

StartChar: underscore
Encoding: 95 95 67
Width: 544
Flags: W
LayerCount: 2
Fore
SplineSet
457 -172 m 1,0,-1
 451 -204 l 1,1,-1
 -92 -204 l 1,2,-1
 -86 -172 l 1,3,-1
 457 -172 l 1,0,-1
EndSplineSet
EndChar

StartChar: a
Encoding: 97 97 69
Width: 673
Flags: W
LayerCount: 2
Fore
SplineSet
157 26 m 128,-1,1
 105 55 105 55 76 107.5 c 128,-1,2
 47 160 47 160 47 227 c 0,3,4
 47 309 47 309 84.5 377 c 128,-1,5
 122 445 122 445 187 484.5 c 128,-1,6
 252 524 252 524 329 524 c 0,7,8
 413 524 413 524 471.5 479.5 c 128,-1,9
 530 435 530 435 547 360 c 1,10,-1
 579 521 l 1,11,-1
 620 521 l 1,12,-1
 516 0 l 1,13,-1
 475 0 l 1,14,-1
 499 115 l 1,15,16
 461 59 461 59 402.5 28 c 128,-1,17
 344 -3 344 -3 276 -3 c 0,18,0
 209 -3 209 -3 157 26 c 128,-1,1
407.5 70 m 128,-1,20
 463 104 463 104 495.5 162 c 128,-1,21
 528 220 528 220 528 289 c 0,22,23
 528 346 528 346 503 390.5 c 128,-1,24
 478 435 478 435 433 459.5 c 128,-1,25
 388 484 388 484 330 484 c 0,26,27
 265 484 265 484 209.5 450 c 128,-1,28
 154 416 154 416 121.5 357.5 c 128,-1,29
 89 299 89 299 89 230 c 0,30,31
 89 173 89 173 114 129 c 128,-1,32
 139 85 139 85 183.5 60.5 c 128,-1,33
 228 36 228 36 286 36 c 0,34,19
 352 36 352 36 407.5 70 c 128,-1,20
EndSplineSet
Substitution2: "<3,3> Small Caps in Latin lookup 11 subtable" a.sc
Substitution2: "<11,2> Diagonal Fractions lookup 7 nested-substitutions 0 subtable" ordfeminine
Substitution2: "<11,2> Diagonal Fractions lookup 5 nested-substitutions 0 subtable" ordfeminine
EndChar

StartChar: b
Encoding: 98 98 70
Width: 678
Flags: W
LayerCount: 2
Fore
SplineSet
521 494 m 128,-1,1
 573 465 573 465 602 413 c 128,-1,2
 631 361 631 361 631 294 c 0,3,4
 631 212 631 212 593.5 144 c 128,-1,5
 556 76 556 76 491 36.5 c 128,-1,6
 426 -3 426 -3 349 -3 c 0,7,8
 264 -3 264 -3 206 41 c 128,-1,9
 148 85 148 85 131 160 c 1,10,-1
 99 0 l 1,11,-1
 58 0 l 1,12,-1
 206 742 l 1,13,-1
 247 742 l 1,14,-1
 179 406 l 1,15,16
 217 462 217 462 275.5 492.5 c 128,-1,17
 334 523 334 523 402 523 c 0,18,0
 469 523 469 523 521 494 c 128,-1,1
270.5 451 m 128,-1,20
 215 417 215 417 182.5 358.5 c 128,-1,21
 150 300 150 300 150 231 c 0,22,23
 150 174 150 174 175 130 c 128,-1,24
 200 86 200 86 245 61.5 c 128,-1,25
 290 37 290 37 348 37 c 0,26,27
 413 37 413 37 468.5 71 c 128,-1,28
 524 105 524 105 556.5 163 c 128,-1,29
 589 221 589 221 589 290 c 0,30,31
 589 347 589 347 564 391.5 c 128,-1,32
 539 436 539 436 494.5 460.5 c 128,-1,33
 450 485 450 485 392 485 c 0,34,19
 326 485 326 485 270.5 451 c 128,-1,20
EndSplineSet
Substitution2: "<3,3> Small Caps in Latin lookup 11 subtable" b.sc
EndChar

StartChar: c
Encoding: 99 99 71
Width: 579
Flags: W
LayerCount: 2
Fore
SplineSet
159.5 29 m 128,-1,1
 107 59 107 59 78 112.5 c 128,-1,2
 49 166 49 166 49 235 c 0,3,4
 49 316 49 316 86.5 382 c 128,-1,5
 124 448 124 448 188.5 485 c 128,-1,6
 253 522 253 522 331 522 c 0,7,8
 386 522 386 522 432 503 c 128,-1,9
 478 484 478 484 510 449 c 1,10,-1
 483 419 l 1,11,12
 423 482 423 482 329 482 c 0,13,14
 263 482 263 482 208 450.5 c 128,-1,15
 153 419 153 419 121.5 363.5 c 128,-1,16
 90 308 90 308 90 238 c 0,17,18
 90 180 90 180 114.5 134.5 c 128,-1,19
 139 89 139 89 183 63.5 c 128,-1,20
 227 38 227 38 284 38 c 0,21,22
 337 38 337 38 382.5 57 c 128,-1,23
 428 76 428 76 461 111 c 1,24,-1
 484 84 l 1,25,26
 445 43 445 43 392.5 21 c 128,-1,27
 340 -1 340 -1 280 -1 c 0,28,0
 212 -1 212 -1 159.5 29 c 128,-1,1
EndSplineSet
Substitution2: "<3,3> Small Caps in Latin lookup 11 subtable" c.sc
EndChar

StartChar: d
Encoding: 100 100 72
Width: 678
Flags: W
LayerCount: 2
Fore
SplineSet
157 26 m 128,-1,1
 105 55 105 55 76 107.5 c 128,-1,2
 47 160 47 160 47 227 c 0,3,4
 47 309 47 309 84.5 377 c 128,-1,5
 122 445 122 445 187 484.5 c 128,-1,6
 252 524 252 524 329 524 c 0,7,8
 413 524 413 524 471.5 479.5 c 128,-1,9
 530 435 530 435 547 360 c 1,10,-1
 623 742 l 1,11,-1
 664 742 l 1,12,-1
 516 0 l 1,13,-1
 475 0 l 1,14,-1
 499 115 l 1,15,16
 461 59 461 59 402.5 28 c 128,-1,17
 344 -3 344 -3 276 -3 c 0,18,0
 209 -3 209 -3 157 26 c 128,-1,1
407.5 70 m 128,-1,20
 463 104 463 104 495.5 162 c 128,-1,21
 528 220 528 220 528 289 c 0,22,23
 528 346 528 346 503 390.5 c 128,-1,24
 478 435 478 435 433 459.5 c 128,-1,25
 388 484 388 484 330 484 c 0,26,27
 265 484 265 484 209.5 450 c 128,-1,28
 154 416 154 416 121.5 357.5 c 128,-1,29
 89 299 89 299 89 230 c 0,30,31
 89 173 89 173 114 129 c 128,-1,32
 139 85 139 85 183.5 60.5 c 128,-1,33
 228 36 228 36 286 36 c 0,34,19
 352 36 352 36 407.5 70 c 128,-1,20
EndSplineSet
Substitution2: "<3,3> Small Caps in Latin lookup 11 subtable" d.sc
EndChar

StartChar: e
Encoding: 101 101 73
Width: 595
Flags: W
LayerCount: 2
Fore
SplineSet
90 249 m 1,0,-1
 90 236 l 2,1,2
 90 147 90 147 144 92 c 128,-1,3
 198 37 198 37 286 37 c 0,4,5
 339 37 339 37 385 54.5 c 128,-1,6
 431 72 431 72 465 105 c 1,7,-1
 487 76 l 1,8,9
 448 39 448 39 395 18.5 c 128,-1,10
 342 -2 342 -2 283 -2 c 0,11,12
 214 -2 214 -2 161 28 c 128,-1,13
 108 58 108 58 78.5 112 c 128,-1,14
 49 166 49 166 49 235 c 0,15,16
 49 316 49 316 86.5 381.5 c 128,-1,17
 124 447 124 447 188.5 484.5 c 128,-1,18
 253 522 253 522 331 522 c 0,19,20
 398 522 398 522 448 493.5 c 128,-1,21
 498 465 498 465 524.5 413.5 c 128,-1,22
 551 362 551 362 551 294 c 0,23,24
 551 272 551 272 548 249 c 1,25,-1
 90 249 l 1,0,-1
175.5 428.5 m 128,-1,27
 111 374 111 374 94 286 c 1,28,-1
 514 286 l 1,29,30
 516 376 516 376 467 429.5 c 128,-1,31
 418 483 418 483 330 483 c 0,32,26
 240 483 240 483 175.5 428.5 c 128,-1,27
EndSplineSet
Substitution2: "<3,3> Small Caps in Latin lookup 11 subtable" e.sc
EndChar

StartChar: f
Encoding: 102 102 74
Width: 306
Flags: W
LayerCount: 2
Fore
SplineSet
273 675.5 m 128,-1,1
 232 640 232 640 221 585 c 2,2,-1
 206 508 l 1,3,-1
 367 508 l 1,4,-1
 360 472 l 1,5,-1
 198 472 l 1,6,-1
 104 0 l 1,7,-1
 63 0 l 1,8,-1
 157 472 l 1,9,-1
 92 472 l 1,10,-1
 98 508 l 1,11,-1
 165 508 l 1,12,-1
 180 585 l 2,13,14
 190 634 190 634 217 671.5 c 128,-1,15
 244 709 244 709 282 730 c 128,-1,16
 320 751 320 751 360 751 c 0,17,18
 410 751 410 751 447 726 c 1,19,-1
 430 691 l 1,20,21
 398 711 398 711 364 711 c 0,22,0
 314 711 314 711 273 675.5 c 128,-1,1
EndSplineSet
Substitution2: "<3,3> Small Caps in Latin lookup 11 subtable" f.sc
EndChar

StartChar: g
Encoding: 103 103 75
Width: 632
Flags: W
LayerCount: 2
Fore
SplineSet
104 -173 m 128,-1,1
 52 -152 52 -152 6 -108 c 1,2,-1
 29 -79 l 1,3,4
 104 -155 104 -155 222 -155 c 0,5,6
 314 -155 314 -155 374.5 -108 c 128,-1,7
 435 -61 435 -61 453 24 c 2,8,-1
 477 138 l 1,9,10
 440 85 440 85 385.5 56.5 c 128,-1,11
 331 28 331 28 267 28 c 0,12,13
 204 28 204 28 155 55.5 c 128,-1,14
 106 83 106 83 78.5 132 c 128,-1,15
 51 181 51 181 51 244 c 0,16,17
 51 321 51 321 86.5 385 c 128,-1,18
 122 449 122 449 183 486.5 c 128,-1,19
 244 524 244 524 317 524 c 0,20,21
 396 524 396 524 451.5 483 c 128,-1,22
 507 442 507 442 522 372 c 1,23,-1
 553 521 l 1,24,-1
 594 521 l 1,25,-1
 494 20 l 2,26,27
 474 -82 474 -82 403 -138 c 128,-1,28
 332 -194 332 -194 223 -194 c 0,29,0
 156 -194 156 -194 104 -173 c 128,-1,1
392 98.5 m 128,-1,31
 444 130 444 130 474 184 c 128,-1,32
 504 238 504 238 504 302 c 0,33,34
 504 384 504 384 453 434 c 128,-1,35
 402 484 402 484 319 484 c 0,36,37
 257 484 257 484 205.5 452.5 c 128,-1,38
 154 421 154 421 123.5 366.5 c 128,-1,39
 93 312 93 312 93 248 c 0,40,41
 93 167 93 167 144 117 c 128,-1,42
 195 67 195 67 278 67 c 0,43,30
 340 67 340 67 392 98.5 c 128,-1,31
EndSplineSet
Substitution2: "<3,3> Small Caps in Latin lookup 11 subtable" g.sc
EndChar

StartChar: h
Encoding: 104 104 76
Width: 656
Flags: W
LayerCount: 2
Fore
SplineSet
537.5 482 m 128,-1,1
 584 441 584 441 584 367 c 0,2,3
 584 342 584 342 578 313 c 2,4,-1
 516 0 l 1,5,-1
 475 0 l 1,6,-1
 536 309 l 2,7,8
 541 336 541 336 541 355 c 0,9,10
 541 415 541 415 503.5 448.5 c 128,-1,11
 466 482 466 482 398 482 c 0,12,13
 306 480 306 480 239.5 424.5 c 128,-1,14
 173 369 173 369 154 272 c 2,15,-1
 101 0 l 1,16,-1
 60 0 l 1,17,-1
 206 742 l 1,18,-1
 247 742 l 1,19,-1
 178 391 l 1,20,21
 215 454 215 454 274 487.5 c 128,-1,22
 333 521 333 521 407 523 c 0,23,0
 491 523 491 523 537.5 482 c 128,-1,1
EndSplineSet
Substitution2: "<3,3> Small Caps in Latin lookup 11 subtable" h.sc
EndChar

StartChar: k
Encoding: 107 107 79
Width: 555
Flags: W
LayerCount: 2
Fore
SplineSet
566 521 m 1,0,-1
 326 317 l 1,1,-1
 487 0 l 1,2,-1
 437 0 l 1,3,-1
 292 288 l 1,4,-1
 129 149 l 1,5,-1
 99 0 l 1,6,-1
 58 0 l 1,7,-1
 206 742 l 1,8,-1
 247 742 l 1,9,-1
 141 213 l 1,10,-1
 511 521 l 1,11,-1
 566 521 l 1,0,-1
EndSplineSet
Substitution2: "<3,3> Small Caps in Latin lookup 11 subtable" k.sc
EndChar

StartChar: l
Encoding: 108 108 80
Width: 261
Flags: W
LayerCount: 2
Fore
SplineSet
247 742 m 1,0,-1
 99 0 l 1,1,-1
 58 0 l 1,2,-1
 206 742 l 1,3,-1
 247 742 l 1,0,-1
EndSplineSet
Substitution2: "<3,3> Small Caps in Latin lookup 11 subtable" l.sc
EndChar

StartChar: m
Encoding: 109 109 81
Width: 1065
Flags: W
LayerCount: 2
Fore
SplineSet
946.5 482 m 128,-1,1
 993 441 993 441 993 367 c 0,2,3
 993 342 993 342 987 313 c 2,4,-1
 925 0 l 1,5,-1
 884 0 l 1,6,-1
 945 309 l 2,7,8
 950 336 950 336 950 355 c 0,9,10
 950 415 950 415 913 448.5 c 128,-1,11
 876 482 876 482 807 482 c 0,12,13
 719 481 719 481 655.5 430.5 c 128,-1,14
 592 380 592 380 568 293 c 1,15,-1
 510 0 l 1,16,-1
 469 0 l 1,17,-1
 530 309 l 2,18,19
 535 336 535 336 535 355 c 0,20,21
 535 415 535 415 498 448.5 c 128,-1,22
 461 482 461 482 392 482 c 0,23,24
 298 481 298 481 233 424 c 128,-1,25
 168 367 168 367 148 272 c 2,26,-1
 95 0 l 1,27,-1
 54 0 l 1,28,-1
 157 521 l 1,29,-1
 198 521 l 1,30,-1
 172 391 l 1,31,32
 209 454 209 454 268 487.5 c 128,-1,33
 327 521 327 521 401 523 c 0,34,35
 483 523 483 523 529 484 c 128,-1,36
 575 445 575 445 578 375 c 1,37,38
 616 446 616 446 676.5 483.5 c 128,-1,39
 737 521 737 521 816 523 c 0,40,0
 900 523 900 523 946.5 482 c 128,-1,1
EndSplineSet
Substitution2: "<3,3> Small Caps in Latin lookup 11 subtable" m.sc
EndChar

StartChar: n
Encoding: 110 110 82
Width: 650
Flags: W
LayerCount: 2
Fore
SplineSet
531.5 482 m 128,-1,1
 578 441 578 441 578 367 c 0,2,3
 578 342 578 342 572 313 c 2,4,-1
 510 0 l 1,5,-1
 469 0 l 1,6,-1
 530 309 l 2,7,8
 535 336 535 336 535 355 c 0,9,10
 535 415 535 415 497.5 448.5 c 128,-1,11
 460 482 460 482 392 482 c 0,12,13
 300 480 300 480 233.5 424.5 c 128,-1,14
 167 369 167 369 148 272 c 2,15,-1
 95 0 l 1,16,-1
 54 0 l 1,17,-1
 157 521 l 1,18,-1
 198 521 l 1,19,-1
 172 391 l 1,20,21
 209 454 209 454 268 487.5 c 128,-1,22
 327 521 327 521 401 523 c 0,23,0
 485 523 485 523 531.5 482 c 128,-1,1
EndSplineSet
Substitution2: "<3,3> Small Caps in Latin lookup 11 subtable" n.sc
EndChar

StartChar: o
Encoding: 111 111 83
Width: 615
Flags: W
LayerCount: 2
Fore
SplineSet
454.5 492 m 128,-1,1
 507 462 507 462 536.5 408 c 128,-1,2
 566 354 566 354 566 286 c 0,3,4
 566 204 566 204 528.5 138.5 c 128,-1,5
 491 73 491 73 426 36 c 128,-1,6
 361 -1 361 -1 282 -1 c 0,7,8
 214 -1 214 -1 161 29 c 128,-1,9
 108 59 108 59 78.5 113 c 128,-1,10
 49 167 49 167 49 236 c 0,11,12
 49 317 49 317 87 382.5 c 128,-1,13
 125 448 125 448 190 485 c 128,-1,14
 255 522 255 522 333 522 c 0,15,0
 402 522 402 522 454.5 492 c 128,-1,1
208.5 451 m 128,-1,17
 154 420 154 420 122.5 364 c 128,-1,18
 91 308 91 308 91 238 c 0,19,20
 91 179 91 179 115.5 133.5 c 128,-1,21
 140 88 140 88 184 63 c 128,-1,22
 228 38 228 38 285 38 c 0,23,24
 352 38 352 38 407 69.5 c 128,-1,25
 462 101 462 101 493.5 156.5 c 128,-1,26
 525 212 525 212 525 283 c 0,27,28
 525 341 525 341 500.5 386 c 128,-1,29
 476 431 476 431 432 456.5 c 128,-1,30
 388 482 388 482 330 482 c 0,31,16
 263 482 263 482 208.5 451 c 128,-1,17
EndSplineSet
Substitution2: "<3,3> Small Caps in Latin lookup 11 subtable" o.sc
Substitution2: "<11,2> Diagonal Fractions lookup 7 nested-substitutions 0 subtable" ordmasculine
Substitution2: "<11,2> Diagonal Fractions lookup 5 nested-substitutions 0 subtable" ordmasculine
EndChar

StartChar: p
Encoding: 112 112 84
Width: 678
Flags: W
LayerCount: 2
Fore
SplineSet
521 495 m 128,-1,1
 573 466 573 466 602 413.5 c 128,-1,2
 631 361 631 361 631 294 c 0,3,4
 631 212 631 212 593.5 144 c 128,-1,5
 556 76 556 76 491 36.5 c 128,-1,6
 426 -3 426 -3 349 -3 c 0,7,8
 264 -3 264 -3 206 41 c 128,-1,9
 148 85 148 85 131 160 c 1,10,-1
 60 -194 l 1,11,-1
 19 -194 l 1,12,-1
 162 521 l 1,13,-1
 203 521 l 1,14,-1
 179 406 l 1,15,16
 217 462 217 462 275.5 493 c 128,-1,17
 334 524 334 524 402 524 c 0,18,0
 469 524 469 524 521 495 c 128,-1,1
270.5 451 m 128,-1,20
 215 417 215 417 182.5 359 c 128,-1,21
 150 301 150 301 150 232 c 0,22,23
 150 175 150 175 175 130.5 c 128,-1,24
 200 86 200 86 245 61.5 c 128,-1,25
 290 37 290 37 348 37 c 0,26,27
 413 37 413 37 468.5 71 c 128,-1,28
 524 105 524 105 556.5 163.5 c 128,-1,29
 589 222 589 222 589 291 c 0,30,31
 589 348 589 348 564 392 c 128,-1,32
 539 436 539 436 494.5 460.5 c 128,-1,33
 450 485 450 485 392 485 c 0,34,19
 326 485 326 485 270.5 451 c 128,-1,20
EndSplineSet
Substitution2: "<3,3> Small Caps in Latin lookup 11 subtable" p.sc
EndChar

StartChar: q
Encoding: 113 113 85
Width: 677
Flags: W
LayerCount: 2
Fore
SplineSet
157 26 m 128,-1,1
 105 55 105 55 76 107.5 c 128,-1,2
 47 160 47 160 47 227 c 0,3,4
 47 309 47 309 84.5 377 c 128,-1,5
 122 445 122 445 187 484.5 c 128,-1,6
 252 524 252 524 329 524 c 0,7,8
 413 524 413 524 471.5 479.5 c 128,-1,9
 530 435 530 435 547 360 c 1,10,-1
 579 521 l 1,11,-1
 620 521 l 1,12,-1
 477 -194 l 1,13,-1
 436 -194 l 1,14,-1
 499 115 l 1,15,16
 461 59 461 59 402.5 28 c 128,-1,17
 344 -3 344 -3 276 -3 c 0,18,0
 209 -3 209 -3 157 26 c 128,-1,1
407.5 70 m 128,-1,20
 463 104 463 104 495.5 162 c 128,-1,21
 528 220 528 220 528 289 c 0,22,23
 528 346 528 346 503 390.5 c 128,-1,24
 478 435 478 435 433 459.5 c 128,-1,25
 388 484 388 484 330 484 c 0,26,27
 265 484 265 484 209.5 450 c 128,-1,28
 154 416 154 416 121.5 357.5 c 128,-1,29
 89 299 89 299 89 230 c 0,30,31
 89 173 89 173 114 129 c 128,-1,32
 139 85 139 85 183.5 60.5 c 128,-1,33
 228 36 228 36 286 36 c 0,34,19
 352 36 352 36 407.5 70 c 128,-1,20
EndSplineSet
Substitution2: "<3,3> Small Caps in Latin lookup 11 subtable" q.sc
EndChar

StartChar: r
Encoding: 114 114 86
Width: 352
Flags: W
LayerCount: 2
Fore
SplineSet
265 487 m 128,-1,1
 321 521 321 521 391 522 c 1,2,-1
 387 479 l 1,3,4
 302 479 302 479 239.5 426.5 c 128,-1,5
 177 374 177 374 150 282 c 1,6,-1
 94 0 l 1,7,-1
 53 0 l 1,8,-1
 157 521 l 1,9,-1
 198 521 l 1,10,-1
 172 391 l 1,11,0
 209 453 209 453 265 487 c 128,-1,1
EndSplineSet
Substitution2: "<3,3> Small Caps in Latin lookup 11 subtable" r.sc
EndChar

StartChar: s
Encoding: 115 115 87
Width: 455
Flags: W
LayerCount: 2
Fore
SplineSet
83 17 m 128,-1,1
 26 43 26 43 -7 87 c 1,2,-1
 17 117 l 1,3,4
 48 77 48 77 99 54 c 128,-1,5
 150 31 150 31 208 31 c 0,6,7
 270 31 270 31 309.5 60 c 128,-1,8
 349 89 349 89 349 138 c 0,9,10
 349 164 349 164 333 183 c 128,-1,11
 317 202 317 202 293 215 c 128,-1,12
 269 228 269 228 227 246 c 0,13,14
 179 267 179 267 151.5 282.5 c 128,-1,15
 124 298 124 298 104 323.5 c 128,-1,16
 84 349 84 349 84 385 c 0,17,18
 84 450 84 450 133 488.5 c 128,-1,19
 182 527 182 527 257 527 c 0,20,21
 310 527 310 527 354.5 511 c 128,-1,22
 399 495 399 495 432 468 c 1,23,-1
 409 436 l 1,24,25
 379 460 379 460 339 474 c 128,-1,26
 299 488 299 488 254 488 c 0,27,28
 197 488 197 488 161 461.5 c 128,-1,29
 125 435 125 435 125 389 c 0,30,31
 125 364 125 364 141 345.5 c 128,-1,32
 157 327 157 327 180.5 314.5 c 128,-1,33
 204 302 204 302 245 285 c 0,34,35
 292 266 292 266 321.5 249.5 c 128,-1,36
 351 233 351 233 371.5 207 c 128,-1,37
 392 181 392 181 392 144 c 0,38,39
 392 75 392 75 339.5 33.5 c 128,-1,40
 287 -8 287 -8 207 -9 c 0,41,0
 140 -9 140 -9 83 17 c 128,-1,1
EndSplineSet
Substitution2: "<3,3> Small Caps in Latin lookup 11 subtable" s.sc
EndChar

StartChar: t
Encoding: 116 116 88
Width: 373
Flags: W
LayerCount: 2
Fore
SplineSet
140 147 m 2,0,1
 135 120 135 120 135 105 c 0,2,3
 135 40 135 40 195 40 c 0,4,5
 245 40 245 40 294 71 c 1,6,-1
 305 36 l 1,7,8
 250 -1 250 -1 190 -1 c 0,9,10
 144 -1 144 -1 119 24.5 c 128,-1,11
 94 50 94 50 94 98 c 0,12,13
 94 118 94 118 99 146 c 2,14,-1
 164 472 l 1,15,-1
 89 472 l 1,16,-1
 96 508 l 1,17,-1
 171 508 l 1,18,-1
 197 637 l 1,19,-1
 238 637 l 1,20,-1
 212 508 l 1,21,-1
 389 508 l 1,22,-1
 382 472 l 1,23,-1
 205 472 l 1,24,-1
 140 147 l 2,0,1
EndSplineSet
Substitution2: "<3,3> Small Caps in Latin lookup 11 subtable" t.sc
EndChar

StartChar: u
Encoding: 117 117 89
Width: 650
Flags: W
LayerCount: 2
Fore
SplineSet
118.5 39 m 128,-1,1
 72 80 72 80 72 154 c 0,2,3
 72 180 72 180 78 208 c 2,4,-1
 140 521 l 1,5,-1
 181 521 l 1,6,-1
 120 212 l 2,7,8
 115 185 115 185 115 166 c 0,9,10
 115 106 115 106 152.5 72.5 c 128,-1,11
 190 39 190 39 258 39 c 0,12,13
 350 41 350 41 416.5 96.5 c 128,-1,14
 483 152 483 152 502 249 c 2,15,-1
 555 521 l 1,16,-1
 596 521 l 1,17,-1
 493 0 l 1,18,-1
 452 0 l 1,19,-1
 478 130 l 1,20,21
 441 67 441 67 382 33.5 c 128,-1,22
 323 0 323 0 249 -2 c 0,23,0
 165 -2 165 -2 118.5 39 c 128,-1,1
EndSplineSet
Substitution2: "<3,3> Small Caps in Latin lookup 11 subtable" u.sc
EndChar

StartChar: v
Encoding: 118 118 90
Width: 471
Flags: W
LayerCount: 2
Fore
SplineSet
525 521 m 1,0,-1
 211 0 l 1,1,-1
 167 0 l 1,2,-1
 60 521 l 1,3,-1
 104 521 l 1,4,-1
 197 45 l 1,5,-1
 480 521 l 1,6,-1
 525 521 l 1,0,-1
EndSplineSet
Substitution2: "<3,3> Small Caps in Latin lookup 11 subtable" v.sc
EndChar

StartChar: w
Encoding: 119 119 91
Width: 835
Flags: W
LayerCount: 2
Fore
SplineSet
888 521 m 1,0,-1
 588 0 l 1,1,-1
 544 0 l 1,2,-1
 466 466 l 1,3,-1
 197 0 l 1,4,-1
 153 0 l 1,5,-1
 60 521 l 1,6,-1
 105 521 l 1,7,-1
 184 45 l 1,8,-1
 451 521 l 1,9,-1
 496 521 l 1,10,-1
 575 45 l 1,11,-1
 844 521 l 1,12,-1
 888 521 l 1,0,-1
EndSplineSet
Substitution2: "<3,3> Small Caps in Latin lookup 11 subtable" w.sc
EndChar

StartChar: x
Encoding: 120 120 92
Width: 503
Flags: W
LayerCount: 2
Fore
SplineSet
141 521 m 1,0,-1
 257 300 l 1,1,-1
 464 521 l 1,2,-1
 511 521 l 1,3,-1
 279 269 l 1,4,-1
 420 0 l 1,5,-1
 372 0 l 1,6,-1
 247 237 l 1,7,-1
 23 0 l 1,8,-1
 -25 0 l 1,9,-1
 226 269 l 1,10,-1
 94 521 l 1,11,-1
 141 521 l 1,0,-1
EndSplineSet
Substitution2: "<3,3> Small Caps in Latin lookup 11 subtable" x.sc
EndChar

StartChar: y
Encoding: 121 121 93
Width: 473
Flags: W
LayerCount: 2
Fore
SplineSet
526 521 m 1,0,-1
 165 -77 l 2,1,2
 130 -135 130 -135 87.5 -165 c 128,-1,3
 45 -195 45 -195 1 -195 c 0,4,5
 -58 -195 -58 -195 -95 -164 c 1,6,-1
 -72 -130 l 1,7,8
 -45 -153 -45 -153 -1 -153 c 0,9,10
 36 -153 36 -153 70.5 -128 c 128,-1,11
 105 -103 105 -103 134 -58 c 2,12,-1
 171 0 l 1,13,-1
 59 521 l 1,14,-1
 103 521 l 1,15,-1
 199 47 l 1,16,-1
 481 521 l 1,17,-1
 526 521 l 1,0,-1
EndSplineSet
Substitution2: "<3,3> Small Caps in Latin lookup 11 subtable" y.sc
EndChar

StartChar: z
Encoding: 122 122 94
Width: 516
Flags: W
LayerCount: 2
Fore
SplineSet
512 520 m 1,0,-1
 505 482 l 1,1,-1
 60 38 l 1,2,-1
 423 37 l 1,3,-1
 416 -1 l 1,4,-1
 6 0 l 1,5,-1
 13 38 l 1,6,-1
 458 482 l 1,7,-1
 112 483 l 1,8,-1
 119 521 l 1,9,-1
 512 520 l 1,0,-1
EndSplineSet
Substitution2: "<3,3> Small Caps in Latin lookup 11 subtable" z.sc
EndChar

StartChar: braceleft
Encoding: 123 123 95
Width: 324
Flags: W
LayerCount: 2
Fore
SplineSet
186 335 m 128,-1,1
 171 314 171 314 145 307 c 1,2,3
 163 300 163 300 171 287.5 c 128,-1,4
 179 275 179 275 179 254 c 0,5,6
 179 237 179 237 175 220 c 2,7,-1
 128 -9 l 2,8,9
 126 -17 126 -17 126 -31 c 0,10,11
 126 -60 126 -60 148 -74 c 128,-1,12
 170 -88 170 -88 217 -88 c 1,13,-1
 210 -126 l 1,14,-1
 196 -126 l 2,15,16
 139 -126 139 -126 112 -107.5 c 128,-1,17
 85 -89 85 -89 85 -50 c 0,18,19
 85 -36 85 -36 88 -18 c 2,20,-1
 136 221 l 2,21,22
 139 236 139 236 139 248 c 0,23,24
 139 289 139 289 97 289 c 2,25,-1
 76 289 l 1,26,-1
 83 327 l 1,27,-1
 104 327 l 2,28,29
 131 327 131 327 147 343.5 c 128,-1,30
 163 360 163 360 170 395 c 2,31,-1
 218 634 l 2,32,33
 229 690 229 690 265.5 716 c 128,-1,34
 302 742 302 742 370 742 c 2,35,-1
 384 742 l 1,36,-1
 377 704 l 1,37,38
 322 704 322 704 292.5 685 c 128,-1,39
 263 666 263 666 255 625 c 2,40,-1
 209 396 l 2,41,0
 201 356 201 356 186 335 c 128,-1,1
EndSplineSet
Substitution2: "'rtla' Right to Left Alternates lookup 0 subtable" braceright
EndChar

StartChar: bar
Encoding: 124 124 96
Width: 232
Flags: W
LayerCount: 2
Fore
SplineSet
246 821 m 1,0,-1
 56 -126 l 1,1,-1
 21 -126 l 1,2,-1
 211 821 l 1,3,-1
 246 821 l 1,0,-1
EndSplineSet
EndChar

StartChar: braceright
Encoding: 125 125 97
Width: 353
Flags: W
LayerCount: 2
Fore
SplineSet
187 283 m 128,-1,1
 202 304 202 304 228 311 c 1,2,3
 210 318 210 318 202 330.5 c 128,-1,4
 194 343 194 343 194 364 c 0,5,6
 194 381 194 381 198 398 c 2,7,-1
 245 627 l 2,8,9
 247 635 247 635 247 649 c 0,10,11
 247 678 247 678 225 692 c 128,-1,12
 203 706 203 706 156 706 c 1,13,-1
 163 744 l 1,14,-1
 177 744 l 2,15,16
 234 744 234 744 261 725.5 c 128,-1,17
 288 707 288 707 288 668 c 0,18,19
 288 654 288 654 285 636 c 2,20,-1
 237 397 l 2,21,22
 234 382 234 382 234 370 c 0,23,24
 234 329 234 329 276 329 c 2,25,-1
 297 329 l 1,26,-1
 290 291 l 1,27,-1
 269 291 l 2,28,29
 242 291 242 291 226 274.5 c 128,-1,30
 210 258 210 258 203 223 c 2,31,-1
 155 -16 l 2,32,33
 144 -72 144 -72 107.5 -98 c 128,-1,34
 71 -124 71 -124 3 -124 c 2,35,-1
 -11 -124 l 1,36,-1
 -4 -86 l 1,37,38
 51 -86 51 -86 80.5 -67 c 128,-1,39
 110 -48 110 -48 118 -7 c 2,40,-1
 164 222 l 2,41,0
 172 262 172 262 187 283 c 128,-1,1
EndSplineSet
Substitution2: "'rtla' Right to Left Alternates lookup 0 subtable" braceleft
EndChar

StartChar: asciitilde
Encoding: 126 126 98
Width: 484
Flags: W
LayerCount: 2
Fore
SplineSet
213 360 m 128,-1,1
 232 351 232 351 258 334 c 0,2,3
 281 318 281 318 297 310.5 c 128,-1,4
 313 303 313 303 329 303 c 0,5,6
 352 303 352 303 369.5 318 c 128,-1,7
 387 333 387 333 392 360 c 1,8,-1
 425 360 l 1,9,10
 416 314 416 314 391.5 289.5 c 128,-1,11
 367 265 367 265 331 265 c 0,12,13
 307 265 307 265 288 274.5 c 128,-1,14
 269 284 269 284 242 302 c 0,15,16
 219 318 219 318 205 325 c 128,-1,17
 191 332 191 332 175 332 c 0,18,19
 152 332 152 332 136.5 317 c 128,-1,20
 121 302 121 302 115 274 c 1,21,-1
 82 274 l 1,22,23
 101 369 101 369 173 369 c 0,24,0
 194 369 194 369 213 360 c 128,-1,1
EndSplineSet
EndChar

StartChar: exclamdown
Encoding: 161 161 100
Width: 197
Flags: W
LayerCount: 2
Fore
SplineSet
123.5 465 m 128,-1,1
 115 474 115 474 115 488 c 0,2,3
 115 504 115 504 126 516 c 128,-1,4
 137 528 137 528 152 528 c 0,5,6
 166 528 166 528 175 518.5 c 128,-1,7
 184 509 184 509 184 494 c 0,8,9
 184 478 184 478 173 467 c 128,-1,10
 162 456 162 456 146 456 c 0,11,0
 132 456 132 456 123.5 465 c 128,-1,1
1 -164 m 1,12,-1
 33 0 l 1,13,-1
 102 323 l 1,14,-1
 134 323 l 1,15,-1
 73 0 l 1,16,-1
 41 -164 l 1,17,-1
 1 -164 l 1,12,-1
EndSplineSet
Substitution2: "<3,3> Small Caps in Latin lookup 11 subtable" exclamdown.sc
EndChar

StartChar: cent
Encoding: 162 162 101
Width: 579
Flags: W
LayerCount: 2
Fore
SplineSet
382.5 57 m 128,-1,1
 428 76 428 76 461 111 c 1,2,-1
 484 84 l 1,3,4
 445 43 445 43 392.5 21 c 128,-1,5
 340 -1 340 -1 280 -1 c 0,6,7
 267 -1 267 -1 261 0 c 1,8,-1
 233 -139 l 1,9,-1
 198 -139 l 1,10,-1
 227 4 l 1,11,12
 146 21 146 21 97.5 83 c 128,-1,13
 49 145 49 145 49 235 c 0,14,15
 49 316 49 316 86.5 381.5 c 128,-1,16
 124 447 124 447 188 484.5 c 128,-1,17
 252 522 252 522 329 522 c 1,18,-1
 356 661 l 1,19,-1
 391 661 l 1,20,-1
 364 520 l 1,21,22
 453 511 453 511 510 449 c 1,23,-1
 483 419 l 1,24,25
 423 482 423 482 329 482 c 0,26,27
 263 482 263 482 208 450.5 c 128,-1,28
 153 419 153 419 121.5 363.5 c 128,-1,29
 90 308 90 308 90 238 c 0,30,31
 90 180 90 180 114.5 134.5 c 128,-1,32
 139 89 139 89 183 63.5 c 128,-1,33
 227 38 227 38 284 38 c 0,34,0
 337 38 337 38 382.5 57 c 128,-1,1
EndSplineSet
EndChar

StartChar: sterling
Encoding: 163 163 102
Width: 535
Flags: W
LayerCount: 2
Fore
SplineSet
501.5 675.5 m 128,-1,1
 543 650 543 650 569 604 c 1,2,-1
 542 572 l 1,3,4
 520 615 520 615 485 637 c 128,-1,5
 450 659 450 659 406 659 c 0,6,7
 337 659 337 659 291 617 c 128,-1,8
 245 575 245 575 229 496 c 2,9,-1
 201 359 l 1,10,-1
 389 359 l 1,11,-1
 383 328 l 1,12,-1
 195 328 l 1,13,-1
 137 39 l 1,14,-1
 445 39 l 1,15,-1
 438 0 l 1,16,-1
 -4 0 l 1,17,-1
 4 39 l 1,18,-1
 95 39 l 1,19,-1
 154 328 l 1,20,-1
 62 328 l 1,21,-1
 68 359 l 1,22,-1
 160 359 l 1,23,-1
 188 498 l 2,24,25
 208 596 208 596 264.5 648.5 c 128,-1,26
 321 701 321 701 408 701 c 0,27,0
 460 701 460 701 501.5 675.5 c 128,-1,1
EndSplineSet
EndChar

StartChar: currency
Encoding: 164 164 103
Width: 838
Flags: W
LayerCount: 2
Fore
SplineSet
691 220.5 m 128,-1,1
 672 175 672 175 638 138 c 1,2,-1
 743 31 l 1,3,-1
 718 4 l 1,4,-1
 609 112 l 1,5,6
 572 82 572 82 526 65.5 c 128,-1,7
 480 49 480 49 430 49 c 256,8,9
 380 49 380 49 334.5 65.5 c 128,-1,10
 289 82 289 82 251 112 c 1,11,-1
 142 4 l 1,12,-1
 117 31 l 1,13,-1
 224 139 l 1,14,15
 190 175 190 175 171.5 221 c 128,-1,16
 153 267 153 267 153 317 c 0,17,18
 153 368 153 368 171.5 414 c 128,-1,19
 190 460 190 460 223 497 c 1,20,-1
 117 604 l 1,21,-1
 142 631 l 1,22,-1
 251 523 l 1,23,24
 288 553 288 553 334 570 c 128,-1,25
 380 587 380 587 430 587 c 256,26,27
 480 587 480 587 526 570.5 c 128,-1,28
 572 554 572 554 610 524 c 1,29,-1
 718 631 l 1,30,-1
 743 604 l 1,31,-1
 638 497 l 1,32,33
 672 461 672 461 691 414.5 c 128,-1,34
 710 368 710 368 710 317 c 256,35,0
 710 266 710 266 691 220.5 c 128,-1,1
221.5 202.5 m 128,-1,37
 254 150 254 150 309.5 119 c 128,-1,38
 365 88 365 88 430 88 c 0,39,40
 496 88 496 88 552 119 c 128,-1,41
 608 150 608 150 641 202.5 c 128,-1,42
 674 255 674 255 674 317 c 0,43,44
 674 380 674 380 641 433 c 128,-1,45
 608 486 608 486 552 517 c 128,-1,46
 496 548 496 548 430 548 c 0,47,48
 365 548 365 548 309.5 517 c 128,-1,49
 254 486 254 486 221.5 432.5 c 128,-1,50
 189 379 189 379 189 317 c 256,51,36
 189 255 189 255 221.5 202.5 c 128,-1,37
EndSplineSet
EndChar

StartChar: yen
Encoding: 165 165 104
Width: 611
Flags: W
LayerCount: 2
Fore
SplineSet
693 699 m 1,0,-1
 366 283 l 1,1,-1
 555 283 l 1,2,-1
 549 252 l 1,3,-1
 344 252 l 1,4,-1
 330 170 l 1,5,-1
 537 170 l 1,6,-1
 531 140 l 1,7,-1
 325 140 l 1,8,-1
 302 0 l 1,9,-1
 260 0 l 1,10,-1
 283 140 l 1,11,-1
 76 140 l 1,12,-1
 82 170 l 1,13,-1
 288 170 l 1,14,-1
 302 252 l 1,15,-1
 94 252 l 1,16,-1
 100 283 l 1,17,-1
 294 283 l 1,18,-1
 99 699 l 1,19,-1
 144 699 l 1,20,-1
 331 306 l 1,21,-1
 647 699 l 1,22,-1
 693 699 l 1,0,-1
EndSplineSet
EndChar

StartChar: brokenbar
Encoding: 166 166 105
Width: 232
Flags: W
LayerCount: 2
Fore
SplineSet
246 821 m 1,0,-1
 175 469 l 1,1,-1
 140 469 l 1,2,-1
 211 821 l 1,3,-1
 246 821 l 1,0,-1
127 226 m 1,4,-1
 56 -126 l 1,5,-1
 21 -126 l 1,6,-1
 92 226 l 1,7,-1
 127 226 l 1,4,-1
EndSplineSet
EndChar

StartChar: section
Encoding: 167 167 106
Width: 452
Flags: W
LayerCount: 2
Fore
SplineSet
68 -53.5 m 128,-1,1
 13 -29 13 -29 -21 15 c 1,2,-1
 3 41 l 1,3,4
 35 1 35 1 82 -21 c 128,-1,5
 129 -43 129 -43 184 -43 c 0,6,7
 248 -43 248 -43 289 -13.5 c 128,-1,8
 330 16 330 16 330 62 c 0,9,10
 330 97 330 97 300 119 c 128,-1,11
 270 141 270 141 209 168 c 0,12,13
 162 188 162 188 134 204 c 128,-1,14
 106 220 106 220 86.5 244.5 c 128,-1,15
 67 269 67 269 67 303 c 0,16,17
 67 364 67 364 113.5 399 c 128,-1,18
 160 434 160 434 243 434 c 1,19,20
 180 460 180 460 151.5 488.5 c 128,-1,21
 123 517 123 517 123 554 c 0,22,23
 123 614 123 614 169 650.5 c 128,-1,24
 215 687 215 687 291 687 c 0,25,26
 393 687 393 687 463 629 c 1,27,-1
 440 602 l 1,28,29
 412 626 412 626 372 639.5 c 128,-1,30
 332 653 332 653 289 653 c 0,31,32
 231 653 231 653 196 627 c 128,-1,33
 161 601 161 601 161 557 c 0,34,35
 161 531 161 531 177 512.5 c 128,-1,36
 193 494 193 494 217 481 c 128,-1,37
 241 468 241 468 283 450 c 0,38,39
 328 431 328 431 356.5 415 c 128,-1,40
 385 399 385 399 404.5 374.5 c 128,-1,41
 424 350 424 350 424 316 c 0,42,43
 424 278 424 278 404 246 c 128,-1,44
 384 214 384 214 349.5 194 c 128,-1,45
 315 174 315 174 274 173 c 1,46,47
 322 150 322 150 345 124 c 128,-1,48
 368 98 368 98 368 65 c 0,49,50
 368 24 368 24 345 -9 c 128,-1,51
 322 -42 322 -42 281 -60 c 128,-1,52
 240 -78 240 -78 188 -78 c 0,53,0
 123 -78 123 -78 68 -53.5 c 128,-1,1
348.5 233 m 128,-1,55
 385 263 385 263 385 309 c 0,56,57
 385 352 385 352 343.5 378 c 128,-1,58
 302 404 302 404 235 404 c 0,59,60
 176 404 176 404 141 379.5 c 128,-1,61
 106 355 106 355 106 315 c 0,62,63
 106 286 106 286 127 260 c 128,-1,64
 148 234 148 234 182.5 218.5 c 128,-1,65
 217 203 217 203 256 203 c 0,66,54
 312 203 312 203 348.5 233 c 128,-1,55
EndSplineSet
EndChar

StartChar: copyright
Encoding: 169 169 108
Width: 783
Flags: W
LayerCount: 2
Fore
SplineSet
580.5 643.5 m 128,-1,1
 658 598 658 598 703 520 c 128,-1,2
 748 442 748 442 748 350 c 0,3,4
 748 259 748 259 703 180.5 c 128,-1,5
 658 102 658 102 580 55.5 c 128,-1,6
 502 9 502 9 408 9 c 0,7,8
 315 9 315 9 237.5 55 c 128,-1,9
 160 101 160 101 115.5 179 c 128,-1,10
 71 257 71 257 71 348 c 256,11,12
 71 439 71 439 116 517.5 c 128,-1,13
 161 596 161 596 238.5 642.5 c 128,-1,14
 316 689 316 689 410 689 c 0,15,0
 503 689 503 689 580.5 643.5 c 128,-1,1
252.5 617 m 128,-1,17
 181 575 181 575 140 503.5 c 128,-1,18
 99 432 99 432 99 348 c 256,19,20
 99 264 99 264 140 193 c 128,-1,21
 181 122 181 122 251.5 80.5 c 128,-1,22
 322 39 322 39 408 39 c 256,23,24
 494 39 494 39 565.5 81 c 128,-1,25
 637 123 637 123 678.5 194.5 c 128,-1,26
 720 266 720 266 720 350 c 256,27,28
 720 434 720 434 679 505 c 128,-1,29
 638 576 638 576 567 617.5 c 128,-1,30
 496 659 496 659 410 659 c 256,31,16
 324 659 324 659 252.5 617 c 128,-1,17
483.5 515 m 128,-1,33
 517 502 517 502 543 478 c 1,34,-1
 525 457 l 1,35,36
 477 500 477 500 414 500 c 0,37,38
 371 500 371 500 335 479.5 c 128,-1,39
 299 459 299 459 278 424.5 c 128,-1,40
 257 390 257 390 257 349 c 256,41,42
 257 308 257 308 278 273 c 128,-1,43
 299 238 299 238 335 217.5 c 128,-1,44
 371 197 371 197 414 197 c 0,45,46
 444 197 444 197 473 208 c 128,-1,47
 502 219 502 219 525 239 c 1,48,-1
 543 220 l 1,49,50
 517 196 517 196 483 182 c 128,-1,51
 449 168 449 168 413 168 c 0,52,53
 363 168 363 168 320.5 192.5 c 128,-1,54
 278 217 278 217 253 258.5 c 128,-1,55
 228 300 228 300 228 349 c 256,56,57
 228 398 228 398 253 439 c 128,-1,58
 278 480 278 480 320.5 504 c 128,-1,59
 363 528 363 528 414 528 c 0,60,32
 450 528 450 528 483.5 515 c 128,-1,33
EndSplineSet
EndChar

StartChar: ordfeminine
Encoding: 170 170 109
Width: 376
Flags: W
LayerCount: 2
Fore
SplineSet
364.5 742.5 m 128,-1,1
 392 721 392 721 392 683 c 0,2,3
 392 673 392 673 389 659 c 2,4,-1
 351 458 l 1,5,-1
 317 458 l 1,6,-1
 329 518 l 1,7,8
 278 457 278 457 198 457 c 0,9,10
 155 457 155 457 129 478 c 128,-1,11
 103 499 103 499 103 533 c 0,12,13
 103 537 103 537 105 549 c 0,14,15
 113 587 113 587 144.5 607.5 c 128,-1,16
 176 628 176 628 231 628 c 2,17,-1
 350 628 l 1,18,-1
 356 657 l 2,19,20
 358 669 358 669 358 675 c 0,21,22
 358 734 358 734 279 734 c 0,23,24
 228 734 228 734 164 697 c 1,25,-1
 156 723 l 1,26,27
 228 764 228 764 288 764 c 0,28,0
 337 764 337 764 364.5 742.5 c 128,-1,1
346 606 m 1,29,-1
 233 606 l 2,30,31
 149 606 149 606 138 547 c 0,32,33
 137 542 137 542 137 534 c 0,34,35
 137 511 137 511 154.5 497.5 c 128,-1,36
 172 484 172 484 203 484 c 0,37,38
 291 484 291 484 336 556 c 1,39,-1
 346 606 l 1,29,-1
EndSplineSet
EndChar

StartChar: logicalnot
Encoding: 172 172 111
Width: 551
Flags: W
LayerCount: 2
Fore
SplineSet
472 371 m 1,0,-1
 466 336 l 1,1,-1
 465 336 l 1,2,-1
 430 156 l 1,3,-1
 395 156 l 1,4,-1
 431 336 l 1,5,-1
 54 336 l 1,6,-1
 61 371 l 1,7,-1
 472 371 l 1,0,-1
EndSplineSet
EndChar

StartChar: registered
Encoding: 174 174 113
Width: 783
Flags: W
LayerCount: 2
Fore
SplineSet
580.5 643.5 m 128,-1,1
 658 598 658 598 703 520 c 128,-1,2
 748 442 748 442 748 350 c 0,3,4
 748 259 748 259 703 180.5 c 128,-1,5
 658 102 658 102 580 55.5 c 128,-1,6
 502 9 502 9 408 9 c 0,7,8
 315 9 315 9 237.5 55 c 128,-1,9
 160 101 160 101 115.5 179 c 128,-1,10
 71 257 71 257 71 348 c 256,11,12
 71 439 71 439 116 517.5 c 128,-1,13
 161 596 161 596 238.5 642.5 c 128,-1,14
 316 689 316 689 410 689 c 0,15,0
 503 689 503 689 580.5 643.5 c 128,-1,1
565.5 81 m 128,-1,17
 637 123 637 123 678.5 194.5 c 128,-1,18
 720 266 720 266 720 350 c 256,19,20
 720 434 720 434 679 505 c 128,-1,21
 638 576 638 576 567 617.5 c 128,-1,22
 496 659 496 659 410 659 c 256,23,24
 324 659 324 659 252.5 617 c 128,-1,25
 181 575 181 575 140 503.5 c 128,-1,26
 99 432 99 432 99 348 c 256,27,28
 99 264 99 264 140 193 c 128,-1,29
 181 122 181 122 251.5 80.5 c 128,-1,30
 322 39 322 39 408 39 c 256,31,16
 494 39 494 39 565.5 81 c 128,-1,17
534.5 342 m 128,-1,33
 512 311 512 311 469 300 c 1,34,-1
 560 173 l 1,35,-1
 526 173 l 1,36,-1
 442 295 l 1,37,38
 424 293 424 293 414 293 c 2,39,-1
 310 293 l 1,40,-1
 310 173 l 1,41,-1
 282 173 l 1,42,-1
 282 539 l 1,43,-1
 414 539 l 2,44,45
 483 539 483 539 520 508 c 128,-1,46
 557 477 557 477 557 419 c 0,47,32
 557 373 557 373 534.5 342 c 128,-1,33
414 320 m 2,48,49
 469 320 469 320 499.5 346 c 128,-1,50
 530 372 530 372 530 419 c 0,51,52
 530 464 530 464 499.5 488 c 128,-1,53
 469 512 469 512 414 512 c 2,54,-1
 310 512 l 1,55,-1
 310 320 l 1,56,-1
 414 320 l 2,48,49
EndSplineSet
EndChar

StartChar: degree
Encoding: 176 176 115
Width: 315
Flags: W
LayerCount: 2
Fore
SplineSet
358 766 m 128,-1,1
 392 733 392 733 392 689 c 256,2,3
 392 645 392 645 358 612 c 128,-1,4
 324 579 324 579 278 579 c 256,5,6
 232 579 232 579 198.5 612 c 128,-1,7
 165 645 165 645 165 689 c 256,8,9
 165 733 165 733 198.5 766 c 128,-1,10
 232 799 232 799 278 799 c 256,11,0
 324 799 324 799 358 766 c 128,-1,1
217.5 747.5 m 128,-1,13
 192 723 192 723 192 689 c 256,14,15
 192 655 192 655 217.5 631 c 128,-1,16
 243 607 243 607 278 607 c 0,17,18
 314 607 314 607 339.5 631 c 128,-1,19
 365 655 365 655 365 689 c 256,20,21
 365 723 365 723 339.5 747.5 c 128,-1,22
 314 772 314 772 278 772 c 0,23,12
 243 772 243 772 217.5 747.5 c 128,-1,13
EndSplineSet
EndChar

StartChar: plusminus
Encoding: 177 177 116
Width: 546
Flags: W
LayerCount: 2
Fore
SplineSet
208 171 m 1,0,-1
 245 357 l 1,1,-1
 59 357 l 1,2,-1
 65 392 l 1,3,-1
 252 392 l 1,4,-1
 289 577 l 1,5,-1
 322 577 l 1,6,-1
 285 392 l 1,7,-1
 471 392 l 1,8,-1
 465 357 l 1,9,-1
 278 357 l 1,10,-1
 241 171 l 1,11,-1
 208 171 l 1,0,-1
59 47 m 1,12,-1
 65 82 l 1,13,-1
 471 82 l 1,14,-1
 465 47 l 1,15,-1
 59 47 l 1,12,-1
EndSplineSet
EndChar

StartChar: uni00B5
Encoding: 181 181 120
Width: 672
Flags: W
LayerCount: 2
Fore
SplineSet
618 521 m 1,0,-1
 515 0 l 1,1,-1
 474 0 l 1,2,-1
 500 130 l 1,3,4
 463 67 463 67 404 33.5 c 128,-1,5
 345 0 345 0 271 -2 c 0,6,7
 214 -2 214 -2 174 17 c 128,-1,8
 134 36 134 36 114 71 c 1,9,-1
 61 -194 l 1,10,-1
 20 -194 l 1,11,-1
 97 193 l 1,12,-1
 100 208 l 1,13,-1
 162 521 l 1,14,-1
 204 521 l 1,15,-1
 140 201 l 2,16,17
 137 183 137 183 137 167 c 0,18,19
 137 106 137 106 174.5 72.5 c 128,-1,20
 212 39 212 39 280 39 c 0,21,22
 372 41 372 41 438.5 96.5 c 128,-1,23
 505 152 505 152 524 249 c 2,24,-1
 577 521 l 1,25,-1
 618 521 l 1,0,-1
EndSplineSet
EndChar

StartChar: paragraph
Encoding: 182 182 121
Width: 570
Flags: W
LayerCount: 2
Fore
SplineSet
376 -111 m 1,0,-1
 341 -111 l 1,1,-1
 504 709 l 1,2,-1
 334 709 l 1,3,-1
 170 -111 l 1,4,-1
 135 -111 l 1,5,-1
 238 404 l 1,6,7
 212 402 212 402 201 402 c 0,8,9
 126 402 126 402 94.5 439 c 128,-1,10
 63 476 63 476 63 529 c 0,11,12
 63 544 63 544 67 568 c 0,13,14
 81 641 81 641 141 691.5 c 128,-1,15
 201 742 201 742 303 742 c 2,16,-1
 546 742 l 1,17,-1
 376 -111 l 1,0,-1
EndSplineSet
EndChar

StartChar: ordmasculine
Encoding: 186 186 125
Width: 401
Flags: W
LayerCount: 2
Fore
SplineSet
389 726 m 128,-1,1
 429 688 429 688 429 628 c 0,2,3
 429 579 429 579 406 540 c 128,-1,4
 383 501 383 501 343.5 479 c 128,-1,5
 304 457 304 457 256 457 c 0,6,7
 192 457 192 457 152 494.5 c 128,-1,8
 112 532 112 532 112 593 c 0,9,10
 112 642 112 642 134.5 681 c 128,-1,11
 157 720 157 720 197 742 c 128,-1,12
 237 764 237 764 285 764 c 0,13,0
 349 764 349 764 389 726 c 128,-1,1
184.5 694.5 m 128,-1,15
 145 656 145 656 145 595 c 0,16,17
 145 547 145 547 176 517 c 128,-1,18
 207 487 207 487 257 487 c 0,19,20
 316 487 316 487 355 526.5 c 128,-1,21
 394 566 394 566 394 628 c 0,22,23
 394 675 394 675 363 704 c 128,-1,24
 332 733 332 733 283 733 c 0,25,14
 224 733 224 733 184.5 694.5 c 128,-1,15
EndSplineSet
EndChar

StartChar: questiondown
Encoding: 191 191 130
Width: 408
Flags: W
LayerCount: 2
Fore
SplineSet
192.5 465 m 128,-1,1
 184 474 184 474 184 488 c 0,2,3
 184 504 184 504 195 516 c 128,-1,4
 206 528 206 528 221 528 c 0,5,6
 235 528 235 528 244 518.5 c 128,-1,7
 253 509 253 509 253 494 c 0,8,9
 253 478 253 478 242 467 c 128,-1,10
 231 456 231 456 215 456 c 0,11,0
 201 456 201 456 192.5 465 c 128,-1,1
284 -121.5 m 128,-1,13
 232 -163 232 -163 152 -163 c 0,14,15
 74 -163 74 -163 29.5 -124.5 c 128,-1,16
 -15 -86 -15 -86 -15 -18 c 0,17,18
 -15 19 -15 19 -1 50 c 128,-1,19
 13 81 13 81 32.5 104 c 128,-1,20
 52 127 52 127 86 161 c 0,21,22
 131 205 131 205 153.5 236.5 c 128,-1,23
 176 268 176 268 178 309 c 1,24,-1
 213 309 l 1,25,26
 210 260 210 260 186 224 c 128,-1,27
 162 188 162 188 116 142 c 0,28,29
 70 97 70 97 47.5 63.5 c 128,-1,30
 25 30 25 30 25 -15 c 0,31,32
 25 -67 25 -67 59.5 -95.5 c 128,-1,33
 94 -124 94 -124 156 -124 c 0,34,35
 221 -124 221 -124 261 -93 c 128,-1,36
 301 -62 301 -62 311 -4 c 1,37,-1
 347 -6 l 1,38,12
 336 -80 336 -80 284 -121.5 c 128,-1,13
EndSplineSet
Substitution2: "<3,3> Small Caps in Latin lookup 11 subtable" questiondown.sc
EndChar

StartChar: AE
Encoding: 198 198 137
Width: 1001
Flags: W
LayerCount: 2
Fore
SplineSet
1006 658 m 1,0,-1
 597 658 l 1,1,-1
 539 379 l 1,2,-1
 904 379 l 1,3,-1
 897 337 l 1,4,-1
 532 337 l 1,5,-1
 472 42 l 1,6,-1
 894 42 l 1,7,-1
 887 0 l 1,8,-1
 423 0 l 1,9,-1
 465 210 l 1,10,-1
 169 210 l 1,11,-1
 2 0 l 1,12,-1
 -44 0 l 1,13,-1
 513 699 l 1,14,-1
 1013 699 l 1,15,-1
 1006 658 l 1,0,-1
473 249 m 1,16,-1
 555 660 l 1,17,-1
 528 660 l 1,18,-1
 200 249 l 1,19,-1
 473 249 l 1,16,-1
EndSplineSet
EndChar

StartChar: Ccedilla
Encoding: 199 199 138
Width: 730
Flags: W
LayerCount: 2
Fore
SplineSet
593.5 679 m 128,-1,1
 655 654 655 654 699 609 c 1,2,-1
 671 577 l 1,3,4
 631 619 631 619 576.5 641.5 c 128,-1,5
 522 664 522 664 460 664 c 0,6,7
 367 664 367 664 286 617 c 128,-1,8
 205 570 205 570 156.5 491 c 128,-1,9
 108 412 108 412 108 320 c 0,10,11
 108 241 108 241 145.5 176.5 c 128,-1,12
 183 112 183 112 249 74.5 c 128,-1,13
 315 37 315 37 396 37 c 0,14,15
 458 37 458 37 517 59.5 c 128,-1,16
 576 82 576 82 625 123 c 1,17,-1
 649 94 l 1,18,19
 594 48 594 48 527.5 22 c 128,-1,20
 461 -4 461 -4 392 -4 c 2,21,-1
 382 -4 l 1,22,-1
 358 -53 l 1,23,24
 391 -55 391 -55 408 -73.5 c 128,-1,25
 425 -92 425 -92 425 -117 c 0,26,27
 425 -156 425 -156 393 -185 c 128,-1,28
 361 -214 361 -214 312 -214 c 0,29,30
 291 -214 291 -214 270.5 -208.5 c 128,-1,31
 250 -203 250 -203 237 -193 c 1,32,-1
 255 -159 l 1,33,34
 266 -167 266 -167 282 -172.5 c 128,-1,35
 298 -178 298 -178 314 -178 c 0,36,37
 347 -178 347 -178 367 -160 c 128,-1,38
 387 -142 387 -142 387 -119 c 0,39,40
 387 -102 387 -102 375 -90 c 128,-1,41
 363 -78 363 -78 341 -78 c 2,42,-1
 312 -78 l 1,43,-1
 348 -1 l 1,44,45
 267 9 267 9 202.5 53 c 128,-1,46
 138 97 138 97 102 166 c 128,-1,47
 66 235 66 235 66 316 c 0,48,49
 66 419 66 419 121 508.5 c 128,-1,50
 176 598 176 598 267 651 c 128,-1,51
 358 704 358 704 462 704 c 0,52,0
 532 704 532 704 593.5 679 c 128,-1,1
EndSplineSet
EndChar

StartChar: multiply
Encoding: 215 215 154
Width: 536
Flags: W
LayerCount: 2
Fore
SplineSet
435 452 m 1,0,-1
 304 321 l 1,1,-1
 435 190 l 1,2,-1
 412 165 l 1,3,-1
 281 297 l 1,4,-1
 149 165 l 1,5,-1
 126 190 l 1,6,-1
 257 321 l 1,7,-1
 126 452 l 1,8,-1
 149 477 l 1,9,-1
 281 345 l 1,10,-1
 412 477 l 1,11,-1
 435 452 l 1,0,-1
EndSplineSet
EndChar

StartChar: Oslash
Encoding: 216 216 155
Width: 821
Flags: W
LayerCount: 2
Fore
SplineSet
757.5 530.5 m 128,-1,1
 792 463 792 463 792 384 c 0,2,3
 792 281 792 281 737 191.5 c 128,-1,4
 682 102 682 102 590 49 c 128,-1,5
 498 -4 498 -4 394 -4 c 0,6,7
 298 -4 298 -4 222 41 c 1,8,-1
 151 -55 l 1,9,-1
 111 -55 l 1,10,-1
 194 59 l 1,11,12
 134 103 134 103 100 170.5 c 128,-1,13
 66 238 66 238 66 317 c 0,14,15
 66 420 66 420 121 509 c 128,-1,16
 176 598 176 598 267.5 651 c 128,-1,17
 359 704 359 704 463 704 c 0,18,19
 557 704 557 704 635 659 c 1,20,-1
 705 755 l 1,21,-1
 745 755 l 1,22,-1
 662 642 l 1,23,0
 723 598 723 598 757.5 530.5 c 128,-1,1
138 191.5 m 128,-1,25
 168 133 168 133 220 94 c 1,26,-1
 609 625 l 1,27,28
 541 663 541 663 461 663 c 0,29,30
 368 663 368 663 287 616 c 128,-1,31
 206 569 206 569 157 489.5 c 128,-1,32
 108 410 108 410 108 318 c 0,33,24
 108 250 108 250 138 191.5 c 128,-1,25
720 510 m 128,-1,35
 690 569 690 569 637 607 c 1,36,-1
 247 76 l 1,37,38
 314 37 314 37 397 37 c 0,39,40
 488 37 488 37 569.5 84.5 c 128,-1,41
 651 132 651 132 700.5 211.5 c 128,-1,42
 750 291 750 291 750 383 c 0,43,34
 750 451 750 451 720 510 c 128,-1,35
EndSplineSet
EndChar

StartChar: Thorn
Encoding: 222 222 161
Width: 679
Flags: W
LayerCount: 2
Fore
SplineSet
598.5 545 m 128,-1,1
 663 500 663 500 663 411 c 0,2,3
 663 279 663 279 575 208 c 128,-1,4
 487 137 487 137 315 137 c 2,5,-1
 137 137 l 1,6,-1
 110 0 l 1,7,-1
 68 0 l 1,8,-1
 208 699 l 1,9,-1
 250 699 l 1,10,-1
 228 590 l 1,11,-1
 405 590 l 2,12,0
 534 590 534 590 598.5 545 c 128,-1,1
545 234.5 m 128,-1,14
 620 293 620 293 620 403 c 0,15,16
 620 551 620 551 397 551 c 2,17,-1
 220 551 l 1,18,-1
 145 176 l 1,19,-1
 321 176 l 2,20,13
 470 176 470 176 545 234.5 c 128,-1,14
EndSplineSet
EndChar

StartChar: germandbls
Encoding: 223 223 162
Width: 645
Flags: W
LayerCount: 2
Fore
SplineSet
554.5 703.5 m 128,-1,1
 603 664 603 664 603 596 c 0,2,3
 603 581 603 581 600 564 c 0,4,5
 590 495 590 495 541.5 444.5 c 128,-1,6
 493 394 493 394 422 378 c 1,7,8
 491 368 491 368 529.5 329.5 c 128,-1,9
 568 291 568 291 568 233 c 0,10,11
 568 224 568 224 566 206 c 0,12,13
 557 145 557 145 518.5 98 c 128,-1,14
 480 51 480 51 419 25.5 c 128,-1,15
 358 0 358 0 282 0 c 2,16,-1
 227 0 l 1,17,-1
 234 37 l 1,18,-1
 290 37 l 2,19,20
 383 37 383 37 447.5 83.5 c 128,-1,21
 512 130 512 130 525 206 c 0,22,23
 527 224 527 224 527 231 c 0,24,25
 527 288 527 288 478 321.5 c 128,-1,26
 429 355 429 355 343 355 c 2,27,-1
 336 355 l 1,28,-1
 341 392 l 1,29,30
 427 392 427 392 487 438.5 c 128,-1,31
 547 485 547 485 560 562 c 0,32,33
 562 572 562 572 562 590 c 0,34,35
 562 643 562 643 525 674 c 128,-1,36
 488 705 488 705 422 705 c 0,37,38
 337 705 337 705 274 647.5 c 128,-1,39
 211 590 211 590 191 495 c 2,40,-1
 92 0 l 1,41,-1
 51 0 l 1,42,-1
 150 494 l 2,43,44
 173 609 173 609 247 676 c 128,-1,45
 321 743 321 743 424 743 c 0,46,0
 506 743 506 743 554.5 703.5 c 128,-1,1
EndSplineSet
Substitution2: "<3,3> Small Caps in Latin lookup 11 subtable" germandbls.sc
EndChar

StartChar: ae
Encoding: 230 230 169
Width: 969
Flags: W
LayerCount: 2
Fore
SplineSet
75.5 37 m 128,-1,1
 31 75 31 75 31 137 c 0,2,3
 31 207 31 207 86.5 247.5 c 128,-1,4
 142 288 142 288 239 288 c 2,5,-1
 426 288 l 1,6,-1
 429 343 l 2,7,8
 430 349 430 349 430 361 c 0,9,10
 430 421 430 421 393 452.5 c 128,-1,11
 356 484 356 484 286 484 c 0,12,13
 241 484 241 484 196 467.5 c 128,-1,14
 151 451 151 451 99 416 c 1,15,-1
 85 449 l 1,16,17
 193 522 193 522 292 522 c 0,18,19
 371 522 371 522 416.5 486 c 128,-1,20
 462 450 462 450 465 385 c 1,21,22
 500 449 500 449 562.5 485.5 c 128,-1,23
 625 522 625 522 700 522 c 0,24,25
 768 522 768 522 819 492.5 c 128,-1,26
 870 463 870 463 897.5 409.5 c 128,-1,27
 925 356 925 356 925 286 c 0,28,29
 925 266 925 266 924 255 c 1,30,-1
 465 255 l 1,31,-1
 462 230 l 2,32,33
 458 180 458 180 484 135.5 c 128,-1,34
 510 91 510 91 557 64 c 128,-1,35
 604 37 604 37 660 37 c 0,36,37
 769 37 769 37 843 109 c 1,38,-1
 866 82 l 1,39,40
 825 42 825 42 771 20.5 c 128,-1,41
 717 -1 717 -1 658 -1 c 0,42,43
 577 -1 577 -1 516.5 40.5 c 128,-1,44
 456 82 456 82 435 150 c 1,45,46
 356 -1 356 -1 193 -1 c 0,47,0
 120 -1 120 -1 75.5 37 c 128,-1,1
885 285 m 1,48,49
 887 376 887 376 836.5 431 c 128,-1,50
 786 486 786 486 700 486 c 0,51,52
 642 486 642 486 592.5 460.5 c 128,-1,53
 543 435 543 435 510 389.5 c 128,-1,54
 477 344 477 344 467 285 c 1,55,-1
 885 285 l 1,48,49
327 69 m 128,-1,57
 379 104 379 104 417 181 c 1,58,-1
 423 257 l 1,59,-1
 242 257 l 2,60,61
 161 257 161 257 116 226.5 c 128,-1,62
 71 196 71 196 71 139 c 0,63,64
 71 92 71 92 106 63 c 128,-1,65
 141 34 141 34 199 34 c 0,66,56
 275 34 275 34 327 69 c 128,-1,57
EndSplineSet
Substitution2: "<3,3> Small Caps in Latin lookup 11 subtable" ae.sc
EndChar

StartChar: ccedilla
Encoding: 231 231 170
Width: 579
Flags: W
LayerCount: 2
Fore
SplineSet
382.5 57 m 128,-1,1
 428 76 428 76 461 111 c 1,2,-1
 484 84 l 1,3,4
 445 43 445 43 392.5 21 c 128,-1,5
 340 -1 340 -1 280 -1 c 1,6,-1
 254 -53 l 1,7,8
 287 -55 287 -55 304 -73.5 c 128,-1,9
 321 -92 321 -92 321 -117 c 0,10,11
 321 -156 321 -156 289 -185 c 128,-1,12
 257 -214 257 -214 208 -214 c 0,13,14
 187 -214 187 -214 166.5 -208.5 c 128,-1,15
 146 -203 146 -203 133 -193 c 1,16,-1
 151 -159 l 1,17,18
 162 -167 162 -167 178 -172.5 c 128,-1,19
 194 -178 194 -178 210 -178 c 0,20,21
 243 -178 243 -178 263 -160 c 128,-1,22
 283 -142 283 -142 283 -119 c 0,23,24
 283 -102 283 -102 271 -90 c 128,-1,25
 259 -78 259 -78 237 -78 c 2,26,-1
 208 -78 l 1,27,-1
 246 1 l 1,28,29
 157 12 157 12 103 76 c 128,-1,30
 49 140 49 140 49 235 c 0,31,32
 49 316 49 316 86.5 382 c 128,-1,33
 124 448 124 448 188.5 485 c 128,-1,34
 253 522 253 522 331 522 c 0,35,36
 386 522 386 522 432 503 c 128,-1,37
 478 484 478 484 510 449 c 1,38,-1
 483 419 l 1,39,40
 423 482 423 482 329 482 c 0,41,42
 263 482 263 482 208 450.5 c 128,-1,43
 153 419 153 419 121.5 363.5 c 128,-1,44
 90 308 90 308 90 238 c 0,45,46
 90 180 90 180 114.5 134.5 c 128,-1,47
 139 89 139 89 183 63.5 c 128,-1,48
 227 38 227 38 284 38 c 0,49,0
 337 38 337 38 382.5 57 c 128,-1,1
EndSplineSet
Substitution2: "<3,3> Small Caps in Latin lookup 11 subtable" ccedilla.sc
EndChar

StartChar: eth
Encoding: 240 240 179
Width: 576
Flags: W
LayerCount: 2
Fore
SplineSet
395 611 m 1,0,1
 458 537 458 537 492 452 c 128,-1,2
 526 367 526 367 526 282 c 0,3,4
 526 195 526 195 494.5 131.5 c 128,-1,5
 463 68 463 68 403.5 34 c 128,-1,6
 344 0 344 0 264 0 c 0,7,8
 165 0 165 0 106.5 53 c 128,-1,9
 48 106 48 106 48 195 c 0,10,11
 48 266 48 266 79 321.5 c 128,-1,12
 110 377 110 377 165.5 408 c 128,-1,13
 221 439 221 439 293 439 c 256,14,15
 365 439 365 439 418.5 406.5 c 128,-1,16
 472 374 472 374 491 320 c 1,17,18
 481 391 481 391 446.5 462 c 128,-1,19
 412 533 412 533 358 595 c 1,20,-1
 173 516 l 1,21,-1
 162 543 l 1,22,-1
 337 618 l 1,23,24
 280 678 280 678 211 720 c 1,25,-1
 239 745 l 1,26,27
 314 698 314 698 375 634 c 1,28,-1
 523 697 l 1,29,-1
 533 670 l 1,30,-1
 395 611 l 1,0,1
376.5 65.5 m 128,-1,32
 425 91 425 91 452 137.5 c 128,-1,33
 479 184 479 184 479 244 c 0,34,35
 479 318 479 318 430.5 360.5 c 128,-1,36
 382 403 382 403 298 403 c 0,37,38
 237 403 237 403 189 377.5 c 128,-1,39
 141 352 141 352 114.5 305.5 c 128,-1,40
 88 259 88 259 88 199 c 0,41,42
 88 126 88 126 135.5 83 c 128,-1,43
 183 40 183 40 265 40 c 0,44,31
 328 40 328 40 376.5 65.5 c 128,-1,32
EndSplineSet
Substitution2: "<3,3> Small Caps in Latin lookup 11 subtable" eth.sc
EndChar

StartChar: divide
Encoding: 247 247 186
Width: 484
Flags: W
LayerCount: 2
Fore
SplineSet
317 527 m 128,-1,1
 325 519 325 519 325 506 c 0,2,3
 325 489 325 489 312.5 476.5 c 128,-1,4
 300 464 300 464 283 464 c 0,5,6
 270 464 270 464 262.5 472.5 c 128,-1,7
 255 481 255 481 255 494 c 0,8,9
 255 511 255 511 267.5 523 c 128,-1,10
 280 535 280 535 297 535 c 0,11,0
 309 535 309 535 317 527 c 128,-1,1
460 339 m 1,12,-1
 454 304 l 1,13,-1
 48 304 l 1,14,-1
 54 339 l 1,15,-1
 460 339 l 1,12,-1
248 176 m 128,-1,17
 256 168 256 168 256 155 c 0,18,19
 256 138 256 138 243.5 125.5 c 128,-1,20
 231 113 231 113 214 113 c 0,21,22
 201 113 201 113 193.5 121.5 c 128,-1,23
 186 130 186 130 186 143 c 0,24,25
 186 160 186 160 198.5 172 c 128,-1,26
 211 184 211 184 228 184 c 0,27,16
 240 184 240 184 248 176 c 128,-1,17
EndSplineSet
EndChar

StartChar: oslash
Encoding: 248 248 187
Width: 615
Flags: W
LayerCount: 2
Fore
SplineSet
542.5 397 m 128,-1,1
 566 347 566 347 566 286 c 0,2,3
 566 204 566 204 528.5 138.5 c 128,-1,4
 491 73 491 73 426 36 c 128,-1,5
 361 -1 361 -1 282 -1 c 0,6,7
 213 -1 213 -1 160 30 c 1,8,-1
 64 -106 l 1,9,-1
 30 -106 l 1,10,-1
 136 45 l 1,11,12
 95 77 95 77 72 126 c 128,-1,13
 49 175 49 175 49 236 c 0,14,15
 49 317 49 317 87 382.5 c 128,-1,16
 125 448 125 448 190 485 c 128,-1,17
 255 522 255 522 333 522 c 0,18,19
 400 522 400 522 452 493 c 1,20,-1
 546 627 l 1,21,-1
 581 627 l 1,22,-1
 476 478 l 1,23,0
 519 447 519 447 542.5 397 c 128,-1,1
107.5 145.5 m 128,-1,25
 126 104 126 104 159 77 c 1,26,-1
 429 461 l 1,27,28
 386 484 386 484 330 484 c 0,29,30
 263 484 263 484 207.5 452.5 c 128,-1,31
 152 421 152 421 120.5 364.5 c 128,-1,32
 89 308 89 308 89 237 c 0,33,24
 89 187 89 187 107.5 145.5 c 128,-1,25
408 67.5 m 128,-1,35
 463 99 463 99 494.5 155.5 c 128,-1,36
 526 212 526 212 526 284 c 0,37,38
 526 335 526 335 507 377 c 128,-1,39
 488 419 488 419 453 445 c 1,40,-1
 182 62 l 1,41,42
 226 36 226 36 285 36 c 0,43,34
 353 36 353 36 408 67.5 c 128,-1,35
EndSplineSet
Substitution2: "<3,3> Small Caps in Latin lookup 11 subtable" oslash.sc
EndChar

StartChar: thorn
Encoding: 254 254 193
Width: 678
Flags: W
LayerCount: 2
Fore
SplineSet
521 495 m 128,-1,1
 573 466 573 466 602 413.5 c 128,-1,2
 631 361 631 361 631 294 c 0,3,4
 631 212 631 212 593.5 144 c 128,-1,5
 556 76 556 76 491 36.5 c 128,-1,6
 426 -3 426 -3 349 -3 c 0,7,8
 264 -3 264 -3 206 41 c 128,-1,9
 148 85 148 85 131 160 c 1,10,-1
 60 -194 l 1,11,-1
 19 -194 l 1,12,-1
 207 742 l 1,13,-1
 248 742 l 1,14,-1
 179 406 l 1,15,16
 217 462 217 462 275.5 493 c 128,-1,17
 334 524 334 524 402 524 c 0,18,0
 469 524 469 524 521 495 c 128,-1,1
270.5 451 m 128,-1,20
 215 417 215 417 182.5 359 c 128,-1,21
 150 301 150 301 150 232 c 0,22,23
 150 175 150 175 175 130.5 c 128,-1,24
 200 86 200 86 245 61.5 c 128,-1,25
 290 37 290 37 348 37 c 0,26,27
 413 37 413 37 468.5 71 c 128,-1,28
 524 105 524 105 556.5 163.5 c 128,-1,29
 589 222 589 222 589 291 c 0,30,31
 589 348 589 348 564 392 c 128,-1,32
 539 436 539 436 494.5 460.5 c 128,-1,33
 450 485 450 485 392 485 c 0,34,19
 326 485 326 485 270.5 451 c 128,-1,20
EndSplineSet
Substitution2: "<3,3> Small Caps in Latin lookup 11 subtable" thorn.sc
EndChar

StartChar: Aogonek
Encoding: 260 260 199
Width: 698
Flags: W
LayerCount: 2
Fore
SplineSet
591 -161 m 1,1,-1
 599 -191 l 1,2,3
 559 -214 559 -214 520 -214 c 0,4,5
 490 -214 490 -214 472.5 -197.5 c 128,-1,6
 455 -181 455 -181 455 -151 c 0,7,8
 455 -109 455 -109 487 -72.5 c 128,-1,9
 519 -36 519 -36 590 5 c 1,10,-1
 534 199 l 1,11,-1
 124 199 l 1,12,-1
 2 0 l 1,13,-1
 -44 0 l 1,14,-1
 389 699 l 1,15,-1
 433 699 l 1,16,-1
 637 0 l 1,17,18
 560 -46 560 -46 527.5 -76.5 c 128,-1,19
 495 -107 495 -107 495 -141 c 0,20,21
 495 -159 495 -159 506 -168.5 c 128,-1,22
 517 -178 517 -178 534 -178 c 0,23,0
 560 -178 560 -178 591 -161 c 1,1,-1
150 241 m 1,24,-1
 522 241 l 1,25,-1
 403 654 l 1,26,-1
 150 241 l 1,24,-1
EndSplineSet
EndChar

StartChar: aogonek
Encoding: 261 261 200
Width: 673
Flags: W
LayerCount: 2
Fore
SplineSet
406.5 -76.5 m 128,-1,1
 374 -107 374 -107 374 -141 c 0,2,3
 374 -159 374 -159 385 -168.5 c 128,-1,4
 396 -178 396 -178 413 -178 c 0,5,6
 439 -178 439 -178 470 -161 c 1,7,-1
 478 -191 l 1,8,9
 438 -214 438 -214 399 -214 c 0,10,11
 369 -214 369 -214 351.5 -197.5 c 128,-1,12
 334 -181 334 -181 334 -151 c 0,13,14
 334 -108 334 -108 368 -70.5 c 128,-1,15
 402 -33 402 -33 477 10 c 1,16,-1
 499 115 l 1,17,18
 461 59 461 59 402.5 28 c 128,-1,19
 344 -3 344 -3 276 -3 c 0,20,21
 209 -3 209 -3 157 26 c 128,-1,22
 105 55 105 55 76 107.5 c 128,-1,23
 47 160 47 160 47 227 c 0,24,25
 47 309 47 309 84.5 377 c 128,-1,26
 122 445 122 445 187 484.5 c 128,-1,27
 252 524 252 524 329 524 c 0,28,29
 413 524 413 524 471.5 479.5 c 128,-1,30
 530 435 530 435 547 360 c 1,31,-1
 579 521 l 1,32,-1
 620 521 l 1,33,-1
 516 0 l 1,34,0
 439 -46 439 -46 406.5 -76.5 c 128,-1,1
407.5 70 m 128,-1,36
 463 104 463 104 495.5 162 c 128,-1,37
 528 220 528 220 528 289 c 0,38,39
 528 346 528 346 503 390.5 c 128,-1,40
 478 435 478 435 433 459.5 c 128,-1,41
 388 484 388 484 330 484 c 0,42,43
 265 484 265 484 209.5 450 c 128,-1,44
 154 416 154 416 121.5 357.5 c 128,-1,45
 89 299 89 299 89 230 c 0,46,47
 89 173 89 173 114 129 c 128,-1,48
 139 85 139 85 183.5 60.5 c 128,-1,49
 228 36 228 36 286 36 c 0,50,35
 352 36 352 36 407.5 70 c 128,-1,36
EndSplineSet
Substitution2: "<3,3> Small Caps in Latin lookup 11 subtable" aogonek.sc
EndChar

StartChar: Dcroat
Encoding: 272 272 211
Width: 804
Flags: W
LayerCount: 2
Fore
SplineSet
628.5 660.5 m 128,-1,1
 699 622 699 622 738.5 554.5 c 128,-1,2
 778 487 778 487 778 403 c 0,3,4
 778 381 778 381 775 357 c 0,5,6
 763 260 763 260 703 178 c 128,-1,7
 643 96 643 96 553 48 c 128,-1,8
 463 0 463 0 363 0 c 2,9,-1
 69 0 l 1,10,-1
 135 334 l 1,11,-1
 59 334 l 1,12,-1
 65 366 l 1,13,-1
 142 366 l 1,14,-1
 208 699 l 1,15,-1
 469 699 l 2,16,0
 558 699 558 699 628.5 660.5 c 128,-1,1
737 395 m 0,18,19
 737 469 737 469 701.5 529 c 128,-1,20
 666 589 666 589 603.5 623.5 c 128,-1,21
 541 658 541 658 463 658 c 2,22,-1
 242 658 l 1,23,-1
 183 366 l 1,24,-1
 426 366 l 1,25,-1
 420 334 l 1,26,-1
 177 334 l 1,27,-1
 118 42 l 1,28,-1
 370 42 l 2,29,30
 457 42 457 42 536.5 84 c 128,-1,31
 616 126 616 126 669 198 c 128,-1,32
 722 270 722 270 734 356 c 0,33,17
 737 376 737 376 737 395 c 0,18,19
EndSplineSet
EndChar

StartChar: dcroat
Encoding: 273 273 212
Width: 687
Flags: W
LayerCount: 2
Fore
SplineSet
717 611 m 1,0,-1
 639 611 l 1,1,-1
 517 0 l 1,2,-1
 476 0 l 1,3,-1
 499 114 l 1,4,5
 461 58 461 58 402.5 27.5 c 128,-1,6
 344 -3 344 -3 277 -3 c 256,7,8
 210 -3 210 -3 157.5 26 c 128,-1,9
 105 55 105 55 76 106.5 c 128,-1,10
 47 158 47 158 47 225 c 0,11,12
 47 306 47 306 84.5 373 c 128,-1,13
 122 440 122 440 186.5 479 c 128,-1,14
 251 518 251 518 328 518 c 0,15,16
 413 518 413 518 471.5 474.5 c 128,-1,17
 530 431 530 431 547 357 c 1,18,-1
 598 611 l 1,19,-1
 358 611 l 1,20,-1
 364 644 l 1,21,-1
 604 644 l 1,22,-1
 624 742 l 1,23,-1
 665 742 l 1,24,-1
 645 644 l 1,25,-1
 723 644 l 1,26,-1
 717 611 l 1,0,-1
408.5 69.5 m 128,-1,28
 464 103 464 103 496 160.5 c 128,-1,29
 528 218 528 218 528 286 c 0,30,31
 528 342 528 342 503 386 c 128,-1,32
 478 430 478 430 433 454 c 128,-1,33
 388 478 388 478 330 478 c 0,34,35
 265 478 265 478 209.5 444.5 c 128,-1,36
 154 411 154 411 121.5 353.5 c 128,-1,37
 89 296 89 296 89 228 c 0,38,39
 89 172 89 172 114 128 c 128,-1,40
 139 84 139 84 184 60 c 128,-1,41
 229 36 229 36 287 36 c 0,42,27
 353 36 353 36 408.5 69.5 c 128,-1,28
EndSplineSet
Substitution2: "<3,3> Small Caps in Latin lookup 11 subtable" dcroat.sc
EndChar

StartChar: Eogonek
Encoding: 280 280 219
Width: 647
Flags: W
LayerCount: 2
Fore
SplineSet
242 658 m 1,0,-1
 185 379 l 1,1,-1
 550 379 l 1,2,-1
 542 337 l 1,3,-1
 177 337 l 1,4,-1
 117 42 l 1,5,-1
 540 42 l 1,6,-1
 532 0 l 1,7,8
 455 -46 455 -46 422.5 -76.5 c 128,-1,9
 390 -107 390 -107 390 -141 c 0,10,11
 390 -159 390 -159 401 -168.5 c 128,-1,12
 412 -178 412 -178 429 -178 c 0,13,14
 455 -178 455 -178 486 -161 c 1,15,-1
 494 -191 l 1,16,17
 454 -214 454 -214 415 -214 c 0,18,19
 385 -214 385 -214 367.5 -197.5 c 128,-1,20
 350 -181 350 -181 350 -151 c 0,21,22
 350 -110 350 -110 380 -74.5 c 128,-1,23
 410 -39 410 -39 476 0 c 1,24,-1
 68 0 l 1,25,-1
 208 699 l 1,26,-1
 659 699 l 1,27,-1
 651 658 l 1,28,-1
 242 658 l 1,0,-1
EndSplineSet
EndChar

StartChar: eogonek
Encoding: 281 281 220
Width: 595
Flags: W
LayerCount: 2
Fore
SplineSet
90 249 m 1,0,-1
 90 236 l 2,1,2
 90 147 90 147 144 92 c 128,-1,3
 198 37 198 37 286 37 c 0,4,5
 339 37 339 37 385 54.5 c 128,-1,6
 431 72 431 72 465 105 c 1,7,-1
 487 76 l 1,8,9
 472 61 472 61 447 45 c 0,10,11
 371 -9 371 -9 329 -56.5 c 128,-1,12
 287 -104 287 -104 287 -140 c 0,13,14
 287 -158 287 -158 297.5 -168 c 128,-1,15
 308 -178 308 -178 326 -178 c 0,16,17
 352 -178 352 -178 383 -161 c 1,18,-1
 390 -191 l 1,19,20
 350 -214 350 -214 312 -214 c 0,21,22
 281 -214 281 -214 264 -196.5 c 128,-1,23
 247 -179 247 -179 247 -148 c 0,24,25
 247 -81 247 -81 352 5 c 1,26,27
 314 -2 314 -2 283 -2 c 0,28,29
 214 -2 214 -2 161 28 c 128,-1,30
 108 58 108 58 78.5 112 c 128,-1,31
 49 166 49 166 49 235 c 0,32,33
 49 316 49 316 86.5 381.5 c 128,-1,34
 124 447 124 447 188.5 484.5 c 128,-1,35
 253 522 253 522 331 522 c 0,36,37
 398 522 398 522 448 493.5 c 128,-1,38
 498 465 498 465 524.5 413.5 c 128,-1,39
 551 362 551 362 551 294 c 0,40,41
 551 272 551 272 548 249 c 1,42,-1
 90 249 l 1,0,-1
175.5 428.5 m 128,-1,44
 111 374 111 374 94 286 c 1,45,-1
 514 286 l 1,46,47
 516 376 516 376 467 429.5 c 128,-1,48
 418 483 418 483 330 483 c 0,49,43
 240 483 240 483 175.5 428.5 c 128,-1,44
EndSplineSet
Substitution2: "<3,3> Small Caps in Latin lookup 11 subtable" eogonek.sc
EndChar

StartChar: Hbar
Encoding: 294 294 233
Width: 826
Flags: W
LayerCount: 2
Fore
SplineSet
833 558 m 1,0,-1
 827 526 l 1,1,-1
 744 526 l 1,2,-1
 639 0 l 1,3,-1
 598 0 l 1,4,-1
 664 330 l 1,5,-1
 190 330 l 1,6,-1
 124 0 l 1,7,-1
 82 0 l 1,8,-1
 187 526 l 1,9,-1
 106 526 l 1,10,-1
 112 558 l 1,11,-1
 194 558 l 1,12,-1
 222 699 l 1,13,-1
 264 699 l 1,14,-1
 236 558 l 1,15,-1
 710 558 l 1,16,-1
 738 699 l 1,17,-1
 779 699 l 1,18,-1
 751 558 l 1,19,-1
 833 558 l 1,0,-1
672 371 m 1,20,-1
 703 526 l 1,21,-1
 229 526 l 1,22,-1
 198 371 l 1,23,-1
 672 371 l 1,20,-1
EndSplineSet
EndChar

StartChar: hbar
Encoding: 295 295 234
Width: 656
Flags: W
LayerCount: 2
Fore
SplineSet
537 476.5 m 128,-1,1
 583 436 583 436 583 362 c 0,2,3
 583 333 583 333 578 310 c 2,4,-1
 516 0 l 1,5,-1
 475 0 l 1,6,-1
 536 306 l 2,7,8
 541 333 541 333 541 350 c 0,9,10
 541 410 541 410 503.5 443 c 128,-1,11
 466 476 466 476 397 476 c 0,12,13
 305 474 305 474 239 419 c 128,-1,14
 173 364 173 364 154 268 c 2,15,-1
 101 0 l 1,16,-1
 60 0 l 1,17,-1
 180 611 l 1,18,-1
 103 611 l 1,19,-1
 109 644 l 1,20,-1
 187 644 l 1,21,-1
 206 742 l 1,22,-1
 247 742 l 1,23,-1
 228 644 l 1,24,-1
 452 644 l 1,25,-1
 446 611 l 1,26,-1
 221 611 l 1,27,-1
 177 386 l 1,28,29
 214 448 214 448 273 482 c 128,-1,30
 332 516 332 516 406 517 c 0,31,0
 491 517 491 517 537 476.5 c 128,-1,1
EndSplineSet
Substitution2: "<3,3> Small Caps in Latin lookup 11 subtable" hbar.sc
EndChar

StartChar: Iogonek
Encoding: 302 302 241
Width: 282
Flags: W
LayerCount: 2
Fore
SplineSet
-0.5 -76.5 m 128,-1,1
 -33 -107 -33 -107 -33 -141 c 0,2,3
 -33 -159 -33 -159 -22 -168.5 c 128,-1,4
 -11 -178 -11 -178 6 -178 c 0,5,6
 32 -178 32 -178 63 -161 c 1,7,-1
 71 -191 l 1,8,9
 31 -214 31 -214 -8 -214 c 0,10,11
 -38 -214 -38 -214 -55.5 -197.5 c 128,-1,12
 -73 -181 -73 -181 -73 -151 c 0,13,14
 -73 -108 -73 -108 -39 -70.5 c 128,-1,15
 -5 -33 -5 -33 69 9 c 1,16,-1
 207 699 l 1,17,-1
 249 699 l 1,18,-1
 109 0 l 1,19,0
 32 -46 32 -46 -0.5 -76.5 c 128,-1,1
EndSplineSet
EndChar

StartChar: iogonek
Encoding: 303 303 242
Width: 251
Flags: W
LayerCount: 2
Fore
SplineSet
234 698.5 m 128,-1,1
 242 690 242 690 242 677 c 0,2,3
 242 659 242 659 229 646.5 c 128,-1,4
 216 634 216 634 199 634 c 0,5,6
 186 634 186 634 178 642.5 c 128,-1,7
 170 651 170 651 170 665 c 0,8,9
 170 682 170 682 183 694.5 c 128,-1,10
 196 707 196 707 213 707 c 0,11,0
 226 707 226 707 234 698.5 c 128,-1,1
157 521 m 1,12,-1
 198 521 l 1,13,-1
 94 0 l 1,14,15
 17 -46 17 -46 -15.5 -76.5 c 128,-1,16
 -48 -107 -48 -107 -48 -141 c 0,17,18
 -48 -159 -48 -159 -37 -168.5 c 128,-1,19
 -26 -178 -26 -178 -9 -178 c 0,20,21
 17 -178 17 -178 48 -161 c 1,22,-1
 56 -191 l 1,23,24
 16 -214 16 -214 -23 -214 c 0,25,26
 -53 -214 -53 -214 -70.5 -197.5 c 128,-1,27
 -88 -181 -88 -181 -88 -151 c 0,28,29
 -88 -108 -88 -108 -54 -70.5 c 128,-1,30
 -20 -33 -20 -33 55 10 c 1,31,-1
 157 521 l 1,12,-1
EndSplineSet
Substitution2: "<3,3> Small Caps in Latin lookup 11 subtable" iogonek.sc
EndChar

StartChar: dotlessi
Encoding: 305 305 244
Width: 251
Flags: W
LayerCount: 2
Fore
SplineSet
198 521 m 1,0,-1
 94 0 l 1,1,-1
 53 0 l 1,2,-1
 157 521 l 1,3,-1
 198 521 l 1,0,-1
EndSplineSet
Substitution2: "<3,3> Small Caps in Latin lookup 11 subtable" dotlessi.sc
EndChar

StartChar: kgreenlandic
Encoding: 312 312 251
Width: 550
Flags: W
LayerCount: 2
Fore
SplineSet
561 521 m 1,0,-1
 321 317 l 1,1,-1
 482 0 l 1,2,-1
 432 0 l 1,3,-1
 287 288 l 1,4,-1
 124 150 l 1,5,-1
 94 0 l 1,6,-1
 53 0 l 1,7,-1
 157 521 l 1,8,-1
 198 521 l 1,9,-1
 137 213 l 1,10,-1
 506 521 l 1,11,-1
 561 521 l 1,0,-1
EndSplineSet
Substitution2: "<3,3> Small Caps in Latin lookup 11 subtable" kgreenlandic.sc
EndChar

StartChar: Lslash
Encoding: 321 321 260
Width: 519
Flags: W
LayerCount: 2
Fore
SplineSet
136 42 m 1,0,-1
 446 42 l 1,1,-1
 439 0 l 1,2,-1
 86 0 l 1,3,-1
 153 334 l 1,4,-1
 54 282 l 1,5,-1
 61 319 l 1,6,-1
 160 372 l 1,7,-1
 226 699 l 1,8,-1
 268 699 l 1,9,-1
 207 397 l 1,10,-1
 349 472 l 1,11,-1
 343 435 l 1,12,-1
 200 359 l 1,13,-1
 136 42 l 1,0,-1
EndSplineSet
EndChar

StartChar: lslash
Encoding: 322 322 261
Width: 327
Flags: W
LayerCount: 2
Fore
SplineSet
345 472 m 1,0,-1
 339 435 l 1,1,-1
 217 370 l 1,2,-1
 143 0 l 1,3,-1
 102 0 l 1,4,-1
 171 346 l 1,5,-1
 51 282 l 1,6,-1
 57 319 l 1,7,-1
 179 384 l 1,8,-1
 250 742 l 1,9,-1
 291 742 l 1,10,-1
 224 408 l 1,11,-1
 345 472 l 1,0,-1
EndSplineSet
Substitution2: "<3,3> Small Caps in Latin lookup 11 subtable" lslash.sc
EndChar

StartChar: Eng
Encoding: 330 330 269
Width: 797
Flags: W
LayerCount: 2
Fore
SplineSet
765 699 m 1,0,-1
 625 0 l 2,1,2
 606 -94 606 -94 548 -146 c 128,-1,3
 490 -198 490 -198 403 -198 c 0,4,5
 351 -198 351 -198 309.5 -173.5 c 128,-1,6
 268 -149 268 -149 243 -105 c 1,7,-1
 272 -71 l 1,8,9
 295 -112 295 -112 331 -133 c 128,-1,10
 367 -154 367 -154 411 -154 c 0,11,12
 477 -154 477 -154 521.5 -114.5 c 128,-1,13
 566 -75 566 -75 583 0 c 1,14,-1
 576 0 l 1,15,-1
 238 634 l 1,16,-1
 110 0 l 1,17,-1
 68 0 l 1,18,-1
 208 699 l 1,19,-1
 257 699 l 1,20,-1
 595 65 l 1,21,-1
 724 699 l 1,22,-1
 765 699 l 1,0,-1
EndSplineSet
EndChar

StartChar: eng
Encoding: 331 331 270
Width: 649
Flags: W
LayerCount: 2
Fore
SplineSet
535.5 482.5 m 128,-1,1
 579 443 579 443 579 371 c 0,2,3
 579 347 579 347 573 318 c 2,4,-1
 504 -27 l 2,5,6
 487 -110 487 -110 444.5 -152.5 c 128,-1,7
 402 -195 402 -195 343 -195 c 0,8,9
 315 -195 315 -195 289.5 -185 c 128,-1,10
 264 -175 264 -175 245 -158 c 1,11,-1
 269 -123 l 1,12,13
 302 -154 302 -154 349 -154 c 0,14,15
 391 -154 391 -154 420 -123 c 128,-1,16
 449 -92 449 -92 462 -31 c 2,17,-1
 530 310 l 2,18,19
 535 337 535 337 535 356 c 0,20,21
 535 415 535 415 498.5 447.5 c 128,-1,22
 462 480 462 480 394 480 c 0,23,24
 304 480 304 480 239.5 427 c 128,-1,25
 175 374 175 374 150 282 c 1,26,-1
 94 0 l 1,27,-1
 53 0 l 1,28,-1
 157 521 l 1,29,-1
 198 521 l 1,30,-1
 171 387 l 1,31,32
 209 452 209 452 271 487 c 128,-1,33
 333 522 333 522 411 522 c 0,34,0
 492 522 492 522 535.5 482.5 c 128,-1,1
EndSplineSet
Substitution2: "<3,3> Small Caps in Latin lookup 11 subtable" eng.sc
EndChar

StartChar: OE
Encoding: 338 338 277
Width: 1094
Flags: W
LayerCount: 2
Fore
SplineSet
689 658 m 1,0,-1
 633 379 l 1,1,-1
 997 379 l 1,2,-1
 989 337 l 1,3,-1
 624 337 l 1,4,-1
 565 42 l 1,5,-1
 987 42 l 1,6,-1
 980 0 l 1,7,-1
 395 0 l 2,8,9
 303 0 303 0 227.5 42.5 c 128,-1,10
 152 85 152 85 108.5 158.5 c 128,-1,11
 65 232 65 232 65 321 c 0,12,13
 65 421 65 421 120 508 c 128,-1,14
 175 595 175 595 266.5 647 c 128,-1,15
 358 699 358 699 463 699 c 2,16,-1
 1106 699 l 1,17,-1
 1099 658 l 1,18,-1
 689 658 l 1,0,-1
523 41 m 1,19,-1
 647 658 l 1,20,-1
 461 658 l 2,21,22
 368 658 368 658 286.5 611.5 c 128,-1,23
 205 565 205 565 156 487.5 c 128,-1,24
 107 410 107 410 107 320 c 0,25,26
 107 242 107 242 145 178 c 128,-1,27
 183 114 183 114 249.5 77.5 c 128,-1,28
 316 41 316 41 397 41 c 2,29,-1
 523 41 l 1,19,-1
EndSplineSet
EndChar

StartChar: oe
Encoding: 339 339 278
Width: 1070
Flags: W
LayerCount: 2
Fore
SplineSet
563 254 m 1,0,1
 562 247 562 247 562 233 c 0,2,3
 562 175 562 175 586.5 130.5 c 128,-1,4
 611 86 611 86 655 61.5 c 128,-1,5
 699 37 699 37 757 37 c 0,6,7
 811 37 811 37 859 55.5 c 128,-1,8
 907 74 907 74 942 109 c 1,9,-1
 964 82 l 1,10,11
 923 42 923 42 868.5 20.5 c 128,-1,12
 814 -1 814 -1 753 -1 c 0,13,14
 669 -1 669 -1 610.5 43.5 c 128,-1,15
 552 88 552 88 534 164 c 1,16,17
 501 88 501 88 433.5 43.5 c 128,-1,18
 366 -1 366 -1 282 -1 c 0,19,20
 213 -1 213 -1 160 28 c 128,-1,21
 107 57 107 57 78 109.5 c 128,-1,22
 49 162 49 162 49 230 c 0,23,24
 49 312 49 312 86.5 379 c 128,-1,25
 124 446 124 446 189 484 c 128,-1,26
 254 522 254 522 332 522 c 0,27,28
 417 522 417 522 475.5 477.5 c 128,-1,29
 534 433 534 433 553 357 c 1,30,31
 586 433 586 433 652.5 477.5 c 128,-1,32
 719 522 719 522 803 522 c 0,33,34
 871 522 871 522 921.5 493 c 128,-1,35
 972 464 972 464 999 411.5 c 128,-1,36
 1026 359 1026 359 1026 290 c 0,37,38
 1026 278 1026 278 1024 254 c 1,39,-1
 563 254 l 1,0,1
647.5 430.5 m 128,-1,41
 583 375 583 375 567 285 c 1,42,-1
 986 285 l 1,43,44
 989 375 989 375 939 430.5 c 128,-1,45
 889 486 889 486 801 486 c 0,46,40
 712 486 712 486 647.5 430.5 c 128,-1,41
499.5 388.5 m 128,-1,48
 475 433 475 433 431 457.5 c 128,-1,49
 387 482 387 482 330 482 c 0,50,51
 263 482 263 482 208 450 c 128,-1,52
 153 418 153 418 121.5 361 c 128,-1,53
 90 304 90 304 90 232 c 0,54,55
 90 175 90 175 114.5 131 c 128,-1,56
 139 87 139 87 183 62.5 c 128,-1,57
 227 38 227 38 284 38 c 0,58,59
 351 38 351 38 406 70 c 128,-1,60
 461 102 461 102 492.5 158.5 c 128,-1,61
 524 215 524 215 524 287 c 0,62,47
 524 344 524 344 499.5 388.5 c 128,-1,48
EndSplineSet
Substitution2: "<3,3> Small Caps in Latin lookup 11 subtable" oe.sc
EndChar

StartChar: Scedilla
Encoding: 350 350 289
Width: 596
Flags: W
LayerCount: 2
Fore
SplineSet
208.5 631 m 128,-1,1
 155 598 155 598 149 543 c 0,2,3
 148 537 148 537 148 527 c 0,4,5
 148 484 148 484 170.5 457 c 128,-1,6
 193 430 193 430 226.5 414.5 c 128,-1,7
 260 399 260 399 318 380 c 0,8,9
 381 359 381 359 419 340.5 c 128,-1,10
 457 322 457 322 483.5 288 c 128,-1,11
 510 254 510 254 510 200 c 0,12,13
 510 184 510 184 509 175 c 0,14,15
 501 95 501 95 432.5 46 c 128,-1,16
 364 -3 364 -3 258 -6 c 1,17,-1
 235 -53 l 1,18,19
 268 -55 268 -55 285 -73.5 c 128,-1,20
 302 -92 302 -92 302 -117 c 0,21,22
 302 -156 302 -156 270 -185 c 128,-1,23
 238 -214 238 -214 189 -214 c 0,24,25
 168 -214 168 -214 147.5 -208.5 c 128,-1,26
 127 -203 127 -203 114 -193 c 1,27,-1
 132 -159 l 1,28,29
 143 -167 143 -167 159 -172.5 c 128,-1,30
 175 -178 175 -178 191 -178 c 0,31,32
 224 -178 224 -178 244 -160 c 128,-1,33
 264 -142 264 -142 264 -119 c 0,34,35
 264 -102 264 -102 252 -90 c 128,-1,36
 240 -78 240 -78 218 -78 c 2,37,-1
 189 -78 l 1,38,-1
 224 -5 l 1,39,40
 160 -1 160 -1 102 26 c 128,-1,41
 44 53 44 53 5 96 c 1,42,-1
 31 133 l 1,43,44
 70 88 70 88 129 62.5 c 128,-1,45
 188 37 188 37 251 37 c 0,46,47
 342 37 342 37 400 74 c 128,-1,48
 458 111 458 111 464 173 c 0,49,50
 465 179 465 179 465 191 c 0,51,52
 465 235 465 235 442 262.5 c 128,-1,53
 419 290 419 290 384.5 306 c 128,-1,54
 350 322 350 322 293 340 c 0,55,56
 230 361 230 361 192.5 379 c 128,-1,57
 155 397 155 397 129 430 c 128,-1,58
 103 463 103 463 103 517 c 0,59,60
 103 532 103 532 104 540 c 0,61,62
 108 590 108 590 140.5 628 c 128,-1,63
 173 666 173 666 228 686.5 c 128,-1,64
 283 707 283 707 352 707 c 0,65,66
 405 707 405 707 457.5 691.5 c 128,-1,67
 510 676 510 676 547 650 c 1,68,-1
 525 612 l 1,69,70
 489 637 489 637 440.5 650.5 c 128,-1,71
 392 664 392 664 346 664 c 0,72,0
 262 664 262 664 208.5 631 c 128,-1,1
EndSplineSet
EndChar

StartChar: scedilla
Encoding: 351 351 290
Width: 455
Flags: W
LayerCount: 2
Fore
SplineSet
161 461.5 m 128,-1,1
 125 435 125 435 125 389 c 0,2,3
 125 364 125 364 141 345.5 c 128,-1,4
 157 327 157 327 180.5 314.5 c 128,-1,5
 204 302 204 302 245 285 c 0,6,7
 292 266 292 266 321.5 249.5 c 128,-1,8
 351 233 351 233 371.5 207 c 128,-1,9
 392 181 392 181 392 144 c 0,10,11
 392 75 392 75 339.5 33.5 c 128,-1,12
 287 -8 287 -8 207 -9 c 2,13,-1
 203 -9 l 1,14,-1
 181 -53 l 1,15,16
 214 -55 214 -55 231 -73.5 c 128,-1,17
 248 -92 248 -92 248 -117 c 0,18,19
 248 -156 248 -156 216 -185 c 128,-1,20
 184 -214 184 -214 135 -214 c 0,21,22
 114 -214 114 -214 93.5 -208.5 c 128,-1,23
 73 -203 73 -203 60 -193 c 1,24,-1
 78 -159 l 1,25,26
 89 -167 89 -167 105 -172.5 c 128,-1,27
 121 -178 121 -178 137 -178 c 0,28,29
 170 -178 170 -178 190 -160 c 128,-1,30
 210 -142 210 -142 210 -119 c 0,31,32
 210 -102 210 -102 198 -90 c 128,-1,33
 186 -78 186 -78 164 -78 c 2,34,-1
 135 -78 l 1,35,-1
 169 -7 l 1,36,37
 114 0 114 0 67.5 24.5 c 128,-1,38
 21 49 21 49 -7 87 c 1,39,-1
 17 117 l 1,40,41
 48 77 48 77 99 54 c 128,-1,42
 150 31 150 31 208 31 c 0,43,44
 270 31 270 31 309.5 60 c 128,-1,45
 349 89 349 89 349 138 c 0,46,47
 349 164 349 164 333 183 c 128,-1,48
 317 202 317 202 293 215 c 128,-1,49
 269 228 269 228 227 246 c 0,50,51
 179 267 179 267 151.5 282.5 c 128,-1,52
 124 298 124 298 104 323.5 c 128,-1,53
 84 349 84 349 84 385 c 0,54,55
 84 450 84 450 133 488.5 c 128,-1,56
 182 527 182 527 257 527 c 0,57,58
 310 527 310 527 354.5 511 c 128,-1,59
 399 495 399 495 432 468 c 1,60,-1
 409 436 l 1,61,62
 379 460 379 460 339 474 c 128,-1,63
 299 488 299 488 254 488 c 0,64,0
 197 488 197 488 161 461.5 c 128,-1,1
EndSplineSet
Substitution2: "<3,3> Small Caps in Latin lookup 11 subtable" scedilla.sc
EndChar

StartChar: uni0162
Encoding: 354 354 293
Width: 538
Flags: W
LayerCount: 2
Fore
SplineSet
234 0 m 1,0,-1
 208 -53 l 1,1,2
 241 -55 241 -55 258 -73.5 c 128,-1,3
 275 -92 275 -92 275 -117 c 0,4,5
 275 -156 275 -156 243 -185 c 128,-1,6
 211 -214 211 -214 162 -214 c 0,7,8
 141 -214 141 -214 120.5 -208.5 c 128,-1,9
 100 -203 100 -203 87 -193 c 1,10,-1
 105 -159 l 1,11,12
 116 -167 116 -167 132 -172.5 c 128,-1,13
 148 -178 148 -178 164 -178 c 0,14,15
 197 -178 197 -178 217 -160 c 128,-1,16
 237 -142 237 -142 237 -119 c 0,17,18
 237 -102 237 -102 225 -90 c 128,-1,19
 213 -78 213 -78 191 -78 c 2,20,-1
 162 -78 l 1,21,-1
 199 0 l 1,22,-1
 196 0 l 1,23,-1
 328 658 l 1,24,-1
 92 658 l 1,25,-1
 100 699 l 1,26,-1
 613 699 l 1,27,-1
 606 658 l 1,28,-1
 369 658 l 1,29,-1
 237 0 l 1,30,-1
 234 0 l 1,0,-1
EndSplineSet
EndChar

StartChar: uni0163
Encoding: 355 355 294
Width: 373
Flags: W
LayerCount: 2
Fore
SplineSet
140 147 m 2,0,1
 135 120 135 120 135 105 c 0,2,3
 135 40 135 40 195 40 c 0,4,5
 245 40 245 40 294 71 c 1,6,-1
 305 36 l 1,7,8
 249 -1 249 -1 192 -1 c 1,9,-1
 166 -53 l 1,10,11
 199 -55 199 -55 216 -73.5 c 128,-1,12
 233 -92 233 -92 233 -117 c 0,13,14
 233 -156 233 -156 201 -185 c 128,-1,15
 169 -214 169 -214 120 -214 c 0,16,17
 99 -214 99 -214 78.5 -208.5 c 128,-1,18
 58 -203 58 -203 45 -193 c 1,19,-1
 63 -159 l 1,20,21
 74 -167 74 -167 90 -172.5 c 128,-1,22
 106 -178 106 -178 122 -178 c 0,23,24
 155 -178 155 -178 175 -160 c 128,-1,25
 195 -142 195 -142 195 -119 c 0,26,27
 195 -102 195 -102 183 -90 c 128,-1,28
 171 -78 171 -78 149 -78 c 2,29,-1
 120 -78 l 1,30,-1
 158 3 l 1,31,32
 127 10 127 10 110.5 34.5 c 128,-1,33
 94 59 94 59 94 99 c 0,34,35
 94 118 94 118 99 146 c 2,36,-1
 164 472 l 1,37,-1
 89 472 l 1,38,-1
 96 508 l 1,39,-1
 171 508 l 1,40,-1
 197 637 l 1,41,-1
 238 637 l 1,42,-1
 212 508 l 1,43,-1
 389 508 l 1,44,-1
 382 472 l 1,45,-1
 205 472 l 1,46,-1
 140 147 l 2,0,1
EndSplineSet
Substitution2: "<3,3> Small Caps in Latin lookup 11 subtable" uni0163.sc
EndChar

StartChar: Tbar
Encoding: 358 358 297
Width: 538
Flags: W
LayerCount: 2
Fore
SplineSet
606 658 m 1,0,-1
 369 658 l 1,1,-1
 310 361 l 1,2,-1
 473 361 l 1,3,-1
 467 329 l 1,4,-1
 303 329 l 1,5,-1
 237 0 l 1,6,-1
 196 0 l 1,7,-1
 262 329 l 1,8,-1
 97 329 l 1,9,-1
 103 361 l 1,10,-1
 269 361 l 1,11,-1
 328 658 l 1,12,-1
 92 658 l 1,13,-1
 100 699 l 1,14,-1
 613 699 l 1,15,-1
 606 658 l 1,0,-1
EndSplineSet
EndChar

StartChar: tbar
Encoding: 359 359 298
Width: 373
Flags: W
LayerCount: 2
Fore
SplineSet
205 472 m 1,0,-1
 175 321 l 1,1,-1
 351 321 l 1,2,-1
 344 284 l 1,3,-1
 167 284 l 1,4,-1
 140 148 l 2,5,6
 135 121 135 121 135 106 c 0,7,8
 135 40 135 40 196 40 c 0,9,10
 246 40 246 40 294 70 c 1,11,-1
 305 36 l 1,12,13
 244 -1 244 -1 188 -1 c 0,14,15
 143 -1 143 -1 118.5 23.5 c 128,-1,16
 94 48 94 48 94 95 c 0,17,18
 94 122 94 122 99 144 c 2,19,-1
 127 284 l 1,20,-1
 51 284 l 1,21,-1
 58 321 l 1,22,-1
 134 321 l 1,23,-1
 164 472 l 1,24,-1
 89 472 l 1,25,-1
 96 508 l 1,26,-1
 171 508 l 1,27,-1
 197 637 l 1,28,-1
 238 637 l 1,29,-1
 212 508 l 1,30,-1
 389 508 l 1,31,-1
 382 472 l 1,32,-1
 205 472 l 1,0,-1
EndSplineSet
Substitution2: "<3,3> Small Caps in Latin lookup 11 subtable" tbar.sc
EndChar

StartChar: Uogonek
Encoding: 370 370 309
Width: 772
Flags: W
LayerCount: 2
Fore
SplineSet
757 699 m 1,0,-1
 674 286 l 2,1,2
 641 119 641 119 526 47 c 1,3,4
 449 -7 449 -7 406 -55 c 128,-1,5
 363 -103 363 -103 363 -140 c 0,6,7
 363 -158 363 -158 373.5 -168 c 128,-1,8
 384 -178 384 -178 402 -178 c 0,9,10
 428 -178 428 -178 459 -161 c 1,11,-1
 466 -191 l 1,12,13
 426 -214 426 -214 388 -214 c 0,14,15
 357 -214 357 -214 340 -196.5 c 128,-1,16
 323 -179 323 -179 323 -148 c 0,17,18
 323 -80 323 -80 432 8 c 1,19,20
 390 -1 390 -1 344 -1 c 0,21,22
 229 -1 229 -1 164.5 55 c 128,-1,23
 100 111 100 111 100 213 c 0,24,25
 100 244 100 244 108 286 c 2,26,-1
 191 699 l 1,27,-1
 232 699 l 1,28,-1
 150 286 l 2,29,30
 143 254 143 254 143 221 c 0,31,32
 143 134 143 134 197 87 c 128,-1,33
 251 40 251 40 349 40 c 0,34,35
 462 40 462 40 535 104 c 128,-1,36
 608 168 608 168 632 286 c 2,37,-1
 715 699 l 1,38,-1
 757 699 l 1,0,-1
EndSplineSet
EndChar

StartChar: uogonek
Encoding: 371 371 310
Width: 650
Flags: W
LayerCount: 2
Fore
SplineSet
384.5 -76.5 m 128,-1,1
 352 -107 352 -107 352 -141 c 0,2,3
 352 -159 352 -159 363 -168.5 c 128,-1,4
 374 -178 374 -178 391 -178 c 0,5,6
 417 -178 417 -178 448 -161 c 1,7,-1
 456 -191 l 1,8,9
 416 -214 416 -214 377 -214 c 0,10,11
 347 -214 347 -214 329.5 -197.5 c 128,-1,12
 312 -181 312 -181 312 -151 c 0,13,14
 312 -108 312 -108 346 -70.5 c 128,-1,15
 380 -33 380 -33 454 9 c 1,16,-1
 478 130 l 1,17,18
 441 67 441 67 382 33.5 c 128,-1,19
 323 0 323 0 249 -2 c 0,20,21
 165 -2 165 -2 118.5 39 c 128,-1,22
 72 80 72 80 72 154 c 0,23,24
 72 180 72 180 78 208 c 2,25,-1
 140 521 l 1,26,-1
 181 521 l 1,27,-1
 120 212 l 2,28,29
 115 185 115 185 115 166 c 0,30,31
 115 106 115 106 152.5 72.5 c 128,-1,32
 190 39 190 39 258 39 c 0,33,34
 350 41 350 41 416.5 96.5 c 128,-1,35
 483 152 483 152 502 249 c 2,36,-1
 555 521 l 1,37,-1
 596 521 l 1,38,-1
 493 1 l 1,39,-1
 494 0 l 1,40,0
 417 -46 417 -46 384.5 -76.5 c 128,-1,1
EndSplineSet
Substitution2: "<3,3> Small Caps in Latin lookup 11 subtable" uogonek.sc
EndChar

StartChar: uni018F
Encoding: 399 399 322
Width: 798
Flags: W
LayerCount: 2
Fore
SplineSet
613 661.5 m 128,-1,1
 686 619 686 619 727.5 545.5 c 128,-1,2
 769 472 769 472 769 382 c 0,3,4
 769 279 769 279 716 190 c 128,-1,5
 663 101 663 101 574.5 48.5 c 128,-1,6
 486 -4 486 -4 386 -4 c 0,7,8
 295 -4 295 -4 221.5 39 c 128,-1,9
 148 82 148 82 106.5 156.5 c 128,-1,10
 65 231 65 231 65 323 c 0,11,12
 65 336 65 336 67 358 c 1,13,-1
 727 358 l 1,14,15
 728 366 728 366 728 381 c 0,16,17
 728 459 728 459 691 523.5 c 128,-1,18
 654 588 654 588 589.5 625.5 c 128,-1,19
 525 663 525 663 446 663 c 0,20,21
 374 663 374 663 307.5 633.5 c 128,-1,22
 241 604 241 604 191 551 c 1,23,-1
 166 582 l 1,24,25
 223 640 223 640 295.5 672 c 128,-1,26
 368 704 368 704 450 704 c 0,27,0
 540 704 540 704 613 661.5 c 128,-1,1
538 73 m 128,-1,29
 609 109 609 109 658 173 c 128,-1,30
 707 237 707 237 722 316 c 1,31,-1
 108 316 l 1,32,33
 108 239 108 239 144.5 175 c 128,-1,34
 181 111 181 111 245.5 74 c 128,-1,35
 310 37 310 37 390 37 c 0,36,28
 467 37 467 37 538 73 c 128,-1,29
EndSplineSet
EndChar

StartChar: florin
Encoding: 402 402 323
Width: 435
Flags: W
LayerCount: 2
Fore
SplineSet
308 679.5 m 128,-1,1
 274 646 274 646 264 591 c 2,2,-1
 239 463 l 1,3,-1
 400 463 l 1,4,-1
 395 427 l 1,5,-1
 232 427 l 1,6,-1
 142 -40 l 2,7,8
 128 -113 128 -113 92 -154 c 128,-1,9
 56 -195 56 -195 -2 -195 c 0,10,11
 -26 -195 -26 -195 -51.5 -184.5 c 128,-1,12
 -77 -174 -77 -174 -94 -158 c 1,13,-1
 -75 -125 l 1,14,15
 -61 -139 -61 -139 -41 -147.5 c 128,-1,16
 -21 -156 -21 -156 -3 -156 c 0,17,18
 40 -156 40 -156 65 -124.5 c 128,-1,19
 90 -93 90 -93 102 -34 c 2,20,-1
 191 427 l 1,21,-1
 126 427 l 1,22,-1
 132 463 l 1,23,-1
 197 463 l 1,24,-1
 223 596 l 2,25,26
 237 667 237 667 281.5 709.5 c 128,-1,27
 326 752 326 752 386 752 c 0,28,29
 414 752 414 752 442 741.5 c 128,-1,30
 470 731 470 731 491 714 c 1,31,-1
 469 682 l 1,32,33
 453 696 453 696 430.5 704.5 c 128,-1,34
 408 713 408 713 387 713 c 0,35,0
 342 713 342 713 308 679.5 c 128,-1,1
EndSplineSet
EndChar

StartChar: Ohorn
Encoding: 416 416 324
Width: 893
Flags: W
LayerCount: 2
Fore
SplineSet
761.5 522.5 m 128,-1,1
 792 459 792 459 792 385 c 0,2,3
 792 282 792 282 737 192.5 c 128,-1,4
 682 103 682 103 590 49.5 c 128,-1,5
 498 -4 498 -4 394 -4 c 0,6,7
 301 -4 301 -4 226 38.5 c 128,-1,8
 151 81 151 81 108.5 154.5 c 128,-1,9
 66 228 66 228 66 317 c 0,10,11
 66 420 66 420 121 509 c 128,-1,12
 176 598 176 598 267.5 651 c 128,-1,13
 359 704 359 704 463 704 c 0,14,15
 547 704 547 704 619 668 c 1,16,-1
 619 669 l 1,17,18
 638 661 638 661 662 661 c 0,19,20
 703 661 703 661 730 692 c 128,-1,21
 757 723 757 723 757 763 c 0,22,23
 757 786 757 786 746 806 c 1,24,-1
 786 822 l 1,25,26
 797 797 797 797 797 768 c 0,27,28
 797 717 797 717 762.5 677 c 128,-1,29
 728 637 728 637 677 630 c 1,30,0
 731 586 731 586 761.5 522.5 c 128,-1,1
712 523.5 m 128,-1,32
 674 588 674 588 607.5 625.5 c 128,-1,33
 541 663 541 663 461 663 c 0,34,35
 368 663 368 663 287 616 c 128,-1,36
 206 569 206 569 157 490 c 128,-1,37
 108 411 108 411 108 319 c 0,38,39
 108 241 108 241 146 176.5 c 128,-1,40
 184 112 184 112 250 74.5 c 128,-1,41
 316 37 316 37 397 37 c 0,42,43
 488 37 488 37 569.5 84.5 c 128,-1,44
 651 132 651 132 700.5 211.5 c 128,-1,45
 750 291 750 291 750 382 c 0,46,31
 750 459 750 459 712 523.5 c 128,-1,32
EndSplineSet
EndChar

StartChar: ohorn
Encoding: 417 417 325
Width: 615
Flags: W
LayerCount: 2
Fore
SplineSet
634 589 m 0,1,2
 634 535 634 535 597.5 494.5 c 128,-1,3
 561 454 561 454 507 450 c 1,4,5
 535 419 535 419 550.5 377 c 128,-1,6
 566 335 566 335 566 286 c 0,7,8
 566 204 566 204 528.5 138.5 c 128,-1,9
 491 73 491 73 426 36 c 128,-1,10
 361 -1 361 -1 282 -1 c 0,11,12
 214 -1 214 -1 161 29 c 128,-1,13
 108 59 108 59 78.5 113 c 128,-1,14
 49 167 49 167 49 236 c 0,15,16
 49 317 49 317 87 382.5 c 128,-1,17
 125 448 125 448 190 485 c 128,-1,18
 255 522 255 522 333 522 c 0,19,20
 405 522 405 522 461 488 c 0,21,22
 477 482 477 482 499 482 c 0,23,24
 540 482 540 482 567 513 c 128,-1,25
 594 544 594 544 594 584 c 0,26,27
 594 607 594 607 583 627 c 1,28,-1
 623 643 l 1,29,0
 634 618 634 618 634 589 c 0,1,2
407 69.5 m 128,-1,31
 462 101 462 101 493.5 156.5 c 128,-1,32
 525 212 525 212 525 283 c 0,33,34
 525 341 525 341 500.5 386 c 128,-1,35
 476 431 476 431 432 456.5 c 128,-1,36
 388 482 388 482 330 482 c 0,37,38
 263 482 263 482 208.5 451 c 128,-1,39
 154 420 154 420 122.5 364 c 128,-1,40
 91 308 91 308 91 238 c 0,41,42
 91 179 91 179 115.5 133.5 c 128,-1,43
 140 88 140 88 184 63 c 128,-1,44
 228 38 228 38 285 38 c 0,45,30
 352 38 352 38 407 69.5 c 128,-1,31
EndSplineSet
Substitution2: "<3,3> Small Caps in Latin lookup 11 subtable" ohorn.sc
EndChar

StartChar: Uhorn
Encoding: 431 431 326
Width: 835
Flags: W
LayerCount: 2
Fore
SplineSet
851 784 m 0,1,2
 851 739 851 739 824 707.5 c 128,-1,3
 797 676 797 676 751 670 c 1,4,-1
 674 286 l 2,5,6
 647 148 647 148 562 73.5 c 128,-1,7
 477 -1 477 -1 344 -1 c 0,8,9
 229 -1 229 -1 164.5 55 c 128,-1,10
 100 111 100 111 100 213 c 0,11,12
 100 244 100 244 108 286 c 2,13,-1
 191 699 l 1,14,-1
 232 699 l 1,15,-1
 150 286 l 2,16,17
 143 254 143 254 143 221 c 0,18,19
 143 134 143 134 197 87 c 128,-1,20
 251 40 251 40 349 40 c 0,21,22
 462 40 462 40 535 104 c 128,-1,23
 608 168 608 168 632 286 c 2,24,-1
 715 699 l 1,25,-1
 737 699 l 1,26,-1
 737 700 l 1,27,28
 774 700 774 700 794 721 c 128,-1,29
 814 742 814 742 814 775 c 0,30,31
 814 794 814 794 809 808 c 1,32,-1
 846 822 l 1,33,0
 851 800 851 800 851 784 c 0,1,2
EndSplineSet
EndChar

StartChar: uhorn
Encoding: 432 432 327
Width: 650
Flags: W
LayerCount: 2
Fore
SplineSet
690 605 m 0,1,2
 690 560 690 560 663 528.5 c 128,-1,3
 636 497 636 497 590 491 c 1,4,-1
 493 0 l 1,5,-1
 452 0 l 1,6,-1
 478 130 l 1,7,8
 441 67 441 67 382 33.5 c 128,-1,9
 323 0 323 0 249 -2 c 0,10,11
 165 -2 165 -2 118.5 39 c 128,-1,12
 72 80 72 80 72 154 c 0,13,14
 72 180 72 180 78 208 c 2,15,-1
 140 521 l 1,16,-1
 181 521 l 1,17,-1
 120 212 l 2,18,19
 115 185 115 185 115 166 c 0,20,21
 115 106 115 106 152.5 72.5 c 128,-1,22
 190 39 190 39 258 39 c 0,23,24
 350 41 350 41 416.5 96.5 c 128,-1,25
 483 152 483 152 502 249 c 2,26,-1
 555 521 l 1,27,-1
 576 521 l 2,28,29
 613 521 613 521 633 542 c 128,-1,30
 653 563 653 563 653 596 c 0,31,32
 653 615 653 615 648 629 c 1,33,-1
 685 643 l 1,34,0
 690 621 690 621 690 605 c 0,1,2
EndSplineSet
Substitution2: "<3,3> Small Caps in Latin lookup 11 subtable" uhorn.sc
EndChar

StartChar: uni01EA
Encoding: 490 490 339
Width: 821
Flags: W
LayerCount: 2
Fore
SplineSet
630.5 661.5 m 128,-1,1
 706 619 706 619 749 546 c 128,-1,2
 792 473 792 473 792 384 c 0,3,4
 792 281 792 281 736.5 191 c 128,-1,5
 681 101 681 101 591 50 c 1,6,-1
 591 49 l 1,7,8
 513 -6 513 -6 469 -54.5 c 128,-1,9
 425 -103 425 -103 425 -140 c 0,10,11
 425 -158 425 -158 435.5 -168 c 128,-1,12
 446 -178 446 -178 464 -178 c 0,13,14
 490 -178 490 -178 521 -161 c 1,15,-1
 528 -191 l 1,16,17
 488 -214 488 -214 450 -214 c 0,18,19
 419 -214 419 -214 402 -196.5 c 128,-1,20
 385 -179 385 -179 385 -148 c 0,21,22
 385 -113 385 -113 412.5 -74.5 c 128,-1,23
 440 -36 440 -36 495 10 c 1,24,25
 445 -4 445 -4 394 -4 c 0,26,27
 301 -4 301 -4 226 38.5 c 128,-1,28
 151 81 151 81 108.5 154.5 c 128,-1,29
 66 228 66 228 66 317 c 0,30,31
 66 420 66 420 121 509 c 128,-1,32
 176 598 176 598 267.5 651 c 128,-1,33
 359 704 359 704 463 704 c 0,34,0
 555 704 555 704 630.5 661.5 c 128,-1,1
712 523.5 m 128,-1,36
 674 588 674 588 607.5 625.5 c 128,-1,37
 541 663 541 663 461 663 c 0,38,39
 368 663 368 663 287 616 c 128,-1,40
 206 569 206 569 157 490 c 128,-1,41
 108 411 108 411 108 319 c 0,42,43
 108 241 108 241 146 176.5 c 128,-1,44
 184 112 184 112 250 74.5 c 128,-1,45
 316 37 316 37 397 37 c 0,46,47
 488 37 488 37 569.5 84.5 c 128,-1,48
 651 132 651 132 700.5 211.5 c 128,-1,49
 750 291 750 291 750 382 c 0,50,35
 750 459 750 459 712 523.5 c 128,-1,36
EndSplineSet
EndChar

StartChar: uni01EB
Encoding: 491 491 340
Width: 615
Flags: W
LayerCount: 2
Fore
SplineSet
534 149.5 m 128,-1,1
 502 88 502 88 447 49 c 0,2,3
 369 -6 369 -6 325 -54.5 c 128,-1,4
 281 -103 281 -103 281 -140 c 0,5,6
 281 -158 281 -158 291.5 -168 c 128,-1,7
 302 -178 302 -178 320 -178 c 0,8,9
 346 -178 346 -178 377 -161 c 1,10,-1
 384 -191 l 1,11,12
 344 -214 344 -214 306 -214 c 0,13,14
 275 -214 275 -214 258 -196.5 c 128,-1,15
 241 -179 241 -179 241 -148 c 0,16,17
 241 -114 241 -114 267.5 -76 c 128,-1,18
 294 -38 294 -38 346 6 c 1,19,20
 318 -1 318 -1 282 -1 c 0,21,22
 214 -1 214 -1 161 29 c 128,-1,23
 108 59 108 59 78.5 113 c 128,-1,24
 49 167 49 167 49 236 c 0,25,26
 49 317 49 317 87 382.5 c 128,-1,27
 125 448 125 448 190 485 c 128,-1,28
 255 522 255 522 333 522 c 0,29,30
 402 522 402 522 454.5 492 c 128,-1,31
 507 462 507 462 536.5 408 c 128,-1,32
 566 354 566 354 566 286 c 0,33,0
 566 211 566 211 534 149.5 c 128,-1,1
407 69.5 m 128,-1,35
 462 101 462 101 493.5 156.5 c 128,-1,36
 525 212 525 212 525 283 c 0,37,38
 525 341 525 341 500.5 386 c 128,-1,39
 476 431 476 431 432 456.5 c 128,-1,40
 388 482 388 482 330 482 c 0,41,42
 263 482 263 482 208.5 451 c 128,-1,43
 154 420 154 420 122.5 364 c 128,-1,44
 91 308 91 308 91 238 c 0,45,46
 91 179 91 179 115.5 133.5 c 128,-1,47
 140 88 140 88 184 63 c 128,-1,48
 228 38 228 38 285 38 c 0,49,34
 352 38 352 38 407 69.5 c 128,-1,35
EndSplineSet
Substitution2: "<3,3> Small Caps in Latin lookup 11 subtable" uni01EB.sc
EndChar

StartChar: uni0237
Encoding: 567 567 383
Width: 242
Flags: W
LayerCount: 2
Fore
SplineSet
-78 -155 m 0,1,2
 -32 -156 -32 -156 -1.5 -122 c 128,-1,3
 29 -88 29 -88 43 -23 c 2,4,-1
 151 521 l 1,5,-1
 192 521 l 1,6,-1
 83 -31 l 2,7,8
 67 -111 67 -111 27.5 -152.5 c 128,-1,9
 -12 -194 -12 -194 -72 -194 c 0,10,11
 -110 -194 -110 -194 -141 -179 c 1,12,-1
 -125 -145 l 1,13,0
 -108 -153 -108 -153 -78 -155 c 0,1,2
EndSplineSet
EndChar

StartChar: uni0259
Encoding: 601 601 384
Width: 598
Flags: W
LayerCount: 2
Fore
SplineSet
437 492 m 128,-1,1
 490 462 490 462 519.5 408 c 128,-1,2
 549 354 549 354 549 285 c 0,3,4
 549 204 549 204 511.5 138.5 c 128,-1,5
 474 73 474 73 409.5 35.5 c 128,-1,6
 345 -2 345 -2 267 -2 c 0,7,8
 200 -2 200 -2 150 26.5 c 128,-1,9
 100 55 100 55 73.5 106.5 c 128,-1,10
 47 158 47 158 47 226 c 0,11,12
 47 249 47 249 50 271 c 1,13,-1
 508 271 l 1,14,-1
 508 285 l 2,15,16
 508 374 508 374 454.5 429 c 128,-1,17
 401 484 401 484 313 484 c 0,18,19
 261 484 261 484 214 466 c 128,-1,20
 167 448 167 448 133 415 c 1,21,-1
 111 444 l 1,22,23
 150 482 150 482 202.5 502 c 128,-1,24
 255 522 255 522 315 522 c 0,25,0
 384 522 384 522 437 492 c 128,-1,1
377 62 m 128,-1,27
 427 87 427 87 460.5 132 c 128,-1,28
 494 177 494 177 504 235 c 1,29,-1
 84 235 l 1,30,31
 82 144 82 144 131 90.5 c 128,-1,32
 180 37 180 37 268 37 c 0,33,26
 327 37 327 37 377 62 c 128,-1,27
EndSplineSet
Substitution2: "<3,3> Small Caps in Latin lookup 11 subtable" uni0259.sc
EndChar

StartChar: uni02BB
Encoding: 699 699 385
Width: 353
Flags: W
LayerCount: 2
Fore
SplineSet
245 516 m 1,0,-1
 205 526 l 1,1,-1
 251 700 l 1,2,-1
 280 700 l 1,3,-1
 245 516 l 1,0,-1
EndSplineSet
EndChar

StartChar: uni02BC
Encoding: 700 700 386
Width: 82
Flags: W
LayerCount: 2
Fore
SplineSet
112 699 m 1,0,-1
 147 699 l 1,1,-1
 88 440 l 1,2,-1
 58 440 l 1,3,-1
 112 699 l 1,0,-1
EndSplineSet
EndChar

StartChar: uni02BE
Encoding: 702 702 387
Width: 353
Flags: W
LayerCount: 2
Fore
SplineSet
185 589 m 1,0,1
 223 589 223 589 253 616.5 c 128,-1,2
 283 644 283 644 284 680 c 0,3,4
 284 711 284 711 261.5 732.5 c 128,-1,5
 239 754 239 754 206 754 c 1,6,-1
 209 782 l 1,7,8
 252 782 252 782 281 753.5 c 128,-1,9
 310 725 310 725 310 684 c 0,10,11
 310 652 310 652 292 623.5 c 128,-1,12
 274 595 274 595 244 578 c 128,-1,13
 214 561 214 561 182 561 c 1,14,-1
 185 589 l 1,0,1
EndSplineSet
EndChar

StartChar: uni02BF
Encoding: 703 703 388
Width: 366
Flags: W
LayerCount: 2
Fore
SplineSet
301 589 m 1,0,1
 270 589 270 589 249.5 609.5 c 128,-1,2
 229 630 229 630 229 659 c 0,3,4
 229 697 229 697 261 725.5 c 128,-1,5
 293 754 293 754 333 754 c 1,6,-1
 338 782 l 1,7,8
 304 782 304 782 272.5 764 c 128,-1,9
 241 746 241 746 221.5 717 c 128,-1,10
 202 688 202 688 202 655 c 0,11,12
 202 616 202 616 228.5 588.5 c 128,-1,13
 255 561 255 561 296 561 c 1,14,-1
 301 589 l 1,0,1
EndSplineSet
EndChar

StartChar: caron
Encoding: 711 711 390
Width: 439
Flags: W
LayerCount: 2
Fore
SplineSet
382 739 m 1,0,-1
 427 739 l 1,1,-1
 305 622 l 1,2,-1
 254 622 l 1,3,-1
 177 739 l 1,4,-1
 222 739 l 1,5,-1
 285 654 l 1,6,-1
 382 739 l 1,0,-1
EndSplineSet
EndChar

StartChar: uni02C8
Encoding: 712 712 391
Width: 352
Flags: W
LayerCount: 2
Fore
SplineSet
211 521 m 1,0,-1
 246 699 l 1,1,-1
 280 699 l 1,2,-1
 245 521 l 1,3,-1
 211 521 l 1,0,-1
EndSplineSet
EndChar

StartChar: uni02C9
Encoding: 713 713 392
Width: 515
Flags: W
LayerCount: 2
Fore
SplineSet
230 687 m 1,0,-1
 456 687 l 1,1,-1
 449 654 l 1,2,-1
 224 654 l 1,3,-1
 230 687 l 1,0,-1
EndSplineSet
EndChar

StartChar: uni02CA
Encoding: 714 714 393
Width: 357
Flags: W
LayerCount: 2
Fore
SplineSet
317 743 m 1,0,-1
 354 723 l 1,1,-1
 207 620 l 1,2,-1
 167 627 l 1,3,-1
 317 743 l 1,0,-1
EndSplineSet
EndChar

StartChar: uni02CB
Encoding: 715 715 394
Width: 334
Flags: W
LayerCount: 2
Fore
SplineSet
214 743 m 1,0,-1
 319 627 l 1,1,-1
 277 620 l 1,2,-1
 169 723 l 1,3,-1
 214 743 l 1,0,-1
EndSplineSet
EndChar

StartChar: uni02CC
Encoding: 716 716 395
Width: 352
Flags: W
LayerCount: 2
Fore
SplineSet
65 -209 m 1,0,-1
 100 -30 l 1,1,-1
 134 -30 l 1,2,-1
 99 -209 l 1,3,-1
 65 -209 l 1,0,-1
EndSplineSet
EndChar

StartChar: gravecomb
Encoding: 768 768 402
Width: 0
Flags: W
LayerCount: 2
Fore
SplineSet
-124 743 m 1,0,-1
 4 627 l 1,1,-1
 -37 620 l 1,2,-1
 -165 723 l 1,3,-1
 -124 743 l 1,0,-1
EndSplineSet
Substitution2: "<3,3> Small Caps in Latin lookup 11 subtable" gravecomb.sc
EndChar

StartChar: acutecomb
Encoding: 769 769 403
Width: 0
Flags: W
LayerCount: 2
Fore
SplineSet
-62 743 m 1,0,-1
 -21 723 l 1,1,-1
 -149 620 l 1,2,-1
 -190 627 l 1,3,-1
 -62 743 l 1,0,-1
EndSplineSet
Substitution2: "<3,3> Small Caps in Latin lookup 11 subtable" acutecomb.sc
EndChar

StartChar: uni0302
Encoding: 770 770 404
Width: 0
Flags: W
LayerCount: 2
Fore
SplineSet
-13 622 m 1,0,-1
 -58 622 l 1,1,-1
 -121 707 l 1,2,-1
 -218 622 l 1,3,-1
 -263 622 l 1,4,-1
 -141 739 l 1,5,-1
 -90 739 l 1,6,-1
 -13 622 l 1,0,-1
EndSplineSet
Substitution2: "<3,3> Small Caps in Latin lookup 11 subtable" uni0302.sc
EndChar

StartChar: tildecomb
Encoding: 771 771 405
Width: 0
Flags: W
LayerCount: 2
Fore
SplineSet
-79 648.5 m 128,-1,1
 -103 622 -103 622 -138 622 c 0,2,3
 -158 622 -158 622 -172 630.5 c 128,-1,4
 -186 639 -186 639 -203 655 c 0,5,6
 -217 669 -217 669 -228 676 c 128,-1,7
 -239 683 -239 683 -253 683 c 0,8,9
 -275 683 -275 683 -289.5 668 c 128,-1,10
 -304 653 -304 653 -309 626 c 1,11,-1
 -341 626 l 1,12,13
 -332 669 -332 669 -310 694.5 c 128,-1,14
 -288 720 -288 720 -253 720 c 0,15,16
 -233 720 -233 720 -219 711.5 c 128,-1,17
 -205 703 -205 703 -188 687 c 0,18,19
 -174 673 -174 673 -163 666 c 128,-1,20
 -152 659 -152 659 -138 659 c 0,21,22
 -116 659 -116 659 -99.5 674.5 c 128,-1,23
 -83 690 -83 690 -78 716 c 1,24,-1
 -46 716 l 1,25,0
 -55 675 -55 675 -79 648.5 c 128,-1,1
EndSplineSet
Substitution2: "<3,3> Small Caps in Latin lookup 11 subtable" tildecomb.sc
EndChar

StartChar: uni0304
Encoding: 772 772 406
Width: 0
Flags: W
LayerCount: 2
Fore
SplineSet
-305 687 m 1,0,-1
 -39 687 l 1,1,-1
 -46 654 l 1,2,-1
 -311 654 l 1,3,-1
 -305 687 l 1,0,-1
EndSplineSet
Substitution2: "<3,3> Small Caps in Latin lookup 11 subtable" uni0304.sc
EndChar

StartChar: uni0306
Encoding: 774 774 407
Width: 0
Flags: W
LayerCount: 2
Fore
SplineSet
-231 718 m 0,1,2
 -231 689 -231 689 -213 670.5 c 128,-1,3
 -195 652 -195 652 -166 652 c 0,4,5
 -132 652 -132 652 -104.5 675 c 128,-1,6
 -77 698 -77 698 -70 732 c 1,7,-1
 -37 732 l 1,8,9
 -48 682 -48 682 -86 650 c 128,-1,10
 -124 618 -124 618 -171 618 c 0,11,12
 -213 618 -213 618 -239 644 c 128,-1,13
 -265 670 -265 670 -265 712 c 0,14,15
 -265 718 -265 718 -263 732 c 1,16,-1
 -230 732 l 1,17,0
 -231 727 -231 727 -231 718 c 0,1,2
EndSplineSet
Substitution2: "<3,3> Small Caps in Latin lookup 11 subtable" uni0306.sc
EndChar

StartChar: uni0307
Encoding: 775 775 408
Width: 0
Flags: W
LayerCount: 2
Fore
SplineSet
-62 698.5 m 128,-1,1
 -54 690 -54 690 -54 677 c 0,2,3
 -54 659 -54 659 -67 646.5 c 128,-1,4
 -80 634 -80 634 -97 634 c 0,5,6
 -110 634 -110 634 -118 642.5 c 128,-1,7
 -126 651 -126 651 -126 665 c 0,8,9
 -126 682 -126 682 -113 694.5 c 128,-1,10
 -100 707 -100 707 -83 707 c 0,11,0
 -70 707 -70 707 -62 698.5 c 128,-1,1
EndSplineSet
Substitution2: "<3,3> Small Caps in Latin lookup 11 subtable" uni0307.sc
EndChar

StartChar: uni0308
Encoding: 776 776 409
Width: 0
Flags: W
LayerCount: 2
Fore
SplineSet
-217.5 696.5 m 128,-1,1
 -210 688 -210 688 -210 676 c 0,2,3
 -210 660 -210 660 -222.5 647.5 c 128,-1,4
 -235 635 -235 635 -251 635 c 0,5,6
 -263 635 -263 635 -270.5 643.5 c 128,-1,7
 -278 652 -278 652 -278 665 c 0,8,9
 -278 681 -278 681 -265.5 693 c 128,-1,10
 -253 705 -253 705 -237 705 c 0,11,0
 -225 705 -225 705 -217.5 696.5 c 128,-1,1
-61 696.5 m 128,-1,13
 -53 688 -53 688 -53 676 c 0,14,15
 -53 660 -53 660 -65.5 647.5 c 128,-1,16
 -78 635 -78 635 -95 635 c 0,17,18
 -107 635 -107 635 -114.5 643.5 c 128,-1,19
 -122 652 -122 652 -122 665 c 0,20,21
 -122 681 -122 681 -109.5 693 c 128,-1,22
 -97 705 -97 705 -81 705 c 0,23,12
 -69 705 -69 705 -61 696.5 c 128,-1,13
EndSplineSet
Substitution2: "<3,3> Small Caps in Latin lookup 11 subtable" uni0308.sc
EndChar

StartChar: hookabovecomb
Encoding: 777 777 410
Width: 0
Flags: W
LayerCount: 2
Fore
SplineSet
-60 743 m 128,-1,1
 -42 726 -42 726 -42 699 c 0,2,3
 -42 671 -42 671 -64 640.5 c 128,-1,4
 -86 610 -86 610 -122 585 c 1,5,-1
 -150 598 l 1,6,7
 -119 619 -119 619 -100 644 c 128,-1,8
 -81 669 -81 669 -81 689 c 0,9,10
 -81 705 -81 705 -91.5 715 c 128,-1,11
 -102 725 -102 725 -122 725 c 0,12,13
 -144 725 -144 725 -174 709 c 1,14,-1
 -185 736 l 1,15,16
 -145 760 -145 760 -110 760 c 0,17,0
 -78 760 -78 760 -60 743 c 128,-1,1
EndSplineSet
Substitution2: "<3,3> Small Caps in Latin lookup 11 subtable" hookabovecomb.sc
EndChar

StartChar: uni030A
Encoding: 778 778 411
Width: 0
Flags: W
LayerCount: 2
Fore
SplineSet
-64 741.5 m 128,-1,1
 -40 717 -40 717 -40 682 c 0,2,3
 -40 656 -40 656 -55 632 c 128,-1,4
 -70 608 -70 608 -95 593.5 c 128,-1,5
 -120 579 -120 579 -147 579 c 0,6,7
 -182 579 -182 579 -206.5 603 c 128,-1,8
 -231 627 -231 627 -231 661 c 0,9,10
 -231 688 -231 688 -216 712.5 c 128,-1,11
 -201 737 -201 737 -176 751.5 c 128,-1,12
 -151 766 -151 766 -124 766 c 0,13,0
 -88 766 -88 766 -64 741.5 c 128,-1,1
-179.5 714.5 m 128,-1,15
 -202 693 -202 693 -202 665 c 0,16,17
 -202 642 -202 642 -185 625.5 c 128,-1,18
 -168 609 -168 609 -143 609 c 0,19,20
 -114 609 -114 609 -91 630.5 c 128,-1,21
 -68 652 -68 652 -68 679 c 0,22,23
 -68 703 -68 703 -85 719.5 c 128,-1,24
 -102 736 -102 736 -128 736 c 0,25,14
 -157 736 -157 736 -179.5 714.5 c 128,-1,15
EndSplineSet
EndChar

StartChar: uni030B
Encoding: 779 779 412
Width: 0
Flags: W
LayerCount: 2
Fore
SplineSet
-199 745 m 1,0,-1
 -166 725 l 1,1,-1
 -260 620 l 1,2,-1
 -295 626 l 1,3,-1
 -199 745 l 1,0,-1
-69 745 m 1,4,-1
 -36 725 l 1,5,-1
 -131 620 l 1,6,-1
 -166 626 l 1,7,-1
 -69 745 l 1,4,-1
EndSplineSet
Substitution2: "<3,3> Small Caps in Latin lookup 11 subtable" uni030B.sc
EndChar

StartChar: uni030C
Encoding: 780 780 413
Width: 0
Flags: W
LayerCount: 2
Fore
SplineSet
-54 739 m 1,0,-1
 -9 739 l 1,1,-1
 -131 622 l 1,2,-1
 -182 622 l 1,3,-1
 -259 739 l 1,4,-1
 -214 739 l 1,5,-1
 -151 654 l 1,6,-1
 -54 739 l 1,0,-1
EndSplineSet
Substitution2: "<3,3> Small Caps in Latin lookup 11 subtable" uni030C.sc
EndChar

StartChar: uni030F
Encoding: 783 783 414
Width: 0
Flags: W
LayerCount: 2
Fore
SplineSet
-219 745 m 1,0,-1
 -147 626 l 1,1,-1
 -184 620 l 1,2,-1
 -258 725 l 1,3,-1
 -219 745 l 1,0,-1
-90 745 m 1,4,-1
 -17 626 l 1,5,-1
 -55 620 l 1,6,-1
 -128 725 l 1,7,-1
 -90 745 l 1,4,-1
EndSplineSet
Substitution2: "<3,3> Small Caps in Latin lookup 11 subtable" uni030F.sc
EndChar

StartChar: uni0311
Encoding: 785 785 415
Width: 0
Flags: W
LayerCount: 2
Fore
SplineSet
-72 631 m 0,1,2
 -72 660 -72 660 -90 678.5 c 128,-1,3
 -108 697 -108 697 -137 697 c 0,4,5
 -171 697 -171 697 -198.5 674 c 128,-1,6
 -226 651 -226 651 -233 617 c 1,7,-1
 -266 617 l 1,8,9
 -255 667 -255 667 -217 699 c 128,-1,10
 -179 731 -179 731 -132 731 c 0,11,12
 -90 731 -90 731 -64 705 c 128,-1,13
 -38 679 -38 679 -38 637 c 0,14,15
 -38 631 -38 631 -40 617 c 1,16,-1
 -73 617 l 1,17,0
 -72 622 -72 622 -72 631 c 0,1,2
EndSplineSet
Substitution2: "<3,3> Small Caps in Latin lookup 11 subtable" uni0311.sc
EndChar

StartChar: uni0312
Encoding: 786 786 416
Width: 0
Flags: W
LayerCount: 2
Fore
SplineSet
-102 614 m 1,0,-1
 -146 614 l 1,1,-1
 -71 766 l 1,2,-1
 -39 766 l 1,3,-1
 -102 614 l 1,0,-1
EndSplineSet
EndChar

StartChar: uni031B
Encoding: 795 795 417
Width: 0
Flags: W
LayerCount: 2
Fore
SplineSet
-108 605 m 0,1,2
 -108 556 -108 556 -140.5 523 c 128,-1,3
 -173 490 -173 490 -228 490 c 1,4,-1
 -222 521 l 1,5,6
 -185 521 -185 521 -165 542 c 128,-1,7
 -145 563 -145 563 -145 596 c 0,8,9
 -145 615 -145 615 -150 629 c 1,10,-1
 -113 643 l 1,11,0
 -108 621 -108 621 -108 605 c 0,1,2
EndSplineSet
EndChar

StartChar: dotbelowcomb
Encoding: 803 803 418
Width: 0
Flags: W
LayerCount: 2
Fore
SplineSet
-218 -86.5 m 128,-1,1
 -210 -95 -210 -95 -210 -108 c 0,2,3
 -210 -126 -210 -126 -223 -138.5 c 128,-1,4
 -236 -151 -236 -151 -253 -151 c 0,5,6
 -266 -151 -266 -151 -274 -142.5 c 128,-1,7
 -282 -134 -282 -134 -282 -120 c 0,8,9
 -282 -103 -282 -103 -269 -90.5 c 128,-1,10
 -256 -78 -256 -78 -239 -78 c 0,11,0
 -226 -78 -226 -78 -218 -86.5 c 128,-1,1
EndSplineSet
Substitution2: "<3,3> Small Caps in Latin lookup 11 subtable" dotbelowcomb.sc
EndChar

StartChar: uni0324
Encoding: 804 804 419
Width: 0
Flags: W
LayerCount: 2
Fore
SplineSet
-373.5 -85.5 m 128,-1,1
 -366 -94 -366 -94 -366 -106 c 0,2,3
 -366 -122 -366 -122 -378.5 -134.5 c 128,-1,4
 -391 -147 -391 -147 -407 -147 c 0,5,6
 -419 -147 -419 -147 -426.5 -138.5 c 128,-1,7
 -434 -130 -434 -130 -434 -117 c 0,8,9
 -434 -101 -434 -101 -421.5 -89 c 128,-1,10
 -409 -77 -409 -77 -393 -77 c 0,11,0
 -381 -77 -381 -77 -373.5 -85.5 c 128,-1,1
-217 -85.5 m 128,-1,13
 -209 -94 -209 -94 -209 -106 c 0,14,15
 -209 -122 -209 -122 -221.5 -134.5 c 128,-1,16
 -234 -147 -234 -147 -251 -147 c 0,17,18
 -263 -147 -263 -147 -270.5 -138.5 c 128,-1,19
 -278 -130 -278 -130 -278 -117 c 0,20,21
 -278 -101 -278 -101 -265.5 -89 c 128,-1,22
 -253 -77 -253 -77 -237 -77 c 0,23,12
 -225 -77 -225 -77 -217 -85.5 c 128,-1,13
EndSplineSet
Substitution2: "<3,3> Small Caps in Latin lookup 11 subtable" uni0324.sc
EndChar

StartChar: uni0326
Encoding: 806 806 420
Width: 0
Flags: W
LayerCount: 2
Fore
SplineSet
-239 -63 m 1,0,-1
 -195 -63 l 1,1,-1
 -270 -215 l 1,2,-1
 -302 -215 l 1,3,-1
 -239 -63 l 1,0,-1
EndSplineSet
EndChar

StartChar: uni0327
Encoding: 807 807 421
Width: 0
Flags: W
LayerCount: 2
Fore
SplineSet
-246 0 m 1,0,-1
 -272 -53 l 1,1,2
 -239 -55 -239 -55 -222 -73.5 c 128,-1,3
 -205 -92 -205 -92 -205 -117 c 0,4,5
 -205 -156 -205 -156 -237 -185 c 128,-1,6
 -269 -214 -269 -214 -318 -214 c 0,7,8
 -339 -214 -339 -214 -359.5 -208.5 c 128,-1,9
 -380 -203 -380 -203 -393 -193 c 1,10,-1
 -375 -159 l 1,11,12
 -364 -167 -364 -167 -348 -172.5 c 128,-1,13
 -332 -178 -332 -178 -316 -178 c 0,14,15
 -283 -178 -283 -178 -263 -160 c 128,-1,16
 -243 -142 -243 -142 -243 -119 c 0,17,18
 -243 -102 -243 -102 -255 -90 c 128,-1,19
 -267 -78 -267 -78 -289 -78 c 2,20,-1
 -318 -78 l 1,21,-1
 -278 6 l 1,22,-1
 -246 0 l 1,0,-1
EndSplineSet
Substitution2: "<3,3> Small Caps in Latin lookup 11 subtable" uni0327.sc
EndChar

StartChar: uni0328
Encoding: 808 808 422
Width: 0
Flags: W
LayerCount: 2
Fore
SplineSet
-180 0 m 1,0,1
 -257 -46 -257 -46 -289.5 -76.5 c 128,-1,2
 -322 -107 -322 -107 -322 -141 c 0,3,4
 -322 -159 -322 -159 -311 -168.5 c 128,-1,5
 -300 -178 -300 -178 -283 -178 c 0,6,7
 -257 -178 -257 -178 -226 -161 c 1,8,-1
 -218 -191 l 1,9,10
 -258 -214 -258 -214 -297 -214 c 0,11,12
 -327 -214 -327 -214 -344.5 -197.5 c 128,-1,13
 -362 -181 -362 -181 -362 -151 c 0,14,15
 -362 -105 -362 -105 -323.5 -65.5 c 128,-1,16
 -285 -26 -285 -26 -199 21 c 1,17,-1
 -180 0 l 1,0,1
EndSplineSet
EndChar

StartChar: uni032E
Encoding: 814 814 423
Width: 0
Flags: W
LayerCount: 2
Fore
SplineSet
-387 -64 m 0,1,2
 -387 -93 -387 -93 -369 -111.5 c 128,-1,3
 -351 -130 -351 -130 -322 -130 c 0,4,5
 -288 -130 -288 -130 -260.5 -107 c 128,-1,6
 -233 -84 -233 -84 -226 -50 c 1,7,-1
 -193 -50 l 1,8,9
 -204 -100 -204 -100 -242 -132 c 128,-1,10
 -280 -164 -280 -164 -327 -164 c 0,11,12
 -369 -164 -369 -164 -395 -138 c 128,-1,13
 -421 -112 -421 -112 -421 -70 c 0,14,15
 -421 -64 -421 -64 -419 -50 c 1,16,-1
 -386 -50 l 1,17,0
 -387 -55 -387 -55 -387 -64 c 0,1,2
EndSplineSet
EndChar

StartChar: uni0331
Encoding: 817 817 424
Width: 0
Flags: W
LayerCount: 2
Fore
SplineSet
-440 -88 m 1,0,-1
 -215 -88 l 1,1,-1
 -221 -121 l 1,2,-1
 -446 -121 l 1,3,-1
 -440 -88 l 1,0,-1
EndSplineSet
EndChar

StartChar: uni0335
Encoding: 821 821 425
Width: 0
Flags: W
LayerCount: 2
Fore
SplineSet
-399 457 m 1,0,-1
 -105 457 l 1,1,-1
 -111 425 l 1,2,-1
 -405 425 l 1,3,-1
 -399 457 l 1,0,-1
EndSplineSet
EndChar

StartChar: uni0336
Encoding: 822 822 426
Width: 0
Flags: W
LayerCount: 2
Fore
SplineSet
-476 457 m 1,0,-1
 -106 457 l 1,1,-1
 -112 425 l 1,2,-1
 -482 425 l 1,3,-1
 -476 457 l 1,0,-1
EndSplineSet
EndChar

StartChar: uni0337
Encoding: 823 823 427
Width: 0
Flags: W
LayerCount: 2
Fore
SplineSet
-52 559 m 1,0,-1
 -300 83 l 1,1,-1
 -338 83 l 1,2,-1
 -91 559 l 1,3,-1
 -52 559 l 1,0,-1
EndSplineSet
EndChar

StartChar: uni0338
Encoding: 824 824 428
Width: 0
Flags: W
LayerCount: 2
Fore
SplineSet
-421 0 m 1,0,-1
 -37 742 l 1,1,-1
 1 742 l 1,2,-1
 -383 0 l 1,3,-1
 -421 0 l 1,0,-1
EndSplineSet
EndChar

StartChar: uni0394
Encoding: 916 916 429
Width: 698
Flags: W
LayerCount: 2
Fore
SplineSet
433 699 m 1,0,-1
 637 0 l 1,1,-1
 -44 0 l 1,2,-1
 389 699 l 1,3,-1
 433 699 l 1,0,-1
27 41 m 1,4,-1
 579 41 l 1,5,-1
 403 651 l 1,6,-1
 27 41 l 1,4,-1
EndSplineSet
EndChar

StartChar: uni03A9
Encoding: 937 937 430
Width: 916
Flags: W
LayerCount: 2
Fore
SplineSet
646 661.5 m 128,-1,1
 721 622 721 622 762.5 551.5 c 128,-1,2
 804 481 804 481 804 392 c 0,3,4
 804 327 804 327 778.5 259.5 c 128,-1,5
 753 192 753 192 707 134.5 c 128,-1,6
 661 77 661 77 604 40 c 1,7,-1
 859 40 l 1,8,-1
 852 0 l 1,9,-1
 544 0 l 1,10,-1
 547 42 l 1,11,12
 610 74 610 74 660 129.5 c 128,-1,13
 710 185 710 185 737.5 252.5 c 128,-1,14
 765 320 765 320 765 387 c 0,15,16
 765 465 765 465 728.5 527 c 128,-1,17
 692 589 692 589 626 624.5 c 128,-1,18
 560 660 560 660 474 660 c 0,19,20
 376 660 376 660 295 614.5 c 128,-1,21
 214 569 214 569 167.5 491.5 c 128,-1,22
 121 414 121 414 121 323 c 0,23,24
 121 236 121 236 163.5 158 c 128,-1,25
 206 80 206 80 277 41 c 1,26,-1
 273 0 l 1,27,-1
 -40 0 l 1,28,-1
 -33 40 l 1,29,-1
 219 40 l 1,30,31
 157 86 157 86 119.5 164 c 128,-1,32
 82 242 82 242 82 326 c 0,33,34
 82 428 82 428 135 514 c 128,-1,35
 188 600 188 600 278.5 650.5 c 128,-1,36
 369 701 369 701 476 701 c 0,37,0
 571 701 571 701 646 661.5 c 128,-1,1
EndSplineSet
EndChar

StartChar: uni03BC
Encoding: 956 956 431
Width: 650
Flags: W
LayerCount: 2
Fore
SplineSet
596 521 m 1,0,-1
 493 0 l 1,1,-1
 452 0 l 1,2,-1
 478 130 l 1,3,4
 441 67 441 67 382 33.5 c 128,-1,5
 323 0 323 0 249 -2 c 0,6,7
 192 -2 192 -2 152 17 c 128,-1,8
 112 36 112 36 92 71 c 1,9,-1
 40 -194 l 1,10,-1
 -2 -194 l 1,11,-1
 140 521 l 1,12,-1
 181 521 l 1,13,-1
 119 204 l 2,14,15
 116 185 116 185 116 166 c 0,16,17
 116 106 116 106 153 72.5 c 128,-1,18
 190 39 190 39 258 39 c 0,19,20
 350 41 350 41 416.5 96.5 c 128,-1,21
 483 152 483 152 502 249 c 2,22,-1
 555 521 l 1,23,-1
 596 521 l 1,0,-1
EndSplineSet
EndChar

StartChar: pi
Encoding: 960 960 432
Width: 720
Flags: W
LayerCount: 2
Fore
SplineSet
757 484 m 1,0,-1
 583 484 l 1,1,-1
 486 0 l 1,2,-1
 449 0 l 1,3,-1
 546 484 l 1,4,-1
 325 484 l 1,5,-1
 172 0 l 1,6,-1
 135 0 l 1,7,-1
 288 484 l 1,8,-1
 212 484 l 2,9,10
 168 484 168 484 132 463.5 c 128,-1,11
 96 443 96 443 75 409.5 c 128,-1,12
 54 376 54 376 54 338 c 0,13,14
 54 308 54 308 69 279 c 1,15,-1
 37 267 l 1,16,17
 18 304 18 304 18 343 c 0,18,19
 18 390 18 390 43.5 431 c 128,-1,20
 69 472 69 472 113.5 496.5 c 128,-1,21
 158 521 158 521 213 521 c 2,22,-1
 765 521 l 1,23,-1
 757 484 l 1,0,-1
EndSplineSet
EndChar

StartChar: uni1E08
Encoding: 7688 7688 433
Width: 730
Flags: W
LayerCount: 2
Fore
SplineSet
625 874 m 1,0,-1
 497 771 l 1,1,-1
 456 778 l 1,2,-1
 584 894 l 1,3,-1
 625 874 l 1,0,-1
593.5 679 m 128,-1,5
 655 654 655 654 699 609 c 1,6,-1
 671 577 l 1,7,8
 631 619 631 619 576.5 641.5 c 128,-1,9
 522 664 522 664 460 664 c 0,10,11
 367 664 367 664 286 617 c 128,-1,12
 205 570 205 570 156.5 491 c 128,-1,13
 108 412 108 412 108 320 c 0,14,15
 108 241 108 241 145.5 176.5 c 128,-1,16
 183 112 183 112 249 74.5 c 128,-1,17
 315 37 315 37 396 37 c 0,18,19
 458 37 458 37 517 59.5 c 128,-1,20
 576 82 576 82 625 123 c 1,21,-1
 649 94 l 1,22,23
 594 48 594 48 527.5 22 c 128,-1,24
 461 -4 461 -4 392 -4 c 2,25,-1
 382 -4 l 1,26,-1
 358 -53 l 1,27,28
 391 -55 391 -55 408 -73.5 c 128,-1,29
 425 -92 425 -92 425 -117 c 0,30,31
 425 -156 425 -156 393 -185 c 128,-1,32
 361 -214 361 -214 312 -214 c 0,33,34
 291 -214 291 -214 270.5 -208.5 c 128,-1,35
 250 -203 250 -203 237 -193 c 1,36,-1
 255 -159 l 1,37,38
 266 -167 266 -167 282 -172.5 c 128,-1,39
 298 -178 298 -178 314 -178 c 0,40,41
 347 -178 347 -178 367 -160 c 128,-1,42
 387 -142 387 -142 387 -119 c 0,43,44
 387 -102 387 -102 375 -90 c 128,-1,45
 363 -78 363 -78 341 -78 c 2,46,-1
 312 -78 l 1,47,-1
 348 -1 l 1,48,49
 267 9 267 9 202.5 53 c 128,-1,50
 138 97 138 97 102 166 c 128,-1,51
 66 235 66 235 66 316 c 0,52,53
 66 419 66 419 121 508.5 c 128,-1,54
 176 598 176 598 267 651 c 128,-1,55
 358 704 358 704 462 704 c 0,56,4
 532 704 532 704 593.5 679 c 128,-1,5
EndSplineSet
EndChar

StartChar: uni1E09
Encoding: 7689 7689 434
Width: 579
Flags: W
LayerCount: 2
Fore
SplineSet
500 723 m 1,0,-1
 372 620 l 1,1,-1
 331 627 l 1,2,-1
 459 743 l 1,3,-1
 500 723 l 1,0,-1
382.5 57 m 128,-1,5
 428 76 428 76 461 111 c 1,6,-1
 484 84 l 1,7,8
 445 43 445 43 392.5 21 c 128,-1,9
 340 -1 340 -1 280 -1 c 1,10,-1
 254 -53 l 1,11,12
 287 -55 287 -55 304 -73.5 c 128,-1,13
 321 -92 321 -92 321 -117 c 0,14,15
 321 -156 321 -156 289 -185 c 128,-1,16
 257 -214 257 -214 208 -214 c 0,17,18
 187 -214 187 -214 166.5 -208.5 c 128,-1,19
 146 -203 146 -203 133 -193 c 1,20,-1
 151 -159 l 1,21,22
 162 -167 162 -167 178 -172.5 c 128,-1,23
 194 -178 194 -178 210 -178 c 0,24,25
 243 -178 243 -178 263 -160 c 128,-1,26
 283 -142 283 -142 283 -119 c 0,27,28
 283 -102 283 -102 271 -90 c 128,-1,29
 259 -78 259 -78 237 -78 c 2,30,-1
 208 -78 l 1,31,-1
 246 1 l 1,32,33
 157 12 157 12 103 76 c 128,-1,34
 49 140 49 140 49 235 c 0,35,36
 49 316 49 316 86.5 382 c 128,-1,37
 124 448 124 448 188.5 485 c 128,-1,38
 253 522 253 522 331 522 c 0,39,40
 386 522 386 522 432 503 c 128,-1,41
 478 484 478 484 510 449 c 1,42,-1
 483 419 l 1,43,44
 423 482 423 482 329 482 c 0,45,46
 263 482 263 482 208 450.5 c 128,-1,47
 153 419 153 419 121.5 363.5 c 128,-1,48
 90 308 90 308 90 238 c 0,49,50
 90 180 90 180 114.5 134.5 c 128,-1,51
 139 89 139 89 183 63.5 c 128,-1,52
 227 38 227 38 284 38 c 0,53,4
 337 38 337 38 382.5 57 c 128,-1,5
EndSplineSet
Substitution2: "<3,3> Small Caps in Latin lookup 11 subtable" uni1E09.sc
EndChar

StartChar: uni1E1C
Encoding: 7708 7708 443
Width: 647
Flags: W
LayerCount: 2
Fore
SplineSet
383 794 m 128,-1,1
 357 820 357 820 357 862 c 0,2,3
 357 868 357 868 359 882 c 1,4,-1
 392 882 l 1,5,6
 391 877 391 877 391 868 c 0,7,8
 391 839 391 839 409 820.5 c 128,-1,9
 427 802 427 802 456 802 c 0,10,11
 490 802 490 802 517.5 825 c 128,-1,12
 545 848 545 848 552 882 c 1,13,-1
 585 882 l 1,14,15
 574 832 574 832 536 800 c 128,-1,16
 498 768 498 768 451 768 c 0,17,0
 409 768 409 768 383 794 c 128,-1,1
242 658 m 1,18,-1
 185 379 l 1,19,-1
 550 379 l 1,20,-1
 542 337 l 1,21,-1
 177 337 l 1,22,-1
 117 42 l 1,23,-1
 540 42 l 1,24,-1
 532 0 l 1,25,-1
 345 0 l 1,26,-1
 319 -53 l 1,27,28
 352 -55 352 -55 369 -73.5 c 128,-1,29
 386 -92 386 -92 386 -117 c 0,30,31
 386 -156 386 -156 354 -185 c 128,-1,32
 322 -214 322 -214 273 -214 c 0,33,34
 252 -214 252 -214 231.5 -208.5 c 128,-1,35
 211 -203 211 -203 198 -193 c 1,36,-1
 216 -159 l 1,37,38
 227 -167 227 -167 243 -172.5 c 128,-1,39
 259 -178 259 -178 275 -178 c 0,40,41
 308 -178 308 -178 328 -160 c 128,-1,42
 348 -142 348 -142 348 -119 c 0,43,44
 348 -102 348 -102 336 -90 c 128,-1,45
 324 -78 324 -78 302 -78 c 2,46,-1
 273 -78 l 1,47,-1
 310 0 l 1,48,-1
 68 0 l 1,49,-1
 208 699 l 1,50,-1
 659 699 l 1,51,-1
 651 658 l 1,52,-1
 242 658 l 1,18,-1
EndSplineSet
EndChar

StartChar: uni1E1D
Encoding: 7709 7709 444
Width: 595
Flags: W
LayerCount: 2
Fore
SplineSet
313 644 m 128,-1,1
 287 670 287 670 287 712 c 0,2,3
 287 718 287 718 289 732 c 1,4,-1
 322 732 l 1,5,6
 321 727 321 727 321 718 c 0,7,8
 321 689 321 689 339 670.5 c 128,-1,9
 357 652 357 652 386 652 c 0,10,11
 420 652 420 652 447.5 675 c 128,-1,12
 475 698 475 698 482 732 c 1,13,-1
 515 732 l 1,14,15
 504 682 504 682 466 650 c 128,-1,16
 428 618 428 618 381 618 c 0,17,0
 339 618 339 618 313 644 c 128,-1,1
90 249 m 1,18,-1
 90 236 l 2,19,20
 90 147 90 147 144 92 c 128,-1,21
 198 37 198 37 286 37 c 0,22,23
 339 37 339 37 385 54.5 c 128,-1,24
 431 72 431 72 465 105 c 1,25,-1
 487 76 l 1,26,27
 450 41 450 41 400.5 20.5 c 128,-1,28
 351 0 351 0 295 -2 c 1,29,-1
 270 -53 l 1,30,31
 303 -55 303 -55 320 -73.5 c 128,-1,32
 337 -92 337 -92 337 -117 c 0,33,34
 337 -156 337 -156 305 -185 c 128,-1,35
 273 -214 273 -214 224 -214 c 0,36,37
 203 -214 203 -214 182.5 -208.5 c 128,-1,38
 162 -203 162 -203 149 -193 c 1,39,-1
 167 -159 l 1,40,41
 178 -167 178 -167 194 -172.5 c 128,-1,42
 210 -178 210 -178 226 -178 c 0,43,44
 259 -178 259 -178 279 -160 c 128,-1,45
 299 -142 299 -142 299 -119 c 0,46,47
 299 -102 299 -102 287 -90 c 128,-1,48
 275 -78 275 -78 253 -78 c 2,49,-1
 224 -78 l 1,50,-1
 261 -1 l 1,51,52
 198 4 198 4 150 35 c 128,-1,53
 102 66 102 66 75.5 118 c 128,-1,54
 49 170 49 170 49 235 c 0,55,56
 49 316 49 316 86.5 381.5 c 128,-1,57
 124 447 124 447 188.5 484.5 c 128,-1,58
 253 522 253 522 331 522 c 0,59,60
 398 522 398 522 448 493.5 c 128,-1,61
 498 465 498 465 524.5 413.5 c 128,-1,62
 551 362 551 362 551 294 c 0,63,64
 551 272 551 272 548 249 c 1,65,-1
 90 249 l 1,18,-1
175.5 428.5 m 128,-1,67
 111 374 111 374 94 286 c 1,68,-1
 514 286 l 1,69,70
 516 376 516 376 467 429.5 c 128,-1,71
 418 483 418 483 330 483 c 0,72,66
 240 483 240 483 175.5 428.5 c 128,-1,67
EndSplineSet
Substitution2: "<3,3> Small Caps in Latin lookup 11 subtable" uni1E1D.sc
EndChar

StartChar: uni1E9E
Encoding: 7838 7838 506
Width: 692
Flags: W
LayerCount: 2
Fore
SplineSet
651 599 m 1,0,-1
 439 391 l 1,1,2
 528 384 528 384 572.5 343 c 128,-1,3
 617 302 617 302 617 237 c 0,4,5
 617 167 617 167 579.5 113 c 128,-1,6
 542 59 542 59 477.5 29.5 c 128,-1,7
 413 0 413 0 335 0 c 2,8,-1
 251 0 l 1,9,-1
 259 41 l 1,10,-1
 343 41 l 2,11,12
 407 41 407 41 459.5 65 c 128,-1,13
 512 89 512 89 542.5 132 c 128,-1,14
 573 175 573 175 573 230 c 0,15,16
 573 286 573 286 527.5 318 c 128,-1,17
 482 350 482 350 397 350 c 2,18,-1
 383 350 l 1,19,-1
 390 392 l 1,20,-1
 617 617 l 1,21,22
 551 662 551 662 450 662 c 0,23,24
 345 662 345 662 274 607 c 128,-1,25
 203 552 203 552 183 451 c 2,26,-1
 95 0 l 1,27,-1
 53 0 l 1,28,-1
 141 451 l 2,29,30
 165 571 165 571 249 637 c 128,-1,31
 333 703 333 703 457 703 c 256,32,33
 581 703 581 703 657 639 c 1,34,-1
 651 599 l 1,0,-1
EndSplineSet
EndChar

StartChar: figuredash
Encoding: 8210 8210 603
Width: 617
Flags: W
LayerCount: 2
Fore
SplineSet
11 318 m 1,0,-1
 628 318 l 1,1,-1
 622 284 l 1,2,-1
 5 284 l 1,3,-1
 11 318 l 1,0,-1
EndSplineSet
EndChar

StartChar: endash
Encoding: 8211 8211 604
Width: 401
Flags: W
LayerCount: 2
Fore
SplineSet
412 318 m 1,0,-1
 406 284 l 1,1,-1
 5 284 l 1,2,-1
 11 318 l 1,3,-1
 412 318 l 1,0,-1
EndSplineSet
EndChar

StartChar: emdash
Encoding: 8212 8212 605
Width: 745
Flags: W
LayerCount: 2
Fore
SplineSet
756 318 m 1,0,-1
 750 284 l 1,1,-1
 5 284 l 1,2,-1
 11 318 l 1,3,-1
 756 318 l 1,0,-1
EndSplineSet
EndChar

StartChar: quoteleft
Encoding: 8216 8216 607
Width: 172
Flags: W
LayerCount: 2
Fore
SplineSet
177 623.5 m 128,-1,1
 182 615 182 615 180 604 c 0,2,3
 179 589 179 589 168 578.5 c 128,-1,4
 157 568 157 568 143 568 c 256,5,6
 129 568 129 568 120 578.5 c 128,-1,7
 111 589 111 589 112 604 c 0,8,9
 114 613 114 613 125 636 c 2,10,-1
 180 742 l 1,11,-1
 209 742 l 1,12,-1
 162 636 l 1,13,0
 172 632 172 632 177 623.5 c 128,-1,1
EndSplineSet
Substitution2: "<3,3> Small Caps in Latin lookup 11 subtable" quoteleft.sc
EndChar

StartChar: quoteright
Encoding: 8217 8217 608
Width: 173
Flags: W
LayerCount: 2
Fore
SplineSet
203 731.5 m 128,-1,1
 212 721 212 721 211 706 c 0,2,3
 209 697 209 697 198 674 c 2,4,-1
 143 568 l 1,5,-1
 114 568 l 1,6,-1
 161 674 l 1,7,8
 151 678 151 678 146 686.5 c 128,-1,9
 141 695 141 695 143 706 c 0,10,11
 144 721 144 721 155 731.5 c 128,-1,12
 166 742 166 742 180 742 c 256,13,0
 194 742 194 742 203 731.5 c 128,-1,1
EndSplineSet
Substitution2: "<3,3> Small Caps in Latin lookup 11 subtable" quoteright.sc
EndChar

StartChar: quotesinglbase
Encoding: 8218 8218 609
Width: 172
Flags: W
LayerCount: 2
Fore
SplineSet
66 53.5 m 128,-1,1
 75 43 75 43 74 28 c 0,2,3
 72 19 72 19 61 -4 c 2,4,-1
 6 -110 l 1,5,-1
 -23 -110 l 1,6,-1
 24 -4 l 1,7,8
 14 0 14 0 9 8.5 c 128,-1,9
 4 17 4 17 6 28 c 0,10,11
 7 43 7 43 18 53.5 c 128,-1,12
 29 64 29 64 43 64 c 256,13,0
 57 64 57 64 66 53.5 c 128,-1,1
EndSplineSet
EndChar

StartChar: dagger
Encoding: 8224 8224 613
Width: 492
Flags: W
LayerCount: 2
Fore
SplineSet
354 699 m 1,0,-1
 307 467 l 1,1,-1
 522 467 l 1,2,-1
 515 426 l 1,3,-1
 299 426 l 1,4,-1
 175 -193 l 1,5,-1
 135 -193 l 1,6,-1
 259 426 l 1,7,-1
 44 426 l 1,8,-1
 52 467 l 1,9,-1
 267 467 l 1,10,-1
 314 699 l 1,11,-1
 354 699 l 1,0,-1
EndSplineSet
EndChar

StartChar: daggerdbl
Encoding: 8225 8225 614
Width: 493
Flags: W
LayerCount: 2
Fore
SplineSet
515 426 m 1,0,-1
 300 426 l 1,1,-1
 237 113 l 1,2,-1
 452 113 l 1,3,-1
 444 72 l 1,4,-1
 229 72 l 1,5,-1
 176 -193 l 1,6,-1
 136 -193 l 1,7,-1
 189 72 l 1,8,-1
 -26 72 l 1,9,-1
 -18 113 l 1,10,-1
 197 113 l 1,11,-1
 260 426 l 1,12,-1
 45 426 l 1,13,-1
 53 467 l 1,14,-1
 268 467 l 1,15,-1
 315 699 l 1,16,-1
 354 699 l 1,17,-1
 307 467 l 1,18,-1
 523 467 l 1,19,-1
 515 426 l 1,0,-1
EndSplineSet
EndChar

StartChar: bullet
Encoding: 8226 8226 615
Width: 218
Flags: W
LayerCount: 2
Fore
SplineSet
148 307.5 m 128,-1,1
 163 292 163 292 163 269 c 256,2,3
 163 246 163 246 148 230.5 c 128,-1,4
 133 215 133 215 111 215 c 0,5,6
 90 215 90 215 75 231 c 128,-1,7
 60 247 60 247 60 269 c 256,8,9
 60 291 60 291 75 307 c 128,-1,10
 90 323 90 323 111 323 c 0,11,0
 133 323 133 323 148 307.5 c 128,-1,1
EndSplineSet
EndChar

StartChar: ellipsis
Encoding: 8230 8230 616
Width: 518
Flags: W
LayerCount: 2
Fore
SplineSet
69.5 54 m 128,-1,1
 78 45 78 45 78 32 c 0,2,3
 78 16 78 16 67 4 c 128,-1,4
 56 -8 56 -8 42 -8 c 256,5,6
 28 -8 28 -8 19 1.5 c 128,-1,7
 10 11 10 11 10 26 c 0,8,9
 10 42 10 42 21 52.5 c 128,-1,10
 32 63 32 63 48 63 c 0,11,0
 61 63 61 63 69.5 54 c 128,-1,1
237.5 54 m 128,-1,13
 246 45 246 45 246 32 c 0,14,15
 246 16 246 16 235 4 c 128,-1,16
 224 -8 224 -8 210 -8 c 256,17,18
 196 -8 196 -8 187 1.5 c 128,-1,19
 178 11 178 11 178 26 c 0,20,21
 178 42 178 42 189 52.5 c 128,-1,22
 200 63 200 63 216 63 c 0,23,12
 229 63 229 63 237.5 54 c 128,-1,13
406.5 54 m 128,-1,25
 415 45 415 45 415 32 c 0,26,27
 415 16 415 16 404 4 c 128,-1,28
 393 -8 393 -8 379 -8 c 256,29,30
 365 -8 365 -8 356 1.5 c 128,-1,31
 347 11 347 11 347 26 c 0,32,33
 347 42 347 42 358 52.5 c 128,-1,34
 369 63 369 63 385 63 c 0,35,24
 398 63 398 63 406.5 54 c 128,-1,25
EndSplineSet
EndChar

StartChar: minute
Encoding: 8242 8242 618
Width: 151
Flags: W
LayerCount: 2
Fore
SplineSet
152 699 m 1,0,-1
 191 699 l 1,1,-1
 117 459 l 1,2,-1
 88 459 l 1,3,-1
 152 699 l 1,0,-1
EndSplineSet
EndChar

StartChar: guilsinglleft
Encoding: 8249 8249 620
Width: 270
Flags: W
LayerCount: 2
Fore
SplineSet
231 411 m 1,0,-1
 90 248 l 1,1,-1
 167 92 l 1,2,-1
 127 92 l 1,3,-1
 48 250 l 1,4,-1
 191 411 l 1,5,-1
 231 411 l 1,0,-1
EndSplineSet
Substitution2: "<3,3> Small Caps in Latin lookup 11 subtable" guilsinglleft.sc
Substitution2: "'rtla' Right to Left Alternates lookup 0 subtable" guilsinglright
EndChar

StartChar: guilsinglright
Encoding: 8250 8250 621
Width: 272
Flags: W
LayerCount: 2
Fore
SplineSet
43 92 m 1,0,-1
 184 255 l 1,1,-1
 107 411 l 1,2,-1
 147 411 l 1,3,-1
 226 253 l 1,4,-1
 83 92 l 1,5,-1
 43 92 l 1,0,-1
EndSplineSet
Substitution2: "<3,3> Small Caps in Latin lookup 11 subtable" guilsinglright.sc
Substitution2: "'rtla' Right to Left Alternates lookup 0 subtable" guilsinglleft
EndChar

StartChar: fraction
Encoding: 8260 8260 622
Width: 124
Flags: W
LayerCount: 2
Fore
SplineSet
-180 0 m 1,0,-1
 -215 0 l 1,1,-1
 318 699 l 1,2,-1
 353 699 l 1,3,-1
 -180 0 l 1,0,-1
EndSplineSet
EndChar

StartChar: colonmonetary
Encoding: 8353 8353 640
Width: 730
Flags: W
LayerCount: 2
Fore
SplineSet
698 606 m 1,1,-1
 670 574 l 1,2,3
 630 615 630 615 575.5 637.5 c 128,-1,4
 521 660 521 660 459 660 c 0,5,6
 366 660 366 660 285 613.5 c 128,-1,7
 204 567 204 567 155.5 488.5 c 128,-1,8
 107 410 107 410 107 319 c 0,9,10
 107 242 107 242 145 178 c 128,-1,11
 183 114 183 114 249 77 c 128,-1,12
 315 40 315 40 396 40 c 0,13,14
 458 40 458 40 517 62.5 c 128,-1,15
 576 85 576 85 625 125 c 1,16,-1
 649 96 l 1,17,18
 600 55 600 55 541.5 30 c 128,-1,19
 483 5 483 5 422 0 c 1,20,-1
 382 -125 l 1,21,-1
 347 -125 l 1,22,-1
 387 -1 l 1,23,24
 349 -1 349 -1 307 9 c 1,25,-1
 264 -125 l 1,26,-1
 229 -125 l 1,27,-1
 275 18 l 1,28,29
 180 51 180 51 122.5 131.5 c 128,-1,30
 65 212 65 212 65 315 c 0,31,32
 65 407 65 407 110 488.5 c 128,-1,33
 155 570 155 570 231.5 625 c 128,-1,34
 308 680 308 680 399 695 c 1,35,-1
 438 811 l 1,36,-1
 473 811 l 1,37,-1
 436 699 l 1,38,39
 444 700 444 700 461 700 c 0,40,41
 480 700 480 700 518 696 c 1,42,-1
 556 811 l 1,43,-1
 591 811 l 1,44,-1
 550 689 l 1,45,0
 636 667 636 667 698 606 c 1,1,-1
EndSplineSet
EndChar

StartChar: franc
Encoding: 8355 8355 641
Width: 556
Flags: W
LayerCount: 2
Fore
SplineSet
626 658 m 1,0,-1
 246 658 l 1,1,-1
 186 356 l 1,2,-1
 521 356 l 1,3,-1
 514 314 l 1,4,-1
 178 314 l 1,5,-1
 150 178 l 1,6,-1
 414 178 l 1,7,-1
 408 147 l 1,8,-1
 144 147 l 1,9,-1
 114 0 l 1,10,-1
 73 0 l 1,11,-1
 102 147 l 1,12,-1
 18 147 l 1,13,-1
 24 178 l 1,14,-1
 109 178 l 1,15,-1
 213 699 l 1,16,-1
 633 699 l 1,17,-1
 626 658 l 1,0,-1
EndSplineSet
EndChar

StartChar: lira
Encoding: 8356 8356 642
Width: 535
Flags: W
LayerCount: 2
Fore
SplineSet
501.5 675.5 m 128,-1,1
 543 650 543 650 569 604 c 1,2,-1
 542 572 l 1,3,4
 520 615 520 615 485 637 c 128,-1,5
 450 659 450 659 406 659 c 0,6,7
 337 659 337 659 291 617 c 128,-1,8
 245 575 245 575 229 496 c 2,9,-1
 212 414 l 1,10,-1
 400 414 l 1,11,-1
 394 384 l 1,12,-1
 206 384 l 1,13,-1
 190 302 l 1,14,-1
 378 302 l 1,15,-1
 372 271 l 1,16,-1
 184 271 l 1,17,-1
 137 39 l 1,18,-1
 445 39 l 1,19,-1
 438 0 l 1,20,-1
 -4 0 l 1,21,-1
 4 39 l 1,22,-1
 96 39 l 1,23,-1
 142 271 l 1,24,-1
 51 271 l 1,25,-1
 56 302 l 1,26,-1
 149 302 l 1,27,-1
 165 384 l 1,28,-1
 73 384 l 1,29,-1
 79 414 l 1,30,-1
 171 414 l 1,31,-1
 188 498 l 2,32,33
 208 596 208 596 264.5 648.5 c 128,-1,34
 321 701 321 701 408 701 c 0,35,0
 460 701 460 701 501.5 675.5 c 128,-1,1
EndSplineSet
EndChar

StartChar: uni20A6
Encoding: 8358 8358 643
Width: 841
Flags: W
LayerCount: 2
Fore
SplineSet
809 384 m 1,0,-1
 721 384 l 1,1,-1
 704 302 l 1,2,-1
 792 302 l 1,3,-1
 786 271 l 1,4,-1
 698 271 l 1,5,-1
 644 0 l 1,6,-1
 595 0 l 1,7,-1
 451 271 l 1,8,-1
 183 271 l 1,9,-1
 128 0 l 1,10,-1
 87 0 l 1,11,-1
 141 271 l 1,12,-1
 54 271 l 1,13,-1
 59 302 l 1,14,-1
 147 302 l 1,15,-1
 164 384 l 1,16,-1
 76 384 l 1,17,-1
 82 414 l 1,18,-1
 170 414 l 1,19,-1
 227 699 l 1,20,-1
 276 699 l 1,21,-1
 427 414 l 1,22,-1
 685 414 l 1,23,-1
 742 699 l 1,24,-1
 784 699 l 1,25,-1
 727 414 l 1,26,-1
 814 414 l 1,27,-1
 809 384 l 1,0,-1
257 636 m 1,28,-1
 212 414 l 1,29,-1
 375 414 l 1,30,-1
 257 636 l 1,28,-1
189 302 m 1,31,-1
 435 302 l 1,32,-1
 391 384 l 1,33,-1
 206 384 l 1,34,-1
 189 302 l 1,31,-1
662 302 m 1,35,-1
 679 384 l 1,36,-1
 443 384 l 1,37,-1
 486 302 l 1,38,-1
 662 302 l 1,35,-1
614 62 m 1,39,-1
 656 271 l 1,40,-1
 503 271 l 1,41,-1
 614 62 l 1,39,-1
EndSplineSet
EndChar

StartChar: uni20A9
Encoding: 8361 8361 645
Width: 896
Flags: W
LayerCount: 2
Fore
SplineSet
960 699 m 1,0,-1
 834 414 l 1,1,-1
 923 414 l 1,2,-1
 917 384 l 1,3,-1
 821 384 l 1,4,-1
 785 302 l 1,5,-1
 873 302 l 1,6,-1
 867 271 l 1,7,-1
 771 271 l 1,8,-1
 652 0 l 1,9,-1
 612 0 l 1,10,-1
 573 271 l 1,11,-1
 360 271 l 1,12,-1
 242 0 l 1,13,-1
 202 0 l 1,14,-1
 161 271 l 1,15,-1
 63 271 l 1,16,-1
 69 302 l 1,17,-1
 156 302 l 1,18,-1
 144 384 l 1,19,-1
 46 384 l 1,20,-1
 52 414 l 1,21,-1
 139 414 l 1,22,-1
 96 699 l 1,23,-1
 140 699 l 1,24,-1
 181 414 l 1,25,-1
 384 414 l 1,26,-1
 508 699 l 1,27,-1
 553 699 l 1,28,-1
 593 414 l 1,29,-1
 794 414 l 1,30,-1
 917 699 l 1,31,-1
 960 699 l 1,0,-1
520 639 m 1,32,-1
 422 414 l 1,33,-1
 552 414 l 1,34,-1
 520 639 l 1,32,-1
186 384 m 1,35,-1
 198 302 l 1,36,-1
 336 302 l 1,37,-1
 371 384 l 1,38,-1
 186 384 l 1,35,-1
374 302 m 1,39,-1
 569 302 l 1,40,-1
 557 384 l 1,41,-1
 409 384 l 1,42,-1
 374 302 l 1,39,-1
745 302 m 1,43,-1
 781 384 l 1,44,-1
 597 384 l 1,45,-1
 609 302 l 1,46,-1
 745 302 l 1,43,-1
232 64 m 1,47,-1
 322 271 l 1,48,-1
 202 271 l 1,49,-1
 232 64 l 1,47,-1
642 64 m 1,50,-1
 732 271 l 1,51,-1
 613 271 l 1,52,-1
 642 64 l 1,50,-1
EndSplineSet
EndChar

StartChar: dong
Encoding: 8363 8363 646
Width: 678
Flags: W
LayerCount: 2
Fore
SplineSet
717 595 m 1,0,-1
 635 595 l 1,1,-1
 516 0 l 1,2,-1
 475 0 l 1,3,-1
 499 115 l 1,4,5
 461 59 461 59 402.5 28 c 128,-1,6
 344 -3 344 -3 276 -3 c 0,7,8
 209 -3 209 -3 157 26 c 128,-1,9
 105 55 105 55 76 107.5 c 128,-1,10
 47 160 47 160 47 227 c 0,11,12
 47 309 47 309 84.5 377 c 128,-1,13
 122 445 122 445 187 484.5 c 128,-1,14
 252 524 252 524 329 524 c 0,15,16
 413 524 413 524 471.5 479.5 c 128,-1,17
 530 435 530 435 547 360 c 1,18,-1
 594 595 l 1,19,-1
 424 595 l 1,20,-1
 430 626 l 1,21,-1
 600 626 l 1,22,-1
 623 742 l 1,23,-1
 664 742 l 1,24,-1
 641 626 l 1,25,-1
 723 626 l 1,26,-1
 717 595 l 1,0,-1
407.5 70 m 128,-1,28
 463 104 463 104 495.5 162 c 128,-1,29
 528 220 528 220 528 289 c 0,30,31
 528 346 528 346 503 390.5 c 128,-1,32
 478 435 478 435 433 459.5 c 128,-1,33
 388 484 388 484 330 484 c 0,34,35
 265 484 265 484 209.5 450 c 128,-1,36
 154 416 154 416 121.5 357.5 c 128,-1,37
 89 299 89 299 89 230 c 0,38,39
 89 173 89 173 114 129 c 128,-1,40
 139 85 139 85 183.5 60.5 c 128,-1,41
 228 36 228 36 286 36 c 0,42,27
 352 36 352 36 407.5 70 c 128,-1,28
72 -100 m 1,43,-1
 77 -69 l 1,44,-1
 491 -69 l 1,45,-1
 485 -100 l 1,46,-1
 72 -100 l 1,43,-1
EndSplineSet
EndChar

StartChar: Euro
Encoding: 8364 8364 647
Width: 806
Flags: W
LayerCount: 2
Fore
SplineSet
667.5 675 m 128,-1,1
 729 650 729 650 773 606 c 1,2,-1
 745 574 l 1,3,4
 705 615 705 615 650.5 637.5 c 128,-1,5
 596 660 596 660 535 660 c 0,6,7
 459 660 459 660 389.5 628 c 128,-1,8
 320 596 320 596 269.5 540 c 128,-1,9
 219 484 219 484 197 414 c 1,10,-1
 531 414 l 1,11,-1
 526 384 l 1,12,-1
 189 384 l 1,13,14
 184 364 184 364 183 344 c 0,15,16
 182 330 182 330 182 302 c 1,17,-1
 505 302 l 1,18,-1
 500 271 l 1,19,-1
 186 271 l 1,20,21
 197 205 197 205 237 152.5 c 128,-1,22
 277 100 277 100 338 70 c 128,-1,23
 399 40 399 40 471 40 c 0,24,25
 533 40 533 40 592.5 62.5 c 128,-1,26
 652 85 652 85 700 125 c 1,27,-1
 724 96 l 1,28,29
 669 50 669 50 603 24.5 c 128,-1,30
 537 -1 537 -1 468 -1 c 0,31,32
 384 -1 384 -1 313.5 34 c 128,-1,33
 243 69 243 69 198.5 131 c 128,-1,34
 154 193 154 193 143 271 c 1,35,-1
 37 271 l 1,36,-1
 43 302 l 1,37,-1
 140 302 l 1,38,39
 140 329 140 329 141 343 c 0,40,41
 143 365 143 365 147 384 c 1,42,-1
 59 384 l 1,43,-1
 65 414 l 1,44,-1
 154 414 l 1,45,46
 177 495 177 495 234 560 c 128,-1,47
 291 625 291 625 370 662.5 c 128,-1,48
 449 700 449 700 536 700 c 0,49,0
 606 700 606 700 667.5 675 c 128,-1,1
EndSplineSet
EndChar

StartChar: uni20AD
Encoding: 8365 8365 648
Width: 657
Flags: W
LayerCount: 2
Fore
SplineSet
530 335 m 1,0,-1
 217 335 l 1,1,-1
 577 0 l 1,2,-1
 520 0 l 1,3,-1
 163 335 l 1,4,-1
 161 335 l 1,5,-1
 96 0 l 1,6,-1
 54 0 l 1,7,-1
 119 335 l 1,8,-1
 31 335 l 1,9,-1
 37 366 l 1,10,-1
 125 366 l 1,11,-1
 190 699 l 1,12,-1
 232 699 l 1,13,-1
 167 366 l 1,14,-1
 169 366 l 1,15,-1
 606 699 l 1,16,-1
 662 699 l 1,17,-1
 221 366 l 1,18,-1
 536 366 l 1,19,-1
 530 335 l 1,0,-1
EndSplineSet
EndChar

StartChar: uni20B1
Encoding: 8369 8369 649
Width: 748
Flags: W
LayerCount: 2
Fore
SplineSet
699 509 m 1,0,1
 697 464 697 464 687 427 c 1,2,-1
 769 427 l 1,3,-1
 763 396 l 1,4,-1
 676 396 l 1,5,6
 643 319 643 319 565.5 276 c 128,-1,7
 488 233 488 233 377 233 c 2,8,-1
 173 233 l 1,9,-1
 126 0 l 1,10,-1
 84 0 l 1,11,-1
 163 396 l 1,12,-1
 76 396 l 1,13,-1
 81 427 l 1,14,-1
 170 427 l 1,15,-1
 186 509 l 1,16,-1
 97 509 l 1,17,-1
 103 539 l 1,18,-1
 192 539 l 1,19,-1
 224 699 l 1,20,-1
 470 699 l 2,21,22
 572 699 572 699 631 657 c 128,-1,23
 690 615 690 615 698 539 c 1,24,-1
 790 539 l 1,25,-1
 784 509 l 1,26,-1
 699 509 l 1,0,1
234 539 m 1,27,-1
 655 539 l 1,28,29
 644 596 644 596 594 627 c 128,-1,30
 544 658 544 658 461 658 c 2,31,-1
 258 658 l 1,32,-1
 234 539 l 1,27,-1
658 509 m 1,33,-1
 228 509 l 1,34,-1
 212 427 l 1,35,-1
 646 427 l 1,36,37
 658 463 658 463 658 506 c 2,38,-1
 658 509 l 1,33,-1
537.5 306 m 128,-1,40
 602 338 602 338 633 396 c 1,41,-1
 205 396 l 1,42,-1
 181 274 l 1,43,-1
 383 274 l 2,44,39
 473 274 473 274 537.5 306 c 128,-1,40
EndSplineSet
EndChar

StartChar: uni20B2
Encoding: 8370 8370 650
Width: 772
Flags: W
LayerCount: 2
Fore
SplineSet
648 343 m 1,0,-1
 687 343 l 1,1,-1
 637 90 l 1,2,3
 522 -1 522 -1 393 -1 c 0,4,5
 374 -1 374 -1 365 0 c 1,6,-1
 343 -125 l 1,7,-1
 308 -125 l 1,8,-1
 332 4 l 1,9,10
 255 17 255 17 194 61.5 c 128,-1,11
 133 106 133 106 99 172.5 c 128,-1,12
 65 239 65 239 65 317 c 0,13,14
 65 419 65 419 119.5 507 c 128,-1,15
 174 595 174 595 265 647.5 c 128,-1,16
 356 700 356 700 459 700 c 1,17,-1
 479 811 l 1,18,-1
 514 811 l 1,19,-1
 495 699 l 1,20,21
 555 693 555 693 608 669.5 c 128,-1,22
 661 646 661 646 700 608 c 1,23,-1
 673 577 l 1,24,25
 632 616 632 616 577 638 c 128,-1,26
 522 660 522 660 460 660 c 0,27,28
 367 660 367 660 285.5 613.5 c 128,-1,29
 204 567 204 567 155 488 c 128,-1,30
 106 409 106 409 106 318 c 0,31,32
 106 241 106 241 144.5 177.5 c 128,-1,33
 183 114 183 114 249.5 76.5 c 128,-1,34
 316 39 316 39 397 39 c 0,35,36
 505 39 505 39 603 111 c 1,37,-1
 648 343 l 1,0,-1
EndSplineSet
EndChar

StartChar: uni20B5
Encoding: 8373 8373 651
Width: 730
Flags: W
LayerCount: 2
Fore
SplineSet
606 669 m 128,-1,1
 658 645 658 645 698 606 c 1,2,-1
 670 574 l 1,3,4
 630 615 630 615 575.5 637.5 c 128,-1,5
 521 660 521 660 459 660 c 0,6,7
 366 660 366 660 285 613.5 c 128,-1,8
 204 567 204 567 155.5 488.5 c 128,-1,9
 107 410 107 410 107 319 c 0,10,11
 107 242 107 242 145 178 c 128,-1,12
 183 114 183 114 249 77 c 128,-1,13
 315 40 315 40 396 40 c 0,14,15
 458 40 458 40 517 62.5 c 128,-1,16
 576 85 576 85 625 125 c 1,17,-1
 649 96 l 1,18,19
 594 50 594 50 527.5 24.5 c 128,-1,20
 461 -1 461 -1 392 -1 c 0,21,22
 374 -1 374 -1 365 0 c 1,23,-1
 343 -125 l 1,24,-1
 308 -125 l 1,25,-1
 332 4 l 1,26,27
 255 17 255 17 194 61.5 c 128,-1,28
 133 106 133 106 99 172.5 c 128,-1,29
 65 239 65 239 65 317 c 0,30,31
 65 419 65 419 120 507 c 128,-1,32
 175 595 175 595 265.5 647.5 c 128,-1,33
 356 700 356 700 459 700 c 1,34,-1
 479 811 l 1,35,-1
 514 811 l 1,36,-1
 495 698 l 1,37,0
 554 693 554 693 606 669 c 128,-1,1
EndSplineSet
EndChar

StartChar: uni20B9
Encoding: 8377 8377 652
Width: 684
Flags: W
LayerCount: 2
Fore
SplineSet
697 658 m 1,0,-1
 521 658 l 1,1,2
 590 610 590 610 590 515 c 0,3,4
 590 504 590 504 588 482 c 1,5,-1
 663 482 l 1,6,-1
 657 451 l 1,7,-1
 584 451 l 1,8,9
 570 383 570 383 528 333.5 c 128,-1,10
 486 284 486 284 419 259 c 1,11,-1
 570 0 l 1,12,-1
 520 0 l 1,13,-1
 378 246 l 1,14,15
 329 233 329 233 267 233 c 2,16,-1
 46 233 l 1,17,-1
 54 274 l 1,18,-1
 275 274 l 2,19,20
 385 274 385 274 455.5 321 c 128,-1,21
 526 368 526 368 543 451 c 1,22,-1
 88 451 l 1,23,-1
 94 482 l 1,24,-1
 548 482 l 1,25,26
 549 490 549 490 549 506 c 0,27,28
 549 579 549 579 498 618.5 c 128,-1,29
 447 658 447 658 353 658 c 2,30,-1
 129 658 l 1,31,-1
 136 699 l 1,32,-1
 704 699 l 1,33,-1
 697 658 l 1,0,-1
EndSplineSet
EndChar

StartChar: uni20BA
Encoding: 8378 8378 653
Width: 698
Flags: W
LayerCount: 2
Fore
SplineSet
649 351 m 1,0,1
 616 183 616 183 504 91.5 c 128,-1,2
 392 0 392 0 220 0 c 2,3,-1
 99 0 l 1,4,-1
 172 365 l 1,5,-1
 64 336 l 1,6,-1
 71 370 l 1,7,-1
 179 398 l 1,8,-1
 196 486 l 1,9,-1
 89 458 l 1,10,-1
 95 492 l 1,11,-1
 203 520 l 1,12,-1
 239 699 l 1,13,-1
 281 699 l 1,14,-1
 247 532 l 1,15,-1
 609 627 l 1,16,-1
 603 593 l 1,17,-1
 240 498 l 1,18,-1
 223 410 l 1,19,-1
 586 506 l 1,20,-1
 579 472 l 1,21,-1
 216 376 l 1,22,-1
 148 40 l 1,23,-1
 228 40 l 2,24,25
 381 40 381 40 480.5 121 c 128,-1,26
 580 202 580 202 609 350 c 1,27,-1
 649 351 l 1,0,1
EndSplineSet
EndChar

StartChar: uni20BC
Encoding: 8380 8380 654
Width: 848
Flags: W
LayerCount: 2
Fore
SplineSet
700.5 549.5 m 128,-1,1
 766 494 766 494 766 394 c 0,2,3
 766 364 766 364 758 322 c 2,4,-1
 693 0 l 1,5,-1
 652 0 l 1,6,-1
 716 322 l 2,7,8
 723 361 723 361 723 384 c 0,9,10
 723 470 723 470 667.5 517 c 128,-1,11
 612 564 612 564 503 568 c 1,12,-1
 389 0 l 1,13,-1
 354 0 l 1,14,-1
 468 568 l 1,15,16
 345 563 345 563 262 498 c 128,-1,17
 179 433 179 433 157 322 c 2,18,-1
 93 0 l 1,19,-1
 51 0 l 1,20,-1
 115 322 l 2,21,22
 141 452 141 452 237 528 c 128,-1,23
 333 604 333 604 476 609 c 1,24,-1
 494 699 l 1,25,-1
 529 699 l 1,26,-1
 511 609 l 1,27,0
 635 605 635 605 700.5 549.5 c 128,-1,1
EndSplineSet
EndChar

StartChar: uni20BD
Encoding: 8381 8381 655
Width: 658
Flags: W
LayerCount: 2
Fore
SplineSet
140 244 m 1,0,-1
 124 164 l 1,1,-1
 388 164 l 1,2,-1
 382 134 l 1,3,-1
 118 134 l 1,4,-1
 91 0 l 1,5,-1
 49 0 l 1,6,-1
 76 134 l 1,7,-1
 -8 134 l 1,8,-1
 -2 164 l 1,9,-1
 82 164 l 1,10,-1
 189 699 l 1,11,-1
 436 699 l 2,12,13
 546 699 546 699 605 651.5 c 128,-1,14
 664 604 664 604 664 520 c 256,15,16
 664 436 664 436 626 373.5 c 128,-1,17
 588 311 588 311 515.5 277.5 c 128,-1,18
 443 244 443 244 344 244 c 2,19,-1
 140 244 l 1,0,-1
148 285 m 1,20,-1
 350 285 l 2,21,22
 478 285 478 285 550.5 345 c 128,-1,23
 623 405 623 405 623 511 c 0,24,25
 623 580 623 580 572 619 c 128,-1,26
 521 658 521 658 427 658 c 2,27,-1
 223 658 l 1,28,-1
 148 285 l 1,20,-1
EndSplineSet
EndChar

StartChar: uni2113
Encoding: 8467 8467 656
Width: 469
Flags: W
LayerCount: 2
Fore
SplineSet
407 676.5 m 128,-1,1
 432 652 432 652 432 606 c 0,2,3
 432 524 432 524 357.5 422 c 128,-1,4
 283 320 283 320 145 218 c 1,5,6
 130 160 130 160 130 119 c 0,7,8
 130 77 130 77 149 56 c 128,-1,9
 168 35 168 35 209 35 c 0,10,11
 254 35 254 35 295 59 c 128,-1,12
 336 83 336 83 381 131 c 1,13,-1
 400 110 l 1,14,15
 352 55 352 55 303 27 c 128,-1,16
 254 -1 254 -1 201 -1 c 0,17,18
 146 -1 146 -1 121.5 28.5 c 128,-1,19
 97 58 97 58 97 113 c 0,20,21
 97 145 97 145 105 190 c 1,22,-1
 41 143 l 1,23,-1
 29 168 l 1,24,-1
 113 230 l 1,25,-1
 188 538 l 2,26,27
 209 618 209 618 251 659.5 c 128,-1,28
 293 701 293 701 344 701 c 0,29,0
 382 701 382 701 407 676.5 c 128,-1,1
271.5 636.5 m 128,-1,31
 239 603 239 603 223 537 c 2,32,-1
 155 262 l 1,33,34
 272 349 272 349 336.5 441.5 c 128,-1,35
 401 534 401 534 401 603 c 0,36,37
 401 637 401 637 384.5 653.5 c 128,-1,38
 368 670 368 670 341 670 c 0,39,30
 304 670 304 670 271.5 636.5 c 128,-1,31
EndSplineSet
EndChar

StartChar: uni2116
Encoding: 8470 8470 657
Width: 1311
Flags: W
LayerCount: 2
Fore
SplineSet
1187 668 m 128,-1,1
 1227 630 1227 630 1227 570 c 0,2,3
 1227 521 1227 521 1204 482 c 128,-1,4
 1181 443 1181 443 1141.5 421.5 c 128,-1,5
 1102 400 1102 400 1054 400 c 0,6,7
 989 400 989 400 949.5 437 c 128,-1,8
 910 474 910 474 910 535 c 0,9,10
 910 584 910 584 932.5 623 c 128,-1,11
 955 662 955 662 995 684 c 128,-1,12
 1035 706 1035 706 1083 706 c 0,13,0
 1147 706 1147 706 1187 668 c 128,-1,1
685 62 m 1,14,-1
 814 699 l 1,15,-1
 855 699 l 1,16,-1
 715 0 l 1,17,-1
 666 0 l 1,18,-1
 328 637 l 1,19,-1
 200 0 l 1,20,-1
 158 0 l 1,21,-1
 298 699 l 1,22,-1
 347 699 l 1,23,-1
 685 62 l 1,14,-1
1162.5 645.5 m 128,-1,25
 1132 675 1132 675 1082 675 c 0,26,27
 1022 675 1022 675 983 635.5 c 128,-1,28
 944 596 944 596 944 535 c 0,29,30
 944 488 944 488 975 458.5 c 128,-1,31
 1006 429 1006 429 1056 429 c 0,32,33
 1115 429 1115 429 1154 468 c 128,-1,34
 1193 507 1193 507 1193 568 c 0,35,24
 1193 616 1193 616 1162.5 645.5 c 128,-1,25
918 269 m 1,36,-1
 925 304 l 1,37,-1
 1150 304 l 1,38,-1
 1144 269 l 1,39,-1
 918 269 l 1,36,-1
EndSplineSet
EndChar

StartChar: trademark
Encoding: 8482 8482 658
Width: 888
Flags: W
LayerCount: 2
Fore
SplineSet
413 699 m 1,0,-1
 406 666 l 1,1,-1
 269 666 l 1,2,-1
 181 280 l 1,3,-1
 146 280 l 1,4,-1
 235 666 l 1,5,-1
 98 666 l 1,6,-1
 105 699 l 1,7,-1
 413 699 l 1,0,-1
903 699 m 1,8,-1
 808 280 l 1,9,-1
 776 280 l 1,10,-1
 862 654 l 1,11,-1
 621 325 l 1,12,-1
 601 325 l 1,13,-1
 513 654 l 1,14,-1
 426 280 l 1,15,-1
 393 280 l 1,16,-1
 488 699 l 1,17,-1
 534 699 l 1,18,-1
 621 377 l 1,19,-1
 856 699 l 1,20,-1
 903 699 l 1,8,-1
EndSplineSet
EndChar

StartChar: estimated
Encoding: 8494 8494 660
Width: 816
Flags: W
LayerCount: 2
Fore
SplineSet
210 308 m 2,1,-1
 210 144 l 2,2,3
 210 135 210 135 218 125 c 0,4,5
 257 83 257 83 310.5 59.5 c 128,-1,6
 364 36 364 36 424 36 c 0,7,8
 487 36 487 36 543.5 62.5 c 128,-1,9
 600 89 600 89 639 135 c 1,10,-1
 688 135 l 1,11,12
 642 81 642 81 572 49.5 c 128,-1,13
 502 18 502 18 423 18 c 0,14,15
 332 18 332 18 255 58.5 c 128,-1,16
 178 99 178 99 133 168 c 128,-1,17
 88 237 88 237 88 319 c 256,18,19
 88 401 88 401 133 470.5 c 128,-1,20
 178 540 178 540 255 580.5 c 128,-1,21
 332 621 332 621 423 621 c 256,22,23
 514 621 514 621 591 580.5 c 128,-1,24
 668 540 668 540 713 470.5 c 128,-1,25
 758 401 758 401 758 319 c 2,26,-1
 758 312 l 1,27,-1
 215 312 l 2,28,0
 210 312 210 312 210 308 c 2,1,-1
627 518 m 0,30,31
 587 558 587 558 534.5 580.5 c 128,-1,32
 482 603 482 603 424 603 c 0,33,34
 365 603 365 603 312 579.5 c 128,-1,35
 259 556 259 556 219 515 c 0,36,37
 210 506 210 506 210 495 c 2,38,-1
 210 333 l 2,39,40
 210 328 210 328 215 328 c 2,41,-1
 631 328 l 2,42,43
 636 328 636 328 636 333 c 2,44,-1
 636 498 l 2,45,29
 636 509 636 509 627 518 c 0,30,31
EndSplineSet
EndChar

StartChar: arrowleft
Encoding: 8592 8592 667
Width: 600
Flags: W
LayerCount: 2
Fore
SplineSet
518 290 m 1,0,-1
 512 253 l 1,1,-1
 176 253 l 1,2,-1
 257 87 l 1,3,-1
 213 87 l 1,4,-1
 121 271 l 1,5,-1
 285 457 l 1,6,-1
 329 457 l 1,7,-1
 184 290 l 1,8,-1
 518 290 l 1,0,-1
EndSplineSet
EndChar

StartChar: arrowup
Encoding: 8593 8593 668
Width: 600
Flags: W
LayerCount: 2
Fore
SplineSet
500 344 m 1,0,-1
 492 298 l 1,1,-1
 348 411 l 1,2,-1
 282 77 l 1,3,-1
 245 77 l 1,4,-1
 310 411 l 1,5,-1
 124 298 l 1,6,-1
 132 344 l 1,7,-1
 340 473 l 1,8,-1
 500 344 l 1,0,-1
EndSplineSet
EndChar

StartChar: arrowright
Encoding: 8594 8594 669
Width: 600
Flags: W
LayerCount: 2
Fore
SplineSet
396 457 m 1,0,-1
 488 273 l 1,1,-1
 324 87 l 1,2,-1
 280 87 l 1,3,-1
 425 254 l 1,4,-1
 91 254 l 1,5,-1
 97 291 l 1,6,-1
 433 291 l 1,7,-1
 352 457 l 1,8,-1
 396 457 l 1,0,-1
EndSplineSet
EndChar

StartChar: arrowdown
Encoding: 8595 8595 670
Width: 600
Flags: W
LayerCount: 2
Fore
SplineSet
294 133 m 1,0,-1
 480 246 l 1,1,-1
 472 200 l 1,2,-1
 264 71 l 1,3,-1
 104 200 l 1,4,-1
 112 246 l 1,5,-1
 256 133 l 1,6,-1
 322 467 l 1,7,-1
 359 467 l 1,8,-1
 294 133 l 1,0,-1
EndSplineSet
EndChar

StartChar: arrowboth
Encoding: 8596 8596 671
Width: 627
Flags: W
LayerCount: 2
Fore
SplineSet
484 457 m 1,0,-1
 577 271 l 1,1,-1
 413 87 l 1,2,-1
 369 87 l 1,3,-1
 514 253 l 1,4,-1
 105 253 l 1,5,-1
 187 87 l 1,6,-1
 143 87 l 1,7,-1
 50 271 l 1,8,-1
 215 457 l 1,9,-1
 259 457 l 1,10,-1
 113 290 l 1,11,-1
 521 290 l 1,12,-1
 440 457 l 1,13,-1
 484 457 l 1,0,-1
EndSplineSet
EndChar

StartChar: arrowupdn
Encoding: 8597 8597 672
Width: 655
Flags: W
LayerCount: 2
Fore
SplineSet
531 441 m 1,0,-1
 386 554 l 1,1,-1
 304 132 l 1,2,-1
 491 246 l 1,3,-1
 482 200 l 1,4,-1
 276 71 l 1,5,-1
 114 200 l 1,6,-1
 123 246 l 1,7,-1
 267 133 l 1,8,-1
 350 555 l 1,9,-1
 163 441 l 1,10,-1
 171 487 l 1,11,-1
 379 616 l 1,12,-1
 539 487 l 1,13,-1
 531 441 l 1,0,-1
EndSplineSet
EndChar

StartChar: uni2196
Encoding: 8598 8598 673
Width: 604
Flags: W
LayerCount: 2
Fore
SplineSet
469 428 m 1,0,-1
 266 390 l 1,1,-1
 456 154 l 1,2,-1
 425 126 l 1,3,-1
 233 363 l 1,4,-1
 159 166 l 1,5,-1
 134 198 l 1,6,-1
 215 420 l 1,7,-1
 445 460 l 1,8,-1
 469 428 l 1,0,-1
EndSplineSet
EndChar

StartChar: uni2197
Encoding: 8599 8599 674
Width: 612
Flags: W
LayerCount: 2
Fore
SplineSet
279 454 m 1,0,-1
 492 416 l 1,1,-1
 489 192 l 1,2,-1
 453 160 l 1,3,-1
 453 357 l 1,4,-1
 169 120 l 1,5,-1
 148 149 l 1,6,-1
 431 385 l 1,7,-1
 243 422 l 1,8,-1
 279 454 l 1,0,-1
EndSplineSet
EndChar

StartChar: uni2198
Encoding: 8600 8600 675
Width: 604
Flags: W
LayerCount: 2
Fore
SplineSet
459 398 m 1,0,-1
 484 366 l 1,1,-1
 403 144 l 1,2,-1
 173 104 l 1,3,-1
 149 136 l 1,4,-1
 352 174 l 1,5,-1
 162 410 l 1,6,-1
 193 438 l 1,7,-1
 385 201 l 1,8,-1
 459 398 l 1,0,-1
EndSplineSet
EndChar

StartChar: uni2199
Encoding: 8601 8601 676
Width: 612
Flags: W
LayerCount: 2
Fore
SplineSet
477 415 m 1,0,-1
 194 179 l 1,1,-1
 382 142 l 1,2,-1
 347 110 l 1,3,-1
 134 149 l 1,4,-1
 137 372 l 1,5,-1
 173 404 l 1,6,-1
 173 207 l 1,7,-1
 457 444 l 1,8,-1
 477 415 l 1,0,-1
EndSplineSet
EndChar

StartChar: partialdiff
Encoding: 8706 8706 677
Width: 599
Flags: W
LayerCount: 2
Fore
SplineSet
104.5 51 m 128,-1,1
 50 103 50 103 50 193 c 0,2,3
 50 267 50 267 80 323.5 c 128,-1,4
 110 380 110 380 165 411 c 128,-1,5
 220 442 220 442 293 442 c 0,6,7
 382 442 382 442 437 396 c 128,-1,8
 492 350 492 350 500 270 c 1,9,10
 515 341 515 341 515 404 c 0,11,12
 515 527 515 527 462 594 c 128,-1,13
 409 661 409 661 311 661 c 0,14,15
 271 661 271 661 225 647 c 128,-1,16
 179 633 179 633 138 609 c 1,17,-1
 123 644 l 1,18,19
 171 671 171 671 222.5 686 c 128,-1,20
 274 701 274 701 318 701 c 0,21,22
 391 701 391 701 445 664.5 c 128,-1,23
 499 628 499 628 527.5 559.5 c 128,-1,24
 556 491 556 491 556 398 c 0,25,26
 556 277 556 277 519 186.5 c 128,-1,27
 482 96 482 96 414 47.5 c 128,-1,28
 346 -1 346 -1 254 -1 c 0,29,0
 159 -1 159 -1 104.5 51 c 128,-1,1
371 66 m 128,-1,31
 421 93 421 93 450 138.5 c 128,-1,32
 479 184 479 184 479 238 c 0,33,34
 479 286 479 286 455.5 324 c 128,-1,35
 432 362 432 362 390 383 c 128,-1,36
 348 404 348 404 294 404 c 0,37,38
 234 404 234 404 188 379 c 128,-1,39
 142 354 142 354 116.5 308 c 128,-1,40
 91 262 91 262 91 202 c 0,41,42
 91 127 91 127 137.5 83 c 128,-1,43
 184 39 184 39 263 39 c 0,44,30
 321 39 321 39 371 66 c 128,-1,31
EndSplineSet
EndChar

StartChar: emptyset
Encoding: 8709 8709 678
Width: 525
Flags: W
LayerCount: 2
Fore
SplineSet
443 445 m 1,0,1
 474 402 474 402 474 344 c 0,2,3
 474 287 474 287 443.5 236 c 128,-1,4
 413 185 413 185 362 154.5 c 128,-1,5
 311 124 311 124 254 124 c 0,6,7
 217 124 217 124 184 137.5 c 128,-1,8
 151 151 151 151 126 176 c 1,9,-1
 38 102 l 1,10,-1
 21 123 l 1,11,-1
 109 197 l 1,12,13
 77 243 77 243 77 299 c 0,14,15
 77 356 77 356 107.5 407 c 128,-1,16
 138 458 138 458 189 488.5 c 128,-1,17
 240 519 240 519 297 519 c 0,18,19
 335 519 335 519 368.5 504.5 c 128,-1,20
 402 490 402 490 427 465 c 1,21,-1
 512 537 l 1,22,-1
 528 517 l 1,23,-1
 443 445 l 1,0,1
137 221 m 1,25,-1
 398 441 l 1,26,27
 378 461 378 461 351 472 c 128,-1,28
 324 483 324 483 292 483 c 0,29,30
 244 483 244 483 202.5 458 c 128,-1,31
 161 433 161 433 136 391.5 c 128,-1,32
 111 350 111 350 111 304 c 0,33,24
 111 256 111 256 137 221 c 1,25,-1
415 421 m 1,35,-1
 154 200 l 1,36,37
 174 181 174 181 201 170 c 128,-1,38
 228 159 228 159 259 159 c 0,39,40
 307 159 307 159 349 184 c 128,-1,41
 391 209 391 209 416 250.5 c 128,-1,42
 441 292 441 292 441 338 c 0,43,34
 441 386 441 386 415 421 c 1,35,-1
EndSplineSet
EndChar

StartChar: uni2206
Encoding: 8710 8710 679
Width: 679
Flags: W
LayerCount: 2
Fore
SplineSet
431 699 m 1,0,-1
 624 32 l 1,1,-1
 619 0 l 1,2,-1
 -43 0 l 1,3,-1
 -38 32 l 1,4,-1
 387 699 l 1,5,-1
 431 699 l 1,0,-1
402 653 m 1,6,-1
 12 40 l 1,7,-1
 577 40 l 1,8,-1
 402 653 l 1,6,-1
EndSplineSet
EndChar

StartChar: product
Encoding: 8719 8719 680
Width: 761
Flags: W
LayerCount: 2
Fore
SplineSet
738 742 m 1,0,-1
 550 -194 l 1,1,-1
 509 -194 l 1,2,-1
 689 703 l 1,3,-1
 251 703 l 1,4,-1
 71 -194 l 1,5,-1
 30 -194 l 1,6,-1
 218 742 l 1,7,-1
 738 742 l 1,0,-1
EndSplineSet
EndChar

StartChar: summation
Encoding: 8721 8721 681
Width: 605
Flags: W
LayerCount: 2
Fore
SplineSet
691 742 m 1,0,-1
 684 701 l 1,1,-1
 180 701 l 1,2,-1
 431 311 l 1,3,-1
 17 -97 l 1,4,-1
 533 -97 l 1,5,-1
 525 -138 l 1,6,-1
 -41 -138 l 1,7,-1
 -33 -97 l 1,8,-1
 383 311 l 1,9,-1
 132 701 l 1,10,-1
 139 742 l 1,11,-1
 691 742 l 1,0,-1
EndSplineSet
EndChar

StartChar: minus
Encoding: 8722 8722 682
Width: 484
Flags: W
LayerCount: 2
Fore
SplineSet
460 339 m 1,0,-1
 454 304 l 1,1,-1
 48 304 l 1,2,-1
 54 339 l 1,3,-1
 460 339 l 1,0,-1
EndSplineSet
EndChar

StartChar: uni2219
Encoding: 8729 8729 684
Width: 216
Flags: W
LayerCount: 2
Fore
SplineSet
150.5 311 m 128,-1,1
 162 299 162 299 162 280 c 0,2,3
 162 254 162 254 143 234.5 c 128,-1,4
 124 215 124 215 99 215 c 0,5,6
 80 215 80 215 68.5 227.5 c 128,-1,7
 57 240 57 240 57 259 c 0,8,9
 57 284 57 284 76 303.5 c 128,-1,10
 95 323 95 323 120 323 c 0,11,0
 139 323 139 323 150.5 311 c 128,-1,1
EndSplineSet
EndChar

StartChar: radical
Encoding: 8730 8730 685
Width: 664
Flags: W
LayerCount: 2
Fore
SplineSet
46 385 m 1,0,-1
 194 385 l 1,1,-1
 260 -98 l 1,2,-1
 701 755 l 1,3,-1
 743 755 l 1,4,-1
 274 -148 l 1,5,-1
 229 -148 l 1,6,-1
 160 346 l 1,7,-1
 39 346 l 1,8,-1
 46 385 l 1,0,-1
EndSplineSet
EndChar

StartChar: infinity
Encoding: 8734 8734 686
Width: 904
Flags: W
LayerCount: 2
Fore
SplineSet
820 442.5 m 128,-1,1
 865 397 865 397 865 326 c 0,2,3
 865 270 865 270 838.5 223.5 c 128,-1,4
 812 177 812 177 767 150 c 128,-1,5
 722 123 722 123 668 123 c 0,6,7
 610 123 610 123 571 143 c 128,-1,8
 532 163 532 163 508 194.5 c 128,-1,9
 484 226 484 226 460 273 c 1,10,11
 426 226 426 226 396 194.5 c 128,-1,12
 366 163 366 163 323 143 c 128,-1,13
 280 123 280 123 222 123 c 0,14,15
 150 123 150 123 104 169 c 128,-1,16
 58 215 58 215 58 286 c 0,17,18
 58 340 58 340 85 386.5 c 128,-1,19
 112 433 112 433 158 460 c 128,-1,20
 204 487 204 487 258 487 c 0,21,22
 316 487 316 487 354.5 467 c 128,-1,23
 393 447 393 447 417 415.5 c 128,-1,24
 441 384 441 384 464 337 c 1,25,26
 497 384 497 384 528 416 c 128,-1,27
 559 448 559 448 602 468 c 128,-1,28
 645 488 645 488 703 488 c 0,29,0
 775 488 775 488 820 442.5 c 128,-1,1
750.5 181 m 128,-1,31
 788 203 788 203 810 241.5 c 128,-1,32
 832 280 832 280 832 326 c 0,33,34
 832 381 832 381 795.5 416.5 c 128,-1,35
 759 452 759 452 702 452 c 0,36,37
 649 452 649 452 609.5 432 c 128,-1,38
 570 412 570 412 542 381.5 c 128,-1,39
 514 351 514 351 481 304 c 1,40,41
 504 257 504 257 525.5 227.5 c 128,-1,42
 547 198 547 198 581.5 178.5 c 128,-1,43
 616 159 616 159 668 159 c 0,44,30
 713 159 713 159 750.5 181 c 128,-1,31
313.5 179 m 128,-1,46
 353 199 353 199 381 229 c 128,-1,47
 409 259 409 259 443 307 c 1,48,49
 420 353 420 353 398.5 383 c 128,-1,50
 377 413 377 413 342 432 c 128,-1,51
 307 451 307 451 255 451 c 0,52,53
 210 451 210 451 172.5 429 c 128,-1,54
 135 407 135 407 113 369 c 128,-1,55
 91 331 91 331 91 286 c 0,56,57
 91 230 91 230 127.5 194.5 c 128,-1,58
 164 159 164 159 222 159 c 0,59,45
 274 159 274 159 313.5 179 c 128,-1,46
EndSplineSet
EndChar

StartChar: integral
Encoding: 8747 8747 687
Width: 195
Flags: W
LayerCount: 2
Fore
SplineSet
245 792 m 0,1,2
 206 792 206 792 185.5 759.5 c 128,-1,3
 165 727 165 727 157 651 c 0,4,5
 147 547 147 547 137 378 c 0,6,7
 124 169 124 169 113 62 c 0,8,9
 102 -34 102 -34 75.5 -74 c 128,-1,10
 49 -114 49 -114 -6 -114 c 0,11,12
 -23 -114 -23 -114 -36.5 -110.5 c 128,-1,13
 -50 -107 -50 -107 -66 -98 c 1,14,-1
 -53 -66 l 1,15,16
 -32 -78 -32 -78 -9 -78 c 0,17,18
 31 -78 31 -78 50.5 -45.5 c 128,-1,19
 70 -13 70 -13 78 64 c 0,20,21
 87 148 87 148 101 368 c 0,22,23
 115 576 115 576 123 653 c 0,24,25
 133 747 133 747 160.5 788 c 128,-1,26
 188 829 188 829 242 829 c 0,27,28
 257 829 257 829 269.5 825.5 c 128,-1,29
 282 822 282 822 299 814 c 1,30,-1
 286 781 l 1,31,0
 268 792 268 792 245 792 c 0,1,2
EndSplineSet
EndChar

StartChar: approxequal
Encoding: 8776 8776 688
Width: 485
Flags: W
LayerCount: 2
Fore
SplineSet
236.5 476.5 m 128,-1,1
 256 467 256 467 281 450 c 0,2,3
 304 435 304 435 320.5 427 c 128,-1,4
 337 419 337 419 353 419 c 0,5,6
 376 419 376 419 393.5 434.5 c 128,-1,7
 411 450 411 450 416 476 c 1,8,-1
 449 476 l 1,9,10
 440 431 440 431 415.5 406 c 128,-1,11
 391 381 391 381 355 381 c 0,12,13
 331 381 331 381 311 390.5 c 128,-1,14
 291 400 291 400 265 418 c 0,15,16
 245 433 245 433 229.5 440.5 c 128,-1,17
 214 448 214 448 198 448 c 0,18,19
 176 448 176 448 160.5 433 c 128,-1,20
 145 418 145 418 139 391 c 1,21,-1
 106 391 l 1,22,23
 115 437 115 437 138 461.5 c 128,-1,24
 161 486 161 486 196 486 c 0,25,0
 217 486 217 486 236.5 476.5 c 128,-1,1
196.5 270.5 m 128,-1,27
 216 261 216 261 241 244 c 0,28,29
 264 228 264 228 280 220.5 c 128,-1,30
 296 213 296 213 312 213 c 0,31,32
 335 213 335 213 352 228.5 c 128,-1,33
 369 244 369 244 375 271 c 1,34,-1
 408 271 l 1,35,36
 399 225 399 225 374.5 200.5 c 128,-1,37
 350 176 350 176 314 176 c 0,38,39
 290 176 290 176 271.5 185 c 128,-1,40
 253 194 253 194 225 212 c 0,41,42
 205 226 205 226 189 234 c 128,-1,43
 173 242 173 242 157 242 c 0,44,45
 135 242 135 242 119.5 227 c 128,-1,46
 104 212 104 212 98 185 c 1,47,-1
 65 185 l 1,48,49
 74 231 74 231 97 255.5 c 128,-1,50
 120 280 120 280 155 280 c 0,51,26
 177 280 177 280 196.5 270.5 c 128,-1,27
EndSplineSet
EndChar

StartChar: notequal
Encoding: 8800 8800 689
Width: 484
Flags: W
LayerCount: 2
Fore
SplineSet
474 405 m 1,0,-1
 300 405 l 1,1,-1
 230 237 l 1,2,-1
 440 237 l 1,3,-1
 434 203 l 1,4,-1
 216 203 l 1,5,-1
 149 44 l 1,6,-1
 115 44 l 1,7,-1
 181 203 l 1,8,-1
 28 203 l 1,9,-1
 34 237 l 1,10,-1
 196 237 l 1,11,-1
 266 405 l 1,12,-1
 68 405 l 1,13,-1
 74 440 l 1,14,-1
 280 440 l 1,15,-1
 344 593 l 1,16,-1
 379 593 l 1,17,-1
 315 440 l 1,18,-1
 481 440 l 1,19,-1
 474 405 l 1,0,-1
EndSplineSet
EndChar

StartChar: lessequal
Encoding: 8804 8804 690
Width: 487
Flags: W
LayerCount: 2
Fore
SplineSet
510 588 m 1,0,-1
 504 547 l 1,1,-1
 96 379 l 1,2,-1
 435 210 l 1,3,-1
 429 173 l 1,4,-1
 60 358 l 1,5,-1
 67 403 l 1,6,-1
 510 588 l 1,0,-1
410 82 m 1,7,-1
 404 47 l 1,8,-1
 -2 47 l 1,9,-1
 4 82 l 1,10,-1
 410 82 l 1,7,-1
EndSplineSet
EndChar

StartChar: greaterequal
Encoding: 8805 8805 691
Width: 539
Flags: W
LayerCount: 2
Fore
SplineSet
25 174 m 1,0,-1
 31 215 l 1,1,-1
 439 383 l 1,2,-1
 100 552 l 1,3,-1
 106 589 l 1,4,-1
 475 404 l 1,5,-1
 468 359 l 1,6,-1
 25 174 l 1,0,-1
462 82 m 1,7,-1
 456 47 l 1,8,-1
 50 47 l 1,9,-1
 56 82 l 1,10,-1
 462 82 l 1,7,-1
EndSplineSet
EndChar

StartChar: filledbox
Encoding: 9632 9632 692
Width: 600
Flags: W
LayerCount: 2
Fore
SplineSet
114 459 m 1,0,-1
 502 459 l 1,1,-1
 486 71 l 1,2,-1
 98 71 l 1,3,-1
 114 459 l 1,0,-1
EndSplineSet
EndChar

StartChar: uni25A1
Encoding: 9633 9633 693
Width: 600
Flags: W
LayerCount: 2
Fore
SplineSet
144 459 m 1,0,-1
 532 459 l 1,1,-1
 456 71 l 1,2,-1
 68 71 l 1,3,-1
 144 459 l 1,0,-1
170 425 m 1,4,-1
 106 105 l 1,5,-1
 430 105 l 1,6,-1
 494 425 l 1,7,-1
 170 425 l 1,4,-1
EndSplineSet
EndChar

StartChar: triagup
Encoding: 9650 9650 694
Width: 600
Flags: W
LayerCount: 2
Fore
SplineSet
341 478 m 1,0,-1
 472 52 l 1,1,-1
 46 52 l 1,2,-1
 341 478 l 1,0,-1
EndSplineSet
EndChar

StartChar: uni25B3
Encoding: 9651 9651 695
Width: 600
Flags: W
LayerCount: 2
Fore
SplineSet
341 478 m 1,0,-1
 472 52 l 1,1,-1
 46 52 l 1,2,-1
 341 478 l 1,0,-1
328 403 m 1,3,-1
 101 85 l 1,4,-1
 427 85 l 1,5,-1
 328 403 l 1,3,-1
EndSplineSet
EndChar

StartChar: uni25B6
Encoding: 9654 9654 696
Width: 600
Flags: W
LayerCount: 2
Fore
SplineSet
541 266 m 1,0,-1
 74 53 l 1,1,-1
 156 479 l 1,2,-1
 541 266 l 1,0,-1
EndSplineSet
EndChar

StartChar: uni25B7
Encoding: 9655 9655 697
Width: 600
Flags: W
LayerCount: 2
Fore
SplineSet
541 266 m 1,0,-1
 74 53 l 1,1,-1
 156 479 l 1,2,-1
 541 266 l 1,0,-1
471 266 m 1,3,-1
 178 425 l 1,4,-1
 115 107 l 1,5,-1
 471 266 l 1,3,-1
EndSplineSet
EndChar

StartChar: triagdn
Encoding: 9660 9660 698
Width: 600
Flags: W
LayerCount: 2
Fore
SplineSet
259 52 m 1,0,-1
 128 478 l 1,1,-1
 554 478 l 1,2,-1
 259 52 l 1,0,-1
EndSplineSet
EndChar

StartChar: uni25BD
Encoding: 9661 9661 699
Width: 600
Flags: W
LayerCount: 2
Fore
SplineSet
259 52 m 1,0,-1
 128 478 l 1,1,-1
 554 478 l 1,2,-1
 259 52 l 1,0,-1
272 127 m 1,3,-1
 499 445 l 1,4,-1
 173 445 l 1,5,-1
 272 127 l 1,3,-1
EndSplineSet
EndChar

StartChar: uni25C0
Encoding: 9664 9664 700
Width: 602
Flags: W
LayerCount: 2
Fore
SplineSet
58 265 m 1,0,-1
 525 478 l 1,1,-1
 443 52 l 1,2,-1
 58 265 l 1,0,-1
EndSplineSet
EndChar

StartChar: uni25C1
Encoding: 9665 9665 701
Width: 600
Flags: W
LayerCount: 2
Fore
SplineSet
58 265 m 1,0,-1
 525 478 l 1,1,-1
 443 52 l 1,2,-1
 58 265 l 1,0,-1
128 265 m 1,3,-1
 421 106 l 1,4,-1
 484 424 l 1,5,-1
 128 265 l 1,3,-1
EndSplineSet
EndChar

StartChar: uni25C6
Encoding: 9670 9670 702
Width: 600
Flags: W
LayerCount: 2
Fore
SplineSet
353 540 m 1,0,-1
 574 265 l 1,1,-1
 246 -9 l 1,2,-1
 25 265 l 1,3,-1
 353 540 l 1,0,-1
EndSplineSet
EndChar

StartChar: uni25C7
Encoding: 9671 9671 703
Width: 600
Flags: W
LayerCount: 2
Fore
SplineSet
353 540 m 1,0,-1
 574 265 l 1,1,-1
 246 -9 l 1,2,-1
 25 265 l 1,3,-1
 353 540 l 1,0,-1
344 491 m 1,4,-1
 70 265 l 1,5,-1
 255 40 l 1,6,-1
 529 265 l 1,7,-1
 344 491 l 1,4,-1
EndSplineSet
EndChar

StartChar: lozenge
Encoding: 9674 9674 704
Width: 507
Flags: W
LayerCount: 2
Fore
SplineSet
327 637 m 1,0,-1
 473 330 l 1,1,-1
 207 20 l 1,2,-1
 62 330 l 1,3,-1
 327 637 l 1,0,-1
318 570 m 1,4,-1
 104 330 l 1,5,-1
 216 89 l 1,6,-1
 431 330 l 1,7,-1
 318 570 l 1,4,-1
EndSplineSet
EndChar

StartChar: uniA78B
Encoding: 42891 42891 705
Width: 223
Flags: W
LayerCount: 2
Fore
SplineSet
168 699 m 1,0,-1
 209 699 l 1,1,-1
 128 299 l 1,2,-1
 89 299 l 1,3,-1
 168 699 l 1,0,-1
EndSplineSet
EndChar

StartChar: uniA78C
Encoding: 42892 42892 706
Width: 222
Flags: W
LayerCount: 2
Fore
SplineSet
156 641 m 1,0,-1
 197 641 l 1,1,-1
 127 299 l 1,2,-1
 89 299 l 1,3,-1
 156 641 l 1,0,-1
EndSplineSet
Substitution2: "<3,3> Small Caps in Latin lookup 11 subtable" uniA78C.sc
EndChar

StartChar: fl
Encoding: 64258 64258 708
Width: 566
Flags: W
LayerCount: 2
Fore
SplineSet
360 472 m 1,0,-1
 199 472 l 1,1,-1
 104 0 l 1,2,-1
 63 0 l 1,3,-1
 158 472 l 1,4,-1
 92 472 l 1,5,-1
 98 508 l 1,6,-1
 165 508 l 1,7,-1
 179 578 l 2,8,9
 188 625 188 625 215 662.5 c 128,-1,10
 242 700 242 700 280.5 721.5 c 128,-1,11
 319 743 319 743 361 743 c 0,12,13
 386 743 386 743 409 736 c 128,-1,14
 432 729 432 729 445 719 c 1,15,-1
 436 678 l 1,16,17
 415 691 415 691 397.5 697 c 128,-1,18
 380 703 380 703 360 703 c 0,19,20
 311 703 311 703 270.5 667 c 128,-1,21
 230 631 230 631 220 577 c 2,22,-1
 206 508 l 1,23,-1
 367 508 l 1,24,-1
 360 472 l 1,0,-1
511 742 m 1,25,-1
 552 742 l 1,26,-1
 404 0 l 1,27,-1
 363 0 l 1,28,-1
 511 742 l 1,25,-1
EndSplineSet
Ligature2: "<1,2> Common Ligatures in Latin lookup 13 subtable" f l
EndChar

StartChar: Adieresis.alt
Encoding: 65540 -1 711
Width: 698
Flags: W
LayerCount: 2
Fore
SplineSet
229.5 640.5 m 128,-1,1
 222 649 222 649 222 661 c 0,2,3
 222 678 222 678 234.5 690 c 128,-1,4
 247 702 247 702 263 702 c 0,5,6
 275 702 275 702 282.5 693.5 c 128,-1,7
 290 685 290 685 290 673 c 0,8,9
 290 657 290 657 277.5 644.5 c 128,-1,10
 265 632 265 632 249 632 c 0,11,0
 237 632 237 632 229.5 640.5 c 128,-1,1
527 640.5 m 128,-1,13
 519 649 519 649 519 661 c 0,14,15
 519 678 519 678 531.5 690 c 128,-1,16
 544 702 544 702 561 702 c 0,17,18
 573 702 573 702 580.5 693.5 c 128,-1,19
 588 685 588 685 588 673 c 0,20,21
 588 657 588 657 575.5 644.5 c 128,-1,22
 563 632 563 632 547 632 c 0,23,12
 535 632 535 632 527 640.5 c 128,-1,13
591 0 m 1,24,-1
 534 199 l 1,25,-1
 124 199 l 1,26,-1
 2 0 l 1,27,-1
 -44 0 l 1,28,-1
 389 699 l 1,29,-1
 433 699 l 1,30,-1
 637 0 l 1,31,-1
 591 0 l 1,24,-1
150 241 m 1,32,-1
 522 241 l 1,33,-1
 403 654 l 1,34,-1
 150 241 l 1,32,-1
EndSplineSet
EndChar

StartChar: Udieresis.alt
Encoding: 65541 -1 712
Width: 772
Flags: W
LayerCount: 2
Fore
SplineSet
402.5 693.5 m 128,-1,1
 410 685 410 685 410 673 c 0,2,3
 410 657 410 657 397.5 644.5 c 128,-1,4
 385 632 385 632 369 632 c 0,5,6
 357 632 357 632 349 640.5 c 128,-1,7
 341 649 341 649 341 661 c 0,8,9
 341 678 341 678 353.5 690 c 128,-1,10
 366 702 366 702 383 702 c 0,11,0
 395 702 395 702 402.5 693.5 c 128,-1,1
585.5 693.5 m 128,-1,13
 593 685 593 685 593 673 c 0,14,15
 593 657 593 657 580.5 644.5 c 128,-1,16
 568 632 568 632 552 632 c 0,17,18
 540 632 540 632 532 640.5 c 128,-1,19
 524 649 524 649 524 661 c 0,20,21
 524 678 524 678 536.5 690 c 128,-1,22
 549 702 549 702 566 702 c 0,23,12
 578 702 578 702 585.5 693.5 c 128,-1,13
674 286 m 2,24,25
 647 148 647 148 562 73.5 c 128,-1,26
 477 -1 477 -1 344 -1 c 0,27,28
 229 -1 229 -1 164.5 55 c 128,-1,29
 100 111 100 111 100 213 c 0,30,31
 100 244 100 244 108 286 c 2,32,-1
 191 699 l 1,33,-1
 232 699 l 1,34,-1
 150 286 l 2,35,36
 143 254 143 254 143 221 c 0,37,38
 143 134 143 134 197 87 c 128,-1,39
 251 40 251 40 349 40 c 0,40,41
 462 40 462 40 535 104 c 128,-1,42
 608 168 608 168 632 286 c 2,43,-1
 715 699 l 1,44,-1
 757 699 l 1,45,-1
 674 286 l 2,24,25
EndSplineSet
EndChar

StartChar: Udieresis.ss01.alt
Encoding: 65542 -1 713
Width: 787
Flags: W
LayerCount: 2
Fore
SplineSet
402.5 693.5 m 128,-1,1
 410 685 410 685 410 673 c 0,2,3
 410 657 410 657 397.5 644.5 c 128,-1,4
 385 632 385 632 369 632 c 0,5,6
 357 632 357 632 349 640.5 c 128,-1,7
 341 649 341 649 341 661 c 0,8,9
 341 678 341 678 353.5 690 c 128,-1,10
 366 702 366 702 383 702 c 0,11,0
 395 702 395 702 402.5 693.5 c 128,-1,1
585.5 693.5 m 128,-1,13
 593 685 593 685 593 673 c 0,14,15
 593 657 593 657 580.5 644.5 c 128,-1,16
 568 632 568 632 552 632 c 0,17,18
 540 632 540 632 532 640.5 c 128,-1,19
 524 649 524 649 524 661 c 0,20,21
 524 678 524 678 536.5 690 c 128,-1,22
 549 702 549 702 566 702 c 0,23,12
 578 702 578 702 585.5 693.5 c 128,-1,13
150.5 54.5 m 128,-1,25
 95 109 95 109 95 198 c 0,26,27
 95 225 95 225 101 255 c 2,28,-1
 190 699 l 1,29,-1
 232 699 l 1,30,-1
 145 261 l 2,31,32
 140 240 140 240 140 211 c 0,33,34
 140 136 140 136 188 89.5 c 128,-1,35
 236 43 236 43 316 43 c 0,36,37
 388 43 388 43 452.5 72.5 c 128,-1,38
 517 102 517 102 562.5 153.5 c 128,-1,39
 608 205 608 205 626 268 c 1,40,-1
 713 699 l 1,41,-1
 755 699 l 1,42,-1
 615 0 l 1,43,-1
 573 0 l 1,44,-1
 605 159 l 1,45,46
 558 87 558 87 476 43.5 c 128,-1,47
 394 0 394 0 299 0 c 0,48,24
 206 0 206 0 150.5 54.5 c 128,-1,25
EndSplineSet
EndChar

StartChar: A.ss01
Encoding: 65543 -1 714
Width: 773
Flags: W
LayerCount: 2
Fore
SplineSet
645.5 644.5 m 128,-1,1
 707 589 707 589 707 488 c 0,2,3
 707 456 707 456 699 413 c 2,4,-1
 618 0 l 1,5,-1
 577 0 l 1,6,-1
 619 216 l 1,7,-1
 137 216 l 1,8,-1
 95 0 l 1,9,-1
 53 0 l 1,10,-1
 133 413 l 2,11,12
 159 548 159 548 248.5 624 c 128,-1,13
 338 700 338 700 471 700 c 0,14,0
 584 700 584 700 645.5 644.5 c 128,-1,1
664 478 m 0,16,17
 664 565 664 565 612 612 c 128,-1,18
 560 659 560 659 464 659 c 0,19,20
 351 659 351 659 274.5 594 c 128,-1,21
 198 529 198 529 175 413 c 2,22,-1
 145 257 l 1,23,-1
 627 257 l 1,24,-1
 657 413 l 2,25,15
 664 445 664 445 664 478 c 0,16,17
EndSplineSet
EndChar

StartChar: Aogonek.ss01
Encoding: 65564 -1 735
Width: 773
Flags: W
LayerCount: 2
Fore
SplineSet
645.5 644.5 m 128,-1,1
 707 589 707 589 707 488 c 0,2,3
 707 456 707 456 699 413 c 2,4,-1
 618 0 l 1,5,6
 541 -46 541 -46 508.5 -76.5 c 128,-1,7
 476 -107 476 -107 476 -141 c 0,8,9
 476 -159 476 -159 487 -168.5 c 128,-1,10
 498 -178 498 -178 515 -178 c 0,11,12
 541 -178 541 -178 572 -161 c 1,13,-1
 580 -191 l 1,14,15
 540 -214 540 -214 501 -214 c 0,16,17
 471 -214 471 -214 453.5 -197.5 c 128,-1,18
 436 -181 436 -181 436 -151 c 0,19,20
 436 -108 436 -108 470 -70.5 c 128,-1,21
 504 -33 504 -33 579 10 c 1,22,-1
 619 216 l 1,23,-1
 137 216 l 1,24,-1
 95 0 l 1,25,-1
 53 0 l 1,26,-1
 133 413 l 2,27,28
 159 548 159 548 248.5 624 c 128,-1,29
 338 700 338 700 471 700 c 0,30,0
 584 700 584 700 645.5 644.5 c 128,-1,1
664 478 m 0,32,33
 664 565 664 565 612 612 c 128,-1,34
 560 659 560 659 464 659 c 0,35,36
 351 659 351 659 274.5 594 c 128,-1,37
 198 529 198 529 175 413 c 2,38,-1
 145 257 l 1,39,-1
 627 257 l 1,40,-1
 657 413 l 2,41,31
 664 445 664 445 664 478 c 0,32,33
EndSplineSet
EndChar

StartChar: E.ss01
Encoding: 65570 -1 741
Width: 559
Flags: W
LayerCount: 2
Fore
SplineSet
503.5 694.5 m 128,-1,1
 551 684 551 684 580 667 c 1,2,-1
 558 631 l 1,3,4
 532 645 532 645 488.5 654.5 c 128,-1,5
 445 664 445 664 405 664 c 0,6,7
 343 664 343 664 291.5 643 c 128,-1,8
 240 622 240 622 210 585.5 c 128,-1,9
 180 549 180 549 180 505 c 0,10,11
 180 453 180 453 226 421.5 c 128,-1,12
 272 390 272 390 346 390 c 2,13,-1
 465 390 l 1,14,-1
 458 349 l 1,15,-1
 340 349 l 2,16,17
 270 349 270 349 211.5 325.5 c 128,-1,18
 153 302 153 302 118.5 261 c 128,-1,19
 84 220 84 220 84 170 c 0,20,21
 84 131 84 131 108 100.5 c 128,-1,22
 132 70 132 70 175 53 c 128,-1,23
 218 36 218 36 274 36 c 0,24,25
 320 36 320 36 377.5 50.5 c 128,-1,26
 435 65 435 65 477 87 c 1,27,-1
 488 49 l 1,28,29
 446 26 446 26 383 11 c 128,-1,30
 320 -4 320 -4 265 -4 c 0,31,32
 199 -4 199 -4 148 17 c 128,-1,33
 97 38 97 38 68.5 76 c 128,-1,34
 40 114 40 114 40 162 c 0,35,36
 40 213 40 213 70 258.5 c 128,-1,37
 100 304 100 304 151 334 c 128,-1,38
 202 364 202 364 263 371 c 1,39,40
 207 381 207 381 173.5 419 c 128,-1,41
 140 457 140 457 140 508 c 0,42,43
 140 563 140 563 176 608 c 128,-1,44
 212 653 212 653 274 679 c 128,-1,45
 336 705 336 705 410 705 c 0,46,0
 456 705 456 705 503.5 694.5 c 128,-1,1
EndSplineSet
EndChar

StartChar: uni1E1C.ss01
Encoding: 65574 -1 745
Width: 559
Flags: W
LayerCount: 2
Fore
SplineSet
311 794 m 128,-1,1
 285 820 285 820 285 862 c 0,2,3
 285 868 285 868 287 882 c 1,4,-1
 320 882 l 1,5,6
 319 877 319 877 319 868 c 0,7,8
 319 839 319 839 337 820.5 c 128,-1,9
 355 802 355 802 384 802 c 0,10,11
 418 802 418 802 445.5 825 c 128,-1,12
 473 848 473 848 480 882 c 1,13,-1
 513 882 l 1,14,15
 502 832 502 832 464 800 c 128,-1,16
 426 768 426 768 379 768 c 0,17,0
 337 768 337 768 311 794 c 128,-1,1
291.5 643 m 128,-1,19
 240 622 240 622 210 585.5 c 128,-1,20
 180 549 180 549 180 505 c 0,21,22
 180 453 180 453 226 421.5 c 128,-1,23
 272 390 272 390 346 390 c 2,24,-1
 465 390 l 1,25,-1
 458 349 l 1,26,-1
 340 349 l 2,27,28
 270 349 270 349 211.5 325.5 c 128,-1,29
 153 302 153 302 118.5 261 c 128,-1,30
 84 220 84 220 84 170 c 0,31,32
 84 131 84 131 108 100.5 c 128,-1,33
 132 70 132 70 175 53 c 128,-1,34
 218 36 218 36 274 36 c 0,35,36
 320 36 320 36 377.5 50.5 c 128,-1,37
 435 65 435 65 477 87 c 1,38,-1
 488 49 l 1,39,40
 448 27 448 27 386.5 12 c 128,-1,41
 325 -3 325 -3 271 -4 c 1,42,-1
 247 -53 l 1,43,44
 280 -55 280 -55 297 -73.5 c 128,-1,45
 314 -92 314 -92 314 -117 c 0,46,47
 314 -156 314 -156 282 -185 c 128,-1,48
 250 -214 250 -214 201 -214 c 0,49,50
 180 -214 180 -214 159.5 -208.5 c 128,-1,51
 139 -203 139 -203 126 -193 c 1,52,-1
 144 -159 l 1,53,54
 155 -167 155 -167 171 -172.5 c 128,-1,55
 187 -178 187 -178 203 -178 c 0,56,57
 236 -178 236 -178 256 -160 c 128,-1,58
 276 -142 276 -142 276 -119 c 0,59,60
 276 -102 276 -102 264 -90 c 128,-1,61
 252 -78 252 -78 230 -78 c 2,62,-1
 201 -78 l 1,63,-1
 237 -3 l 1,64,65
 148 4 148 4 94 49 c 128,-1,66
 40 94 40 94 40 162 c 0,67,68
 40 213 40 213 70 258.5 c 128,-1,69
 100 304 100 304 151 334 c 128,-1,70
 202 364 202 364 263 371 c 1,71,72
 207 381 207 381 173.5 419 c 128,-1,73
 140 457 140 457 140 508 c 0,74,75
 140 563 140 563 176 608 c 128,-1,76
 212 653 212 653 274 679 c 128,-1,77
 336 705 336 705 410 705 c 0,78,79
 456 705 456 705 503.5 694.5 c 128,-1,80
 551 684 551 684 580 667 c 1,81,-1
 558 631 l 1,82,83
 532 645 532 645 488.5 654.5 c 128,-1,84
 445 664 445 664 405 664 c 0,85,18
 343 664 343 664 291.5 643 c 128,-1,19
EndSplineSet
EndChar

